<svg width="1920" height="1080" viewBox="0 0 1920 1080" fill="none" xmlns="http://www.w3.org/2000/svg">
<rect x="1477" y="80" width="357" height="920" rx="5" fill="#4ADE80"/>
<path d="M1595.31 534.276C1595.2 533.13 1594.71 532.24 1593.85 531.605C1592.98 530.971 1591.82 530.653 1590.34 530.653C1589.33 530.653 1588.49 530.795 1587.8 531.08C1587.1 531.354 1586.57 531.738 1586.2 532.23C1585.84 532.723 1585.66 533.281 1585.66 533.906C1585.65 534.427 1585.75 534.882 1585.99 535.27C1586.24 535.658 1586.57 535.994 1587 536.278C1587.43 536.553 1587.92 536.795 1588.48 537.003C1589.04 537.202 1589.63 537.372 1590.27 537.514L1592.88 538.139C1594.15 538.423 1595.31 538.802 1596.38 539.276C1597.44 539.749 1598.35 540.331 1599.13 541.023C1599.91 541.714 1600.51 542.528 1600.93 543.466C1601.37 544.403 1601.59 545.478 1601.6 546.69C1601.59 548.471 1601.14 550.014 1600.24 551.321C1599.35 552.618 1598.06 553.627 1596.38 554.347C1594.7 555.057 1592.68 555.412 1590.31 555.412C1587.96 555.412 1585.92 555.052 1584.17 554.332C1582.44 553.613 1581.09 552.547 1580.11 551.136C1579.14 549.716 1578.64 547.959 1578.59 545.866H1584.54C1584.61 546.842 1584.89 547.656 1585.38 548.31C1585.88 548.954 1586.55 549.441 1587.38 549.773C1588.23 550.095 1589.18 550.256 1590.24 550.256C1591.28 550.256 1592.18 550.104 1592.95 549.801C1593.73 549.498 1594.33 549.077 1594.76 548.537C1595.18 547.997 1595.39 547.377 1595.39 546.676C1595.39 546.023 1595.2 545.473 1594.81 545.028C1594.43 544.583 1593.88 544.205 1593.14 543.892C1592.41 543.58 1591.51 543.295 1590.45 543.04L1587.28 542.244C1584.83 541.648 1582.89 540.715 1581.47 539.446C1580.05 538.177 1579.35 536.468 1579.36 534.318C1579.35 532.557 1579.82 531.018 1580.76 529.702C1581.72 528.385 1583.03 527.358 1584.7 526.619C1586.37 525.881 1588.26 525.511 1590.38 525.511C1592.54 525.511 1594.42 525.881 1596.03 526.619C1597.65 527.358 1598.91 528.385 1599.81 529.702C1600.71 531.018 1601.18 532.543 1601.2 534.276H1595.31ZM1605.74 555V525.909H1625.34V530.98H1611.89V537.912H1624.33V542.983H1611.89V549.929H1625.4V555H1605.74ZM1630.23 555V525.909H1641.71C1643.91 525.909 1645.78 526.302 1647.33 527.088C1648.9 527.865 1650.08 528.968 1650.9 530.398C1651.72 531.818 1652.13 533.49 1652.13 535.412C1652.13 537.344 1651.72 539.006 1650.88 540.398C1650.05 541.78 1648.84 542.841 1647.26 543.58C1645.69 544.318 1643.79 544.688 1641.55 544.688H1633.87V539.744H1640.56C1641.73 539.744 1642.71 539.583 1643.48 539.261C1644.26 538.939 1644.84 538.456 1645.22 537.812C1645.61 537.169 1645.8 536.368 1645.8 535.412C1645.8 534.446 1645.61 533.632 1645.22 532.969C1644.84 532.306 1644.26 531.804 1643.47 531.463C1642.69 531.113 1641.71 530.938 1640.53 530.938H1636.38V555H1630.23ZM1645.94 541.761L1653.17 555H1646.38L1639.31 541.761H1645.94ZM1660.96 525.909L1667.99 548.011H1668.26L1675.3 525.909H1682.12L1672.09 555H1664.17L1654.12 525.909H1660.96ZM1685.62 555V525.909H1705.22V530.98H1691.77V537.912H1704.22V542.983H1691.77V549.929H1705.28V555H1685.62ZM1710.11 555V525.909H1721.59C1723.79 525.909 1725.66 526.302 1727.22 527.088C1728.78 527.865 1729.97 528.968 1730.78 530.398C1731.61 531.818 1732.02 533.49 1732.02 535.412C1732.02 537.344 1731.6 539.006 1730.77 540.398C1729.93 541.78 1728.73 542.841 1727.15 543.58C1725.57 544.318 1723.67 544.688 1721.44 544.688H1713.75V539.744H1720.44C1721.62 539.744 1722.59 539.583 1723.37 539.261C1724.14 538.939 1724.72 538.456 1725.1 537.812C1725.49 537.169 1725.68 536.368 1725.68 535.412C1725.68 534.446 1725.49 533.632 1725.1 532.969C1724.72 532.306 1724.14 531.804 1723.35 531.463C1722.58 531.113 1721.6 530.938 1720.41 530.938H1716.26V555H1710.11ZM1725.82 541.761L1733.05 555H1726.26L1719.19 541.761H1725.82Z" fill="#333333"/>
<rect x="77" y="80" width="345" height="920" rx="5" fill="white"/>
<path d="M205.196 536.094H198.974C198.861 535.289 198.629 534.574 198.278 533.949C197.928 533.314 197.478 532.775 196.929 532.33C196.38 531.884 195.745 531.544 195.026 531.307C194.315 531.07 193.544 530.952 192.71 530.952C191.205 530.952 189.893 531.326 188.776 532.074C187.658 532.812 186.792 533.892 186.176 535.312C185.561 536.723 185.253 538.437 185.253 540.455C185.253 542.528 185.561 544.271 186.176 545.682C186.801 547.093 187.672 548.158 188.79 548.878C189.907 549.598 191.2 549.957 192.668 549.957C193.491 549.957 194.254 549.848 194.955 549.631C195.665 549.413 196.295 549.096 196.844 548.679C197.393 548.253 197.848 547.737 198.207 547.131C198.577 546.525 198.832 545.833 198.974 545.057L205.196 545.085C205.035 546.42 204.633 547.708 203.989 548.949C203.354 550.18 202.497 551.283 201.418 552.259C200.348 553.224 199.069 553.991 197.582 554.56C196.105 555.118 194.434 555.398 192.568 555.398C189.973 555.398 187.653 554.811 185.608 553.636C183.572 552.462 181.962 550.762 180.778 548.537C179.604 546.312 179.017 543.617 179.017 540.455C179.017 537.282 179.614 534.583 180.807 532.358C182 530.133 183.619 528.437 185.665 527.273C187.71 526.098 190.011 525.511 192.568 525.511C194.254 525.511 195.816 525.748 197.256 526.222C198.705 526.695 199.988 527.386 201.105 528.295C202.223 529.195 203.132 530.298 203.832 531.605C204.543 532.912 204.997 534.408 205.196 536.094ZM209.607 555V525.909H215.757V549.929H228.229V555H209.607ZM238.452 525.909V555H232.302V525.909H238.452ZM243.513 555V525.909H263.115V530.98H249.663V537.912H262.107V542.983H249.663V549.929H263.172V555H243.513ZM292.337 525.909V555H287.025L274.369 536.69H274.156V555H268.005V525.909H273.403L285.96 544.205H286.215V525.909H292.337ZM296.311 530.98V525.909H320.203V530.98H311.297V555H305.217V530.98H296.311Z" fill="#333333"/>
<path d="M481.52 155.909V185H478.864V155.909H481.52ZM491.257 171.364V185H488.729V163.182H491.186V166.605H491.413C491.925 165.488 492.72 164.593 493.8 163.92C494.889 163.239 496.233 162.898 497.834 162.898C499.302 162.898 500.589 163.205 501.697 163.821C502.815 164.427 503.681 165.322 504.297 166.506C504.922 167.689 505.234 169.143 505.234 170.866V185H502.706V171.023C502.706 169.233 502.204 167.817 501.2 166.776C500.206 165.734 498.871 165.213 497.195 165.213C496.049 165.213 495.031 165.459 494.141 165.952C493.25 166.444 492.545 167.154 492.024 168.082C491.513 169.001 491.257 170.095 491.257 171.364ZM511.921 185V163.182H514.464V185H511.921ZM513.214 159.432C512.693 159.432 512.248 159.257 511.879 158.906C511.509 158.546 511.325 158.116 511.325 157.614C511.325 157.112 511.509 156.686 511.879 156.335C512.248 155.975 512.693 155.795 513.214 155.795C513.735 155.795 514.18 155.975 514.549 156.335C514.918 156.686 515.103 157.112 515.103 157.614C515.103 158.116 514.918 158.546 514.549 158.906C514.18 159.257 513.735 159.432 513.214 159.432ZM529.744 163.182V165.384H519.332V163.182H529.744ZM522.585 157.955H525.128V179.304C525.128 180.213 525.284 180.928 525.597 181.449C525.909 181.96 526.316 182.325 526.818 182.543C527.32 182.751 527.855 182.855 528.423 182.855C528.755 182.855 529.039 182.836 529.276 182.798C529.512 182.751 529.721 182.704 529.901 182.656L530.44 184.943C530.194 185.038 529.891 185.123 529.531 185.199C529.171 185.284 528.726 185.327 528.196 185.327C527.268 185.327 526.373 185.123 525.511 184.716C524.659 184.309 523.958 183.703 523.409 182.898C522.86 182.093 522.585 181.094 522.585 179.901V157.955ZM535.515 185V163.182H538.058V185H535.515ZM536.808 159.432C536.287 159.432 535.842 159.257 535.472 158.906C535.103 158.546 534.918 158.116 534.918 157.614C534.918 157.112 535.103 156.686 535.472 156.335C535.842 155.975 536.287 155.795 536.808 155.795C537.328 155.795 537.773 155.975 538.143 156.335C538.512 156.686 538.697 157.112 538.697 157.614C538.697 158.116 538.512 158.546 538.143 158.906C537.773 159.257 537.328 159.432 536.808 159.432ZM550.838 185.497C549.522 185.497 548.319 185.241 547.23 184.73C546.141 184.209 545.275 183.461 544.631 182.486C543.987 181.501 543.665 180.308 543.665 178.906C543.665 177.827 543.868 176.918 544.276 176.179C544.683 175.44 545.26 174.834 546.009 174.361C546.757 173.887 547.642 173.513 548.665 173.239C549.688 172.964 550.814 172.751 552.045 172.599C553.267 172.448 554.299 172.315 555.142 172.202C555.994 172.088 556.643 171.908 557.088 171.662C557.533 171.416 557.756 171.018 557.756 170.469V169.957C557.756 168.471 557.311 167.301 556.42 166.449C555.54 165.587 554.271 165.156 552.614 165.156C551.042 165.156 549.759 165.502 548.764 166.193C547.779 166.884 547.088 167.699 546.69 168.636L544.29 167.77C544.782 166.577 545.464 165.625 546.335 164.915C547.206 164.195 548.182 163.679 549.261 163.366C550.341 163.045 551.435 162.884 552.543 162.884C553.376 162.884 554.242 162.992 555.142 163.21C556.051 163.428 556.894 163.807 557.67 164.347C558.447 164.877 559.077 165.62 559.56 166.577C560.043 167.524 560.284 168.726 560.284 170.185V185H557.756V181.548H557.599C557.296 182.192 556.847 182.817 556.25 183.423C555.653 184.029 554.905 184.527 554.006 184.915C553.106 185.303 552.05 185.497 550.838 185.497ZM551.179 183.182C552.524 183.182 553.688 182.884 554.673 182.287C555.658 181.69 556.416 180.9 556.946 179.915C557.486 178.92 557.756 177.827 557.756 176.634V173.48C557.566 173.66 557.249 173.821 556.804 173.963C556.368 174.105 555.862 174.233 555.284 174.347C554.716 174.451 554.148 174.541 553.58 174.616C553.011 174.692 552.5 174.759 552.045 174.815C550.814 174.967 549.763 175.204 548.892 175.526C548.021 175.848 547.353 176.293 546.889 176.861C546.425 177.42 546.193 178.139 546.193 179.02C546.193 180.346 546.667 181.373 547.614 182.102C548.561 182.822 549.749 183.182 551.179 183.182ZM569.538 155.909V185H567.01V155.909H569.538ZM587.479 185V163.182H589.936V166.534H590.121C590.556 165.436 591.314 164.55 592.393 163.878C593.482 163.196 594.714 162.855 596.087 162.855C596.295 162.855 596.527 162.86 596.783 162.869C597.038 162.879 597.251 162.888 597.422 162.898V165.469C597.308 165.45 597.109 165.421 596.825 165.384C596.541 165.346 596.233 165.327 595.902 165.327C594.766 165.327 593.752 165.568 592.862 166.051C591.982 166.525 591.286 167.183 590.774 168.026C590.263 168.868 590.007 169.83 590.007 170.909V185H587.479ZM609.893 185.455C607.857 185.455 606.096 184.981 604.609 184.034C603.123 183.078 601.972 181.757 601.158 180.071C600.353 178.376 599.95 176.425 599.95 174.219C599.95 172.022 600.353 170.071 601.158 168.366C601.972 166.652 603.094 165.312 604.524 164.347C605.964 163.371 607.625 162.884 609.51 162.884C610.694 162.884 611.835 163.101 612.933 163.537C614.032 163.963 615.017 164.621 615.888 165.511C616.768 166.392 617.464 167.505 617.976 168.849C618.487 170.185 618.743 171.766 618.743 173.594V174.844H601.697V172.614H616.158C616.158 171.212 615.874 169.953 615.305 168.835C614.747 167.708 613.965 166.818 612.962 166.165C611.967 165.511 610.817 165.185 609.51 165.185C608.127 165.185 606.911 165.554 605.859 166.293C604.808 167.031 603.984 168.007 603.388 169.219C602.801 170.431 602.502 171.757 602.493 173.196V174.531C602.493 176.264 602.791 177.779 603.388 179.077C603.994 180.365 604.851 181.364 605.959 182.074C607.067 182.784 608.378 183.139 609.893 183.139C610.926 183.139 611.83 182.978 612.607 182.656C613.393 182.334 614.051 181.903 614.581 181.364C615.121 180.814 615.528 180.213 615.803 179.56L618.203 180.341C617.872 181.259 617.327 182.107 616.57 182.884C615.821 183.66 614.884 184.285 613.757 184.759C612.64 185.223 611.352 185.455 609.893 185.455ZM639.102 193.182V180.952H638.874C638.581 181.615 638.164 182.296 637.624 182.997C637.085 183.688 636.37 184.271 635.479 184.744C634.589 185.218 633.486 185.455 632.17 185.455C630.389 185.455 628.822 184.981 627.468 184.034C626.123 183.087 625.072 181.766 624.315 180.071C623.567 178.376 623.192 176.402 623.192 174.148C623.192 171.903 623.567 169.938 624.315 168.253C625.072 166.558 626.128 165.241 627.482 164.304C628.836 163.357 630.413 162.884 632.212 162.884C633.548 162.884 634.651 163.12 635.522 163.594C636.403 164.067 637.108 164.65 637.638 165.341C638.169 166.023 638.581 166.69 638.874 167.344H639.173V163.182H641.644V193.182H639.102ZM632.468 183.139C633.879 183.139 635.082 182.756 636.076 181.989C637.07 181.212 637.828 180.147 638.349 178.793C638.879 177.429 639.144 175.866 639.144 174.105C639.144 172.363 638.884 170.824 638.363 169.489C637.842 168.144 637.085 167.093 636.09 166.335C635.105 165.568 633.898 165.185 632.468 165.185C631.01 165.185 629.779 165.582 628.775 166.378C627.771 167.164 627.013 168.229 626.502 169.574C625.991 170.919 625.735 172.429 625.735 174.105C625.735 175.8 625.996 177.33 626.516 178.693C627.037 180.057 627.799 181.141 628.803 181.946C629.807 182.741 631.029 183.139 632.468 183.139ZM662.163 176.662V163.182H664.691V185H662.163V181.378H661.964C661.452 182.495 660.643 183.428 659.535 184.176C658.427 184.915 657.073 185.284 655.472 185.284C654.08 185.284 652.844 184.981 651.765 184.375C650.685 183.759 649.838 182.86 649.222 181.676C648.607 180.492 648.299 179.039 648.299 177.315V163.182H650.827V177.159C650.827 178.864 651.329 180.237 652.333 181.278C653.337 182.311 654.625 182.827 656.197 182.827C657.182 182.827 658.129 182.59 659.038 182.116C659.947 181.643 660.695 180.952 661.282 180.043C661.869 179.124 662.163 177.997 662.163 176.662ZM680.206 185.455C678.17 185.455 676.409 184.981 674.922 184.034C673.435 183.078 672.285 181.757 671.47 180.071C670.665 178.376 670.263 176.425 670.263 174.219C670.263 172.022 670.665 170.071 671.47 168.366C672.285 166.652 673.407 165.312 674.837 164.347C676.276 163.371 677.938 162.884 679.822 162.884C681.006 162.884 682.147 163.101 683.246 163.537C684.344 163.963 685.329 164.621 686.2 165.511C687.081 166.392 687.777 167.505 688.288 168.849C688.8 170.185 689.055 171.766 689.055 173.594V174.844H672.01V172.614H686.47C686.47 171.212 686.186 169.953 685.618 168.835C685.059 167.708 684.278 166.818 683.274 166.165C682.28 165.511 681.129 165.185 679.822 165.185C678.44 165.185 677.223 165.554 676.172 166.293C675.121 167.031 674.297 168.007 673.7 169.219C673.113 170.431 672.815 171.757 672.805 173.196V174.531C672.805 176.264 673.104 177.779 673.7 179.077C674.306 180.365 675.163 181.364 676.271 182.074C677.379 182.784 678.691 183.139 680.206 183.139C681.238 183.139 682.143 182.978 682.919 182.656C683.705 182.334 684.363 181.903 684.893 181.364C685.433 180.814 685.84 180.213 686.115 179.56L688.516 180.341C688.184 181.259 687.64 182.107 686.882 182.884C686.134 183.66 685.196 184.285 684.07 184.759C682.952 185.223 681.664 185.455 680.206 185.455ZM709.286 167.969L706.971 168.622C706.744 167.969 706.422 167.377 706.005 166.847C705.588 166.316 705.044 165.895 704.371 165.582C703.709 165.27 702.885 165.114 701.9 165.114C700.423 165.114 699.21 165.464 698.263 166.165C697.317 166.866 696.843 167.77 696.843 168.878C696.843 169.815 697.165 170.578 697.809 171.165C698.462 171.742 699.466 172.202 700.82 172.543L704.116 173.352C705.943 173.797 707.312 174.503 708.221 175.469C709.139 176.435 709.599 177.647 709.599 179.105C709.599 180.336 709.258 181.43 708.576 182.386C707.894 183.343 706.942 184.096 705.721 184.645C704.509 185.185 703.103 185.455 701.502 185.455C699.371 185.455 697.615 184.976 696.232 184.02C694.85 183.054 693.964 181.662 693.576 179.844L696.005 179.247C696.317 180.545 696.928 181.525 697.837 182.188C698.756 182.85 699.963 183.182 701.46 183.182C703.136 183.182 704.476 182.808 705.479 182.06C706.483 181.302 706.985 180.355 706.985 179.219C706.985 178.338 706.692 177.599 706.104 177.003C705.517 176.397 704.627 175.952 703.434 175.668L699.869 174.815C697.975 174.361 696.573 173.641 695.664 172.656C694.755 171.671 694.3 170.45 694.3 168.991C694.3 167.789 694.627 166.733 695.281 165.824C695.934 164.905 696.834 164.186 697.979 163.665C699.125 163.144 700.432 162.884 701.9 162.884C703.898 162.884 705.494 163.338 706.687 164.247C707.889 165.147 708.756 166.387 709.286 167.969ZM723.729 163.182V165.384H713.317V163.182H723.729ZM716.57 157.955H719.112V179.304C719.112 180.213 719.268 180.928 719.581 181.449C719.893 181.96 720.301 182.325 720.803 182.543C721.304 182.751 721.839 182.855 722.408 182.855C722.739 182.855 723.023 182.836 723.26 182.798C723.497 182.751 723.705 182.704 723.885 182.656L724.425 184.943C724.179 185.038 723.875 185.123 723.516 185.199C723.156 185.284 722.711 185.327 722.18 185.327C721.252 185.327 720.357 185.123 719.496 184.716C718.643 184.309 717.943 183.703 717.393 182.898C716.844 182.093 716.57 181.094 716.57 179.901V157.955ZM486.818 233.455C484.934 233.455 483.267 232.976 481.818 232.02C480.379 231.063 479.252 229.742 478.438 228.057C477.623 226.362 477.216 224.406 477.216 222.19C477.216 219.955 477.623 217.991 478.438 216.295C479.252 214.591 480.379 213.265 481.818 212.318C483.267 211.362 484.934 210.884 486.818 210.884C488.703 210.884 490.365 211.362 491.804 212.318C493.243 213.275 494.37 214.6 495.185 216.295C496.009 217.991 496.42 219.955 496.42 222.19C496.42 224.406 496.013 226.362 495.199 228.057C494.384 229.742 493.253 231.063 491.804 232.02C490.365 232.976 488.703 233.455 486.818 233.455ZM486.818 231.139C488.333 231.139 489.616 230.732 490.668 229.918C491.719 229.103 492.514 228.019 493.054 226.665C493.603 225.311 493.878 223.819 493.878 222.19C493.878 220.562 493.603 219.065 493.054 217.702C492.514 216.338 491.719 215.244 490.668 214.42C489.616 213.597 488.333 213.185 486.818 213.185C485.313 213.185 484.029 213.597 482.969 214.42C481.918 215.244 481.117 216.338 480.568 217.702C480.028 219.065 479.759 220.562 479.759 222.19C479.759 223.819 480.028 225.311 480.568 226.665C481.117 228.019 481.918 229.103 482.969 229.918C484.02 230.732 485.303 231.139 486.818 231.139ZM504.499 219.364V233H501.971V211.182H504.428V214.605H504.656C505.167 213.488 505.962 212.593 507.042 211.92C508.131 211.239 509.476 210.898 511.076 210.898C512.544 210.898 513.832 211.205 514.94 211.821C516.057 212.427 516.924 213.322 517.539 214.506C518.164 215.689 518.477 217.143 518.477 218.866V233H515.948V219.023C515.948 217.233 515.446 215.817 514.442 214.776C513.448 213.734 512.113 213.213 510.437 213.213C509.291 213.213 508.273 213.459 507.383 213.952C506.493 214.444 505.787 215.154 505.266 216.082C504.755 217.001 504.499 218.095 504.499 219.364ZM535.462 233V211.182H541.513V233H535.462ZM538.501 208.369C537.602 208.369 536.83 208.071 536.186 207.474C535.552 206.868 535.234 206.144 535.234 205.301C535.234 204.468 535.552 203.753 536.186 203.156C536.83 202.55 537.602 202.247 538.501 202.247C539.401 202.247 540.168 202.55 540.803 203.156C541.446 203.753 541.768 204.468 541.768 205.301C541.768 206.144 541.446 206.868 540.803 207.474C540.168 208.071 539.401 208.369 538.501 208.369ZM552.411 220.386V233H546.36V211.182H552.127V215.031H552.383C552.866 213.762 553.675 212.759 554.812 212.02C555.948 211.272 557.326 210.898 558.945 210.898C560.46 210.898 561.781 211.229 562.908 211.892C564.035 212.555 564.911 213.502 565.536 214.733C566.161 215.955 566.474 217.413 566.474 219.108V233H560.423V220.188C560.432 218.852 560.091 217.811 559.4 217.062C558.709 216.305 557.757 215.926 556.545 215.926C555.73 215.926 555.011 216.101 554.386 216.452C553.77 216.802 553.287 217.313 552.937 217.986C552.596 218.649 552.421 219.449 552.411 220.386ZM579.283 233.355C577.625 233.355 576.125 232.929 574.78 232.077C573.445 231.215 572.384 229.951 571.598 228.284C570.821 226.608 570.433 224.553 570.433 222.119C570.433 219.619 570.836 217.541 571.641 215.884C572.446 214.217 573.516 212.972 574.851 212.148C576.196 211.314 577.668 210.898 579.268 210.898C580.49 210.898 581.508 211.106 582.322 211.523C583.146 211.93 583.809 212.441 584.311 213.057C584.822 213.663 585.211 214.259 585.476 214.847H585.661V203.909H591.697V233H585.732V229.506H585.476C585.192 230.112 584.789 230.713 584.268 231.31C583.757 231.897 583.089 232.384 582.266 232.773C581.451 233.161 580.457 233.355 579.283 233.355ZM581.2 228.54C582.176 228.54 583 228.275 583.672 227.744C584.354 227.205 584.875 226.452 585.234 225.486C585.604 224.52 585.788 223.388 585.788 222.091C585.788 220.794 585.608 219.667 585.249 218.71C584.889 217.754 584.368 217.015 583.686 216.494C583.004 215.973 582.176 215.713 581.2 215.713C580.206 215.713 579.368 215.983 578.686 216.523C578.004 217.062 577.488 217.811 577.138 218.767C576.787 219.723 576.612 220.831 576.612 222.091C576.612 223.36 576.787 224.482 577.138 225.457C577.498 226.423 578.014 227.181 578.686 227.73C579.368 228.27 580.206 228.54 581.2 228.54ZM606.616 233.426C604.371 233.426 602.44 232.972 600.82 232.062C599.21 231.144 597.97 229.847 597.099 228.17C596.228 226.485 595.792 224.491 595.792 222.19C595.792 219.946 596.228 217.976 597.099 216.281C597.97 214.586 599.196 213.265 600.778 212.318C602.369 211.371 604.234 210.898 606.374 210.898C607.814 210.898 609.154 211.13 610.394 211.594C611.644 212.048 612.733 212.735 613.661 213.653C614.599 214.572 615.328 215.727 615.849 217.119C616.37 218.502 616.63 220.121 616.63 221.977V223.639H598.207V219.889H610.934C610.934 219.018 610.745 218.246 610.366 217.574C609.987 216.902 609.461 216.376 608.789 215.997C608.126 215.609 607.354 215.415 606.474 215.415C605.555 215.415 604.741 215.628 604.031 216.054C603.33 216.471 602.781 217.034 602.383 217.744C601.985 218.445 601.781 219.226 601.772 220.088V223.653C601.772 224.733 601.971 225.666 602.369 226.452C602.776 227.238 603.349 227.844 604.087 228.27C604.826 228.696 605.702 228.909 606.715 228.909C607.388 228.909 608.003 228.814 608.562 228.625C609.121 228.436 609.599 228.152 609.996 227.773C610.394 227.394 610.697 226.93 610.906 226.381L616.502 226.75C616.218 228.095 615.636 229.269 614.755 230.273C613.884 231.267 612.757 232.044 611.374 232.602C610.001 233.152 608.415 233.426 606.616 233.426ZM625.245 211.182L629.251 218.81L633.356 211.182H639.563L633.242 222.091L639.734 233H633.555L629.251 225.457L625.018 233H618.768L625.245 222.091L618.995 211.182H625.245ZM646.694 233.369C645.756 233.369 644.951 233.038 644.279 232.375C643.616 231.703 643.285 230.898 643.285 229.96C643.285 229.032 643.616 228.237 644.279 227.574C644.951 226.911 645.756 226.58 646.694 226.58C647.603 226.58 648.398 226.911 649.08 227.574C649.762 228.237 650.103 229.032 650.103 229.96C650.103 230.585 649.942 231.158 649.62 231.679C649.308 232.19 648.896 232.602 648.384 232.915C647.873 233.218 647.309 233.369 646.694 233.369ZM661.122 220.386V233H655.071V203.909H660.952V215.031H661.207C661.7 213.743 662.495 212.735 663.594 212.006C664.692 211.267 666.07 210.898 667.727 210.898C669.242 210.898 670.563 211.229 671.69 211.892C672.827 212.545 673.707 213.488 674.332 214.719C674.967 215.94 675.279 217.403 675.27 219.108V233H669.219V220.188C669.228 218.843 668.887 217.796 668.196 217.048C667.514 216.3 666.558 215.926 665.327 215.926C664.503 215.926 663.774 216.101 663.139 216.452C662.514 216.802 662.022 217.313 661.662 217.986C661.312 218.649 661.132 219.449 661.122 220.386ZM691.637 211.182V215.727H678.498V211.182H691.637ZM681.481 205.955H687.532V226.295C687.532 226.854 687.617 227.29 687.788 227.602C687.958 227.905 688.195 228.118 688.498 228.241C688.81 228.365 689.17 228.426 689.577 228.426C689.862 228.426 690.146 228.402 690.43 228.355C690.714 228.298 690.932 228.256 691.083 228.227L692.035 232.73C691.732 232.825 691.306 232.934 690.756 233.057C690.207 233.189 689.54 233.27 688.754 233.298C687.295 233.355 686.017 233.161 684.918 232.716C683.829 232.271 682.982 231.58 682.376 230.642C681.77 229.705 681.471 228.521 681.481 227.091V205.955ZM695.579 233V211.182H701.346V215.031H701.602C702.056 213.753 702.814 212.744 703.874 212.006C704.935 211.267 706.204 210.898 707.681 210.898C709.177 210.898 710.451 211.272 711.502 212.02C712.553 212.759 713.254 213.762 713.604 215.031H713.832C714.277 213.781 715.082 212.782 716.246 212.034C717.421 211.277 718.808 210.898 720.408 210.898C722.444 210.898 724.097 211.546 725.366 212.844C726.644 214.132 727.283 215.959 727.283 218.327V233H721.246V219.52C721.246 218.308 720.924 217.399 720.281 216.793C719.637 216.187 718.832 215.884 717.866 215.884C716.767 215.884 715.91 216.234 715.295 216.935C714.679 217.626 714.371 218.54 714.371 219.676V233H708.505V219.392C708.505 218.322 708.197 217.47 707.582 216.835C706.976 216.201 706.175 215.884 705.181 215.884C704.509 215.884 703.903 216.054 703.363 216.395C702.833 216.726 702.411 217.195 702.099 217.801C701.786 218.398 701.63 219.098 701.63 219.903V233H695.579ZM738.114 203.909V233H732.063V203.909H738.114Z" fill="white"/>
<path d="M1397.06 195.068C1397.65 194.482 1397.65 193.532 1397.06 192.947L1387.51 183.4C1386.93 182.815 1385.98 182.815 1385.39 183.4C1384.81 183.986 1384.81 184.936 1385.39 185.522L1393.88 194.007L1385.39 202.492C1384.81 203.078 1384.81 204.028 1385.39 204.614C1385.98 205.199 1386.93 205.199 1387.51 204.614L1397.06 195.068ZM783 195.493L1396 195.507L1396 192.507L783 192.493L783 195.493Z" fill="white"/>
<path d="M469.939 310.96C469.354 311.546 469.354 312.496 469.939 313.081L479.486 322.627C480.072 323.213 481.022 323.213 481.607 322.627C482.193 322.041 482.193 321.091 481.607 320.505L473.121 312.021L481.606 303.535C482.192 302.949 482.192 301.999 481.606 301.413C481.02 300.828 480.07 300.828 479.485 301.414L469.939 310.96ZM471 313.521L1137 313.479L1137 310.479L471 310.521L471 313.521Z" fill="#4ADE80"/>
<g clip-path="url(#clip0_2_144)">
<path d="M1213.19 320.333C1212.03 320.333 1211.08 321.267 1211.08 322.417V328.667H1202.67V322.417C1202.67 321.267 1201.72 320.333 1200.56 320.333C1199.4 320.333 1198.46 321.267 1198.46 322.417V339.083C1198.46 340.233 1199.4 341.167 1200.56 341.167C1201.72 341.167 1202.67 340.233 1202.67 339.083V332.833H1211.08V339.083C1211.08 340.233 1212.03 341.167 1213.19 341.167C1214.35 341.167 1215.29 340.233 1215.29 339.083V322.417C1215.29 321.267 1214.35 320.333 1213.19 320.333Z" fill="#4ADE80"/>
<path d="M1230.02 320.333H1221.6C1220.44 320.333 1219.5 321.267 1219.5 322.417C1219.5 323.567 1220.44 324.5 1221.6 324.5H1223.71V339.083C1223.71 340.233 1224.65 341.167 1225.81 341.167C1226.97 341.167 1227.92 340.233 1227.92 339.083V324.5H1230.02C1231.18 324.5 1232.13 323.567 1232.13 322.417C1232.13 321.267 1231.18 320.333 1230.02 320.333Z" fill="#4ADE80"/>
<path d="M1251.87 320.492C1251.08 320.163 1250.18 320.346 1249.57 320.942L1244.75 325.717L1239.93 320.942C1239.33 320.35 1238.42 320.167 1237.63 320.492C1236.85 320.813 1236.33 321.575 1236.33 322.417V339.083C1236.33 340.233 1237.28 341.167 1238.44 341.167C1239.6 341.167 1240.54 340.233 1240.54 339.083V327.446L1243.26 330.137C1244.09 330.95 1245.42 330.95 1246.24 330.137L1248.96 327.446V339.083C1248.96 340.233 1249.9 341.167 1251.06 341.167C1252.22 341.167 1253.17 340.233 1253.17 339.083V322.417C1253.17 321.575 1252.65 320.813 1251.87 320.492Z" fill="#4ADE80"/>
<path d="M1267.9 337H1261.58V322.417C1261.58 321.267 1260.64 320.333 1259.48 320.333C1258.32 320.333 1257.38 321.267 1257.38 322.417V339.083C1257.38 340.233 1258.32 341.167 1259.48 341.167H1267.9C1269.06 341.167 1270 340.233 1270 339.083C1270 337.933 1269.06 337 1267.9 337Z" fill="#4ADE80"/>
<path d="M1242.65 316.167C1243.81 316.167 1244.75 315.233 1244.75 314.083V264.083C1244.75 262.933 1243.81 262 1242.65 262H1196.35C1196.07 262 1195.79 262.058 1195.54 262.163C1195.46 262.196 1195.4 262.258 1195.33 262.304C1195.17 262.396 1195 262.479 1194.86 262.608L1169.61 287.608C1169.52 287.704 1169.46 287.833 1169.39 287.946C1169.31 288.058 1169.21 288.154 1169.16 288.279C1169.06 288.533 1169 288.804 1169 289.083V359.917C1169 361.067 1169.94 362 1171.1 362H1242.65C1243.81 362 1244.75 361.067 1244.75 359.917V347.417C1244.75 346.267 1243.81 345.333 1242.65 345.333C1241.48 345.333 1240.54 346.267 1240.54 347.417V357.833H1173.21V291.167H1196.35C1197.52 291.167 1198.46 290.233 1198.46 289.083V266.167H1240.54V314.083C1240.54 315.233 1241.48 316.167 1242.65 316.167ZM1194.25 287H1176.18L1194.25 269.113V287Z" fill="#4ADE80"/>
</g>
<g clip-path="url(#clip1_2_144)">
<path d="M1382.34 328.423L1381.72 328.319C1378.07 327.723 1377.52 326.774 1377.52 326.261C1377.52 325.432 1379.18 324.178 1381.69 324.178C1384.16 324.178 1385.78 325.349 1385.86 326.19C1385.97 327.34 1387.02 328.215 1388.14 328.065C1389.28 327.957 1390.12 326.94 1390.01 325.794C1389.69 322.494 1386.12 320.007 1381.69 320.007C1377.02 320.007 1373.35 322.753 1373.35 326.257C1373.35 329.519 1375.94 331.594 1381.05 332.428L1381.39 330.373L1381.66 332.532C1385.12 333.103 1385.85 333.969 1385.85 334.594C1385.85 335.423 1384.19 336.678 1381.68 336.678C1379.22 336.678 1377.59 335.503 1377.51 334.661C1377.4 333.511 1376.38 332.645 1375.24 332.786C1374.1 332.895 1373.25 333.911 1373.36 335.057C1373.68 338.357 1377.25 340.844 1381.68 340.844C1386.36 340.844 1390.02 338.099 1390.02 334.594C1390.02 331.336 1387.44 329.261 1382.34 328.423Z" fill="#4ADE80"/>
<path d="M1367.1 320.011C1365.95 320.011 1365.02 320.944 1365.02 322.094V334.594C1365.02 335.744 1364.08 336.678 1362.94 336.678C1361.79 336.678 1360.85 335.744 1360.85 334.594C1360.85 333.444 1359.92 332.511 1358.77 332.511C1357.62 332.511 1356.69 333.444 1356.69 334.594C1356.69 338.04 1359.49 340.844 1362.94 340.844C1366.38 340.844 1369.19 338.04 1369.19 334.594V322.094C1369.19 320.944 1368.25 320.011 1367.1 320.011Z" fill="#4ADE80"/>
<path d="M1374.92 316.167C1376.07 316.167 1377 315.233 1377 314.083V264.084C1377 262.934 1376.07 262.001 1374.92 262.001H1329.08C1328.8 262.001 1328.53 262.059 1328.28 262.163C1328.16 262.213 1328.07 262.305 1327.96 262.376C1327.84 262.451 1327.71 262.509 1327.61 262.609L1302.61 287.609C1302.51 287.705 1302.46 287.834 1302.38 287.946C1302.31 288.059 1302.21 288.155 1302.16 288.28C1302.05 288.534 1302 288.805 1302 289.084V359.916C1302 361.066 1302.93 361.999 1304.08 361.999H1374.92C1376.07 361.999 1377 361.066 1377 359.916V347.416C1377 346.266 1376.07 345.333 1374.92 345.333C1373.77 345.333 1372.83 346.266 1372.83 347.416V357.832H1306.17V291.167H1329.08C1330.23 291.167 1331.17 290.234 1331.17 289.084V266.167H1372.83V314.083C1372.83 315.233 1373.77 316.167 1374.92 316.167ZM1327 287H1309.11L1327 269.113V287Z" fill="#4ADE80"/>
</g>
<path d="M470.523 794V764.909H487.966V768.034H474.045V777.864H486.659V780.989H474.045V794H470.523ZM501.091 794.455C498.989 794.455 497.175 793.991 495.651 793.062C494.135 792.125 492.966 790.818 492.142 789.142C491.328 787.456 490.92 785.496 490.92 783.261C490.92 781.027 491.328 779.057 492.142 777.352C492.966 775.638 494.112 774.303 495.58 773.347C497.057 772.381 498.78 771.898 500.75 771.898C501.886 771.898 503.009 772.087 504.116 772.466C505.224 772.845 506.233 773.46 507.142 774.312C508.051 775.155 508.776 776.273 509.315 777.665C509.855 779.057 510.125 780.771 510.125 782.807V784.227H493.307V781.33H506.716C506.716 780.098 506.47 779 505.977 778.034C505.494 777.068 504.803 776.306 503.903 775.747C503.013 775.188 501.962 774.909 500.75 774.909C499.415 774.909 498.259 775.241 497.284 775.903C496.318 776.557 495.575 777.409 495.054 778.46C494.533 779.511 494.273 780.638 494.273 781.841V783.773C494.273 785.42 494.557 786.817 495.125 787.963C495.703 789.099 496.503 789.966 497.526 790.562C498.548 791.15 499.737 791.443 501.091 791.443C501.972 791.443 502.767 791.32 503.477 791.074C504.197 790.818 504.817 790.439 505.338 789.938C505.859 789.426 506.261 788.792 506.545 788.034L509.784 788.943C509.443 790.042 508.87 791.008 508.065 791.841C507.26 792.665 506.266 793.309 505.082 793.773C503.899 794.227 502.568 794.455 501.091 794.455ZM524.713 772.182V775.023H513.406V772.182H524.713ZM516.702 766.955H520.054V787.75C520.054 788.697 520.191 789.407 520.466 789.881C520.75 790.345 521.11 790.657 521.545 790.818C521.991 790.97 522.459 791.045 522.952 791.045C523.321 791.045 523.624 791.027 523.861 790.989C524.098 790.941 524.287 790.903 524.429 790.875L525.111 793.886C524.884 793.972 524.566 794.057 524.159 794.142C523.752 794.237 523.236 794.284 522.611 794.284C521.664 794.284 520.736 794.08 519.827 793.673C518.927 793.266 518.179 792.646 517.582 791.812C516.995 790.979 516.702 789.928 516.702 788.659V766.955ZM538.385 794.455C536.339 794.455 534.578 793.972 533.101 793.006C531.624 792.04 530.487 790.709 529.692 789.014C528.896 787.319 528.499 785.383 528.499 783.205C528.499 780.989 528.906 779.033 529.72 777.338C530.544 775.634 531.69 774.303 533.158 773.347C534.635 772.381 536.358 771.898 538.328 771.898C539.862 771.898 541.245 772.182 542.476 772.75C543.707 773.318 544.715 774.114 545.501 775.136C546.287 776.159 546.775 777.352 546.964 778.716H543.612C543.357 777.722 542.788 776.841 541.908 776.074C541.036 775.297 539.862 774.909 538.385 774.909C537.078 774.909 535.932 775.25 534.947 775.932C533.972 776.604 533.21 777.556 532.661 778.787C532.121 780.009 531.851 781.443 531.851 783.091C531.851 784.777 532.116 786.244 532.646 787.494C533.186 788.744 533.944 789.715 534.919 790.406C535.904 791.098 537.059 791.443 538.385 791.443C539.256 791.443 540.047 791.292 540.757 790.989C541.467 790.686 542.069 790.25 542.561 789.682C543.054 789.114 543.404 788.432 543.612 787.636H546.964C546.775 788.924 546.306 790.084 545.558 791.116C544.82 792.139 543.839 792.954 542.618 793.56C541.406 794.156 539.995 794.455 538.385 794.455ZM555.217 780.875V794H551.865V764.909H555.217V775.591H555.501C556.013 774.464 556.78 773.569 557.803 772.906C558.835 772.234 560.208 771.898 561.922 771.898C563.409 771.898 564.711 772.196 565.828 772.793C566.946 773.38 567.812 774.284 568.428 775.506C569.053 776.718 569.365 778.261 569.365 780.136V794H566.013V780.364C566.013 778.631 565.563 777.291 564.663 776.344C563.773 775.387 562.537 774.909 560.956 774.909C559.857 774.909 558.873 775.141 558.001 775.605C557.14 776.069 556.458 776.746 555.956 777.636C555.464 778.527 555.217 779.606 555.217 780.875Z" fill="white"/>
<path d="M1383.05 782.596C1383.64 782.014 1383.65 781.065 1383.07 780.475L1373.58 770.866C1373 770.276 1372.05 770.27 1371.46 770.852C1370.87 771.434 1370.87 772.384 1371.45 772.973L1379.88 781.515L1371.34 789.944C1370.75 790.525 1370.74 791.475 1371.32 792.065C1371.91 792.654 1372.85 792.661 1373.44 792.079L1383.05 782.596ZM617.99 777.971L1381.99 783.029L1382.01 780.029L618.01 774.971L617.99 777.971Z" fill="white"/>
<path d="M465.939 871.963C465.354 872.549 465.354 873.498 465.939 874.084L475.486 883.629C476.072 884.215 477.022 884.215 477.607 883.629C478.193 883.043 478.193 882.094 477.607 881.508L469.121 873.023L477.606 864.537C478.192 863.952 478.192 863.002 477.606 862.416C477.02 861.83 476.07 861.83 475.485 862.416L465.939 871.963ZM467 874.523L1226 874.477L1226 871.477L467 871.523L467 874.523Z" fill="#4ADE80"/>
<g clip-path="url(#clip2_2_144)">
<path d="M1297 823V883H1302V828H1342V843V848H1362V883H1367V848V843L1347 823H1342H1297ZM1347 829.768L1360.23 843H1347V829.768ZM1302 888V903L1301.96 903.654L1301.83 904.289L1301.62 904.914L1301.33 905.5L1300.96 906.037L1300.53 906.535L1300.05 906.965L1299.5 907.326L1298.91 907.619L1298.3 907.824L1297.65 907.961L1297 908L1296.35 907.961L1295.7 907.824L1295.09 907.619L1294.5 907.326L1293.95 906.965L1293.46 906.535L1293.03 906.037L1292.67 905.5L1292.38 904.914L1292.17 904.289L1292.04 903.654L1292 903H1287L1287.04 903.918L1287.18 904.836L1287.38 905.734L1287.67 906.613L1288.04 907.453L1288.5 908.264L1289.02 909.025L1289.61 909.738L1290.26 910.393L1290.97 910.979L1291.74 911.496L1292.54 911.955L1293.39 912.326L1294.27 912.619L1295.16 912.824L1296.08 912.961L1297 913L1297.92 912.961L1298.84 912.824L1299.73 912.619L1300.61 912.326L1301.46 911.955L1302.26 911.496L1303.03 910.979L1303.74 910.393L1304.39 909.738L1304.98 909.025L1305.5 908.264L1305.95 907.453L1306.33 906.613L1306.62 905.734L1306.82 904.836L1306.96 903.918L1307 903V888H1302ZM1319.5 888C1318.51 888 1317.54 888.194 1316.63 888.571C1315.72 888.948 1314.89 889.5 1314.2 890.197C1313.5 890.893 1312.95 891.72 1312.57 892.63C1312.19 893.54 1312 894.515 1312 895.5C1312 896.485 1312.19 897.46 1312.57 898.37C1312.95 899.28 1313.5 900.107 1314.2 900.803C1314.89 901.5 1315.72 902.052 1316.63 902.429C1317.54 902.806 1318.51 903 1319.5 903H1324.5C1325.16 903 1325.8 903.263 1326.27 903.732C1326.74 904.201 1327 904.837 1327 905.5C1327 906.163 1326.74 906.799 1326.27 907.268C1325.8 907.737 1325.16 908 1324.5 908H1312V913H1324.5C1325.48 913 1326.46 912.806 1327.37 912.429C1328.28 912.052 1329.11 911.5 1329.8 910.803C1330.5 910.107 1331.05 909.28 1331.43 908.37C1331.81 907.46 1332 906.485 1332 905.5C1332 904.515 1331.81 903.54 1331.43 902.63C1331.05 901.72 1330.5 900.893 1329.8 900.197C1329.11 899.5 1328.28 898.948 1327.37 898.571C1326.46 898.194 1325.48 898 1324.5 898H1319.5C1318.84 898 1318.2 897.737 1317.73 897.268C1317.26 896.799 1317 896.163 1317 895.5C1317 894.837 1317.26 894.201 1317.73 893.732C1318.2 893.263 1318.84 893 1319.5 893H1332V888H1319.5ZM1347 888L1346.08 888.039L1345.16 888.166L1344.27 888.381L1343.39 888.674L1342.54 889.045L1341.74 889.494L1340.97 890.021L1340.26 890.607L1339.61 891.262L1339.02 891.975L1338.5 892.736L1338.04 893.537L1337.67 894.387L1337.38 895.256L1337.18 896.164L1337.04 897.082L1337 898V903L1337.04 903.918L1337.18 904.836L1337.38 905.734L1337.67 906.613L1338.04 907.453L1338.5 908.264L1339.02 909.025L1339.61 909.738L1340.26 910.393L1340.97 910.979L1341.74 911.496L1342.54 911.955L1343.39 912.326L1344.27 912.619L1345.16 912.824L1346.08 912.961L1347 913L1347.92 912.961L1348.84 912.824L1349.73 912.619L1350.61 912.326L1351.46 911.955L1352.26 911.496L1353.03 910.979L1353.74 910.393L1354.39 909.738L1354.98 909.025L1355.5 908.264L1355.95 907.453L1356.33 906.613L1356.62 905.734L1356.82 904.836L1356.96 903.918L1357 903V898L1356.96 897.082L1356.82 896.164L1356.62 895.256L1356.33 894.387L1355.95 893.537L1355.5 892.736L1354.98 891.975L1354.39 891.262L1353.74 890.607L1353.03 890.021L1352.26 889.494L1351.46 889.045L1350.61 888.674L1349.73 888.381L1348.84 888.166L1347.92 888.039L1347 888ZM1364.57 888C1364.23 887.991 1363.9 888.049 1363.59 888.17C1363.28 888.292 1363 888.475 1362.76 888.708C1362.52 888.941 1362.33 889.219 1362.2 889.527C1362.07 889.835 1362 890.166 1362 890.5V913H1367V898.01L1377.5 912.004C1377.81 912.425 1378.25 912.735 1378.75 912.892C1379.26 913.049 1379.79 913.044 1380.29 912.877C1380.79 912.711 1381.22 912.391 1381.53 911.965C1381.84 911.538 1382 911.025 1382 910.5V888H1377V902.99L1366.5 888.996C1366.28 888.695 1365.98 888.449 1365.65 888.277C1365.31 888.104 1364.94 888.01 1364.57 888ZM1347 893L1347.65 893.039L1348.3 893.166L1348.91 893.381L1349.5 893.674L1350.05 894.035L1350.53 894.465L1350.96 894.953L1351.33 895.5L1351.62 896.086L1351.83 896.701L1351.96 897.346L1352 898V903L1351.96 903.654L1351.83 904.289L1351.62 904.914L1351.33 905.5L1350.96 906.037L1350.53 906.535L1350.05 906.965L1349.5 907.326L1348.91 907.619L1348.3 907.824L1347.65 907.961L1347 908L1346.35 907.961L1345.7 907.824L1345.09 907.619L1344.5 907.326L1343.95 906.965L1343.46 906.535L1343.03 906.037L1342.67 905.5L1342.38 904.914L1342.17 904.289L1342.04 903.654L1342 903V898L1342.04 897.346L1342.17 896.701L1342.38 896.086L1342.67 895.5L1343.03 894.953L1343.46 894.465L1343.95 894.035L1344.5 893.674L1345.09 893.381L1345.7 893.166L1346.35 893.039L1347 893ZM1297 918V923H1367V918H1362H1302H1297Z" fill="#4ADE80"/>
</g>
<path d="M476.17 646.693C475.724 647.704 476.183 648.885 477.193 649.33L493.664 656.59C494.675 657.035 495.856 656.577 496.301 655.566C496.747 654.556 496.288 653.375 495.278 652.93L480.637 646.477L487.09 631.836C487.535 630.825 487.077 629.644 486.066 629.199C485.056 628.753 483.875 629.212 483.43 630.222L476.17 646.693ZM477.403 434.409C536.111 452.763 580.758 469.344 610.888 485.361C625.955 493.37 637.285 501.184 644.919 508.928C652.544 516.665 656.352 524.195 656.698 531.684C657.044 539.168 653.952 547.016 646.927 555.428C639.893 563.852 629.029 572.699 614.149 582.102C584.393 600.906 538.994 621.679 477.276 645.636L478.724 649.364C540.484 625.391 586.186 604.505 616.286 585.484C631.334 575.974 642.586 566.868 649.997 557.992C657.418 549.106 661.101 540.309 660.694 531.499C660.287 522.694 655.812 514.281 647.767 506.12C639.73 497.967 628.003 489.929 612.765 481.829C582.287 465.627 537.339 448.956 478.597 430.591L477.403 434.409Z" fill="white"/>
<path d="M705.315 525.909V555H701.906L686.054 532.159H685.77V555H682.247V525.909H685.656L701.565 548.807H701.849V525.909H705.315ZM718.33 555.511C716.948 555.511 715.693 555.251 714.566 554.73C713.439 554.2 712.544 553.438 711.881 552.443C711.218 551.439 710.887 550.227 710.887 548.807C710.887 547.557 711.133 546.544 711.626 545.767C712.118 544.981 712.776 544.366 713.6 543.92C714.424 543.475 715.333 543.144 716.327 542.926C717.331 542.699 718.34 542.519 719.353 542.386C720.679 542.216 721.753 542.088 722.577 542.003C723.411 541.908 724.017 541.752 724.395 541.534C724.784 541.316 724.978 540.937 724.978 540.398V540.284C724.978 538.883 724.594 537.794 723.827 537.017C723.07 536.241 721.919 535.852 720.376 535.852C718.775 535.852 717.52 536.203 716.611 536.903C715.702 537.604 715.063 538.352 714.694 539.148L711.512 538.011C712.08 536.686 712.838 535.653 713.785 534.915C714.741 534.167 715.783 533.646 716.91 533.352C718.046 533.049 719.163 532.898 720.262 532.898C720.963 532.898 721.768 532.983 722.677 533.153C723.595 533.314 724.481 533.651 725.333 534.162C726.195 534.673 726.91 535.445 727.478 536.477C728.046 537.509 728.33 538.892 728.33 540.625V555H724.978V552.045H724.807C724.58 552.519 724.201 553.026 723.671 553.565C723.141 554.105 722.435 554.564 721.555 554.943C720.674 555.322 719.599 555.511 718.33 555.511ZM718.841 552.5C720.167 552.5 721.285 552.24 722.194 551.719C723.112 551.198 723.804 550.526 724.268 549.702C724.741 548.878 724.978 548.011 724.978 547.102V544.034C724.836 544.205 724.523 544.361 724.04 544.503C723.567 544.635 723.018 544.754 722.393 544.858C721.777 544.953 721.176 545.038 720.589 545.114C720.011 545.18 719.542 545.237 719.182 545.284C718.311 545.398 717.497 545.582 716.739 545.838C715.991 546.084 715.385 546.458 714.921 546.96C714.466 547.453 714.239 548.125 714.239 548.977C714.239 550.142 714.67 551.023 715.532 551.619C716.403 552.206 717.506 552.5 718.841 552.5ZM751.508 533.182L743.44 555H740.031L731.963 533.182H735.599L741.622 550.568H741.849L747.872 533.182H751.508ZM755.933 555V533.182H759.285V555H755.933ZM757.638 529.545C756.984 529.545 756.421 529.323 755.947 528.878C755.483 528.433 755.251 527.898 755.251 527.273C755.251 526.648 755.483 526.113 755.947 525.668C756.421 525.223 756.984 525 757.638 525C758.291 525 758.85 525.223 759.314 525.668C759.787 526.113 760.024 526.648 760.024 527.273C760.024 527.898 759.787 528.433 759.314 528.878C758.85 529.323 758.291 529.545 757.638 529.545ZM774.232 563.636C772.613 563.636 771.221 563.428 770.056 563.011C768.891 562.604 767.921 562.064 767.144 561.392C766.377 560.729 765.766 560.019 765.312 559.261L767.982 557.386C768.285 557.784 768.669 558.239 769.133 558.75C769.597 559.271 770.231 559.721 771.036 560.099C771.85 560.488 772.916 560.682 774.232 560.682C775.993 560.682 777.447 560.256 778.593 559.403C779.739 558.551 780.312 557.216 780.312 555.398V550.966H780.028C779.781 551.364 779.431 551.856 778.976 552.443C778.531 553.021 777.887 553.537 777.045 553.991C776.211 554.437 775.084 554.659 773.664 554.659C771.903 554.659 770.321 554.242 768.92 553.409C767.528 552.576 766.424 551.364 765.61 549.773C764.805 548.182 764.403 546.25 764.403 543.977C764.403 541.742 764.796 539.796 765.582 538.139C766.368 536.473 767.461 535.185 768.863 534.276C770.264 533.357 771.884 532.898 773.721 532.898C775.141 532.898 776.268 533.134 777.101 533.608C777.944 534.072 778.588 534.602 779.033 535.199C779.488 535.786 779.838 536.269 780.084 536.648H780.425V533.182H783.664V555.625C783.664 557.5 783.238 559.025 782.386 560.199C781.543 561.383 780.406 562.249 778.976 562.798C777.556 563.357 775.975 563.636 774.232 563.636ZM774.118 551.648C775.463 551.648 776.6 551.34 777.528 550.724C778.456 550.109 779.161 549.223 779.644 548.068C780.127 546.913 780.368 545.53 780.368 543.92C780.368 542.348 780.132 540.961 779.658 539.759C779.185 538.556 778.484 537.614 777.556 536.932C776.628 536.25 775.482 535.909 774.118 535.909C772.698 535.909 771.514 536.269 770.567 536.989C769.63 537.708 768.924 538.674 768.451 539.886C767.987 541.098 767.755 542.443 767.755 543.92C767.755 545.436 767.992 546.776 768.465 547.94C768.948 549.096 769.658 550.005 770.596 550.668C771.543 551.321 772.717 551.648 774.118 551.648ZM796.221 555.511C794.838 555.511 793.583 555.251 792.457 554.73C791.33 554.2 790.435 553.438 789.772 552.443C789.109 551.439 788.778 550.227 788.778 548.807C788.778 547.557 789.024 546.544 789.516 545.767C790.009 544.981 790.667 544.366 791.491 543.92C792.315 543.475 793.224 543.144 794.218 542.926C795.222 542.699 796.23 542.519 797.243 542.386C798.569 542.216 799.644 542.088 800.468 542.003C801.301 541.908 801.907 541.752 802.286 541.534C802.674 541.316 802.868 540.937 802.868 540.398V540.284C802.868 538.883 802.485 537.794 801.718 537.017C800.96 536.241 799.81 535.852 798.266 535.852C796.666 535.852 795.411 536.203 794.502 536.903C793.593 537.604 792.954 538.352 792.584 539.148L789.403 538.011C789.971 536.686 790.728 535.653 791.675 534.915C792.632 534.167 793.673 533.646 794.8 533.352C795.937 533.049 797.054 532.898 798.153 532.898C798.853 532.898 799.658 532.983 800.567 533.153C801.486 533.314 802.371 533.651 803.224 534.162C804.085 534.673 804.8 535.445 805.368 536.477C805.937 537.509 806.221 538.892 806.221 540.625V555H802.868V552.045H802.698C802.471 552.519 802.092 553.026 801.562 553.565C801.031 554.105 800.326 554.564 799.445 554.943C798.565 555.322 797.49 555.511 796.221 555.511ZM796.732 552.5C798.058 552.5 799.175 552.24 800.084 551.719C801.003 551.198 801.694 550.526 802.158 549.702C802.632 548.878 802.868 548.011 802.868 547.102V544.034C802.726 544.205 802.414 544.361 801.931 544.503C801.457 544.635 800.908 544.754 800.283 544.858C799.668 544.953 799.066 545.038 798.479 545.114C797.902 545.18 797.433 545.237 797.073 545.284C796.202 545.398 795.387 545.582 794.63 545.838C793.882 546.084 793.276 546.458 792.812 546.96C792.357 547.453 792.13 548.125 792.13 548.977C792.13 550.142 792.561 551.023 793.422 551.619C794.294 552.206 795.397 552.5 796.732 552.5ZM821.828 533.182V536.023H810.521V533.182H821.828ZM813.817 527.955H817.169V548.75C817.169 549.697 817.306 550.407 817.581 550.881C817.865 551.345 818.225 551.657 818.66 551.818C819.105 551.97 819.574 552.045 820.067 552.045C820.436 552.045 820.739 552.027 820.976 551.989C821.212 551.941 821.402 551.903 821.544 551.875L822.226 554.886C821.998 554.972 821.681 555.057 821.274 555.142C820.867 555.237 820.351 555.284 819.726 555.284C818.779 555.284 817.851 555.08 816.942 554.673C816.042 554.266 815.294 553.646 814.697 552.812C814.11 551.979 813.817 550.928 813.817 549.659V527.955ZM826.871 555V533.182H830.223V555H826.871ZM828.575 529.545C827.922 529.545 827.358 529.323 826.885 528.878C826.421 528.433 826.189 527.898 826.189 527.273C826.189 526.648 826.421 526.113 826.885 525.668C827.358 525.223 827.922 525 828.575 525C829.229 525 829.787 525.223 830.251 525.668C830.725 526.113 830.962 526.648 830.962 527.273C830.962 527.898 830.725 528.433 830.251 528.878C829.787 529.323 829.229 529.545 828.575 529.545ZM845.226 555.455C843.257 555.455 841.529 554.986 840.042 554.048C838.565 553.111 837.409 551.799 836.576 550.114C835.752 548.428 835.34 546.458 835.34 544.205C835.34 541.932 835.752 539.948 836.576 538.253C837.409 536.558 838.565 535.241 840.042 534.304C841.529 533.366 843.257 532.898 845.226 532.898C847.196 532.898 848.92 533.366 850.397 534.304C851.884 535.241 853.039 536.558 853.863 538.253C854.696 539.948 855.113 541.932 855.113 544.205C855.113 546.458 854.696 548.428 853.863 550.114C853.039 551.799 851.884 553.111 850.397 554.048C848.92 554.986 847.196 555.455 845.226 555.455ZM845.226 552.443C846.723 552.443 847.954 552.06 848.92 551.293C849.886 550.526 850.6 549.517 851.065 548.267C851.529 547.017 851.761 545.663 851.761 544.205C851.761 542.746 851.529 541.387 851.065 540.128C850.6 538.868 849.886 537.85 848.92 537.074C847.954 536.297 846.723 535.909 845.226 535.909C843.73 535.909 842.499 536.297 841.533 537.074C840.567 537.85 839.852 538.868 839.388 540.128C838.924 541.387 838.692 542.746 838.692 544.205C838.692 545.663 838.924 547.017 839.388 548.267C839.852 549.517 840.567 550.526 841.533 551.293C842.499 552.06 843.73 552.443 845.226 552.443ZM863.582 541.875V555H860.23V533.182H863.469V536.591H863.753C864.264 535.483 865.041 534.593 866.082 533.92C867.124 533.239 868.469 532.898 870.116 532.898C871.594 532.898 872.886 533.201 873.994 533.807C875.102 534.403 875.964 535.312 876.579 536.534C877.195 537.746 877.503 539.28 877.503 541.136V555H874.15V541.364C874.15 539.65 873.705 538.314 872.815 537.358C871.925 536.392 870.703 535.909 869.15 535.909C868.08 535.909 867.124 536.141 866.281 536.605C865.448 537.069 864.79 537.746 864.307 538.636C863.824 539.527 863.582 540.606 863.582 541.875Z" fill="white"/>
<defs>
<clipPath id="clip0_2_144">
<rect width="101" height="100" fill="white" transform="translate(1169 262)"/>
</clipPath>
<clipPath id="clip1_2_144">
<rect width="100" height="100" fill="white" transform="translate(1302 262)"/>
</clipPath>
<clipPath id="clip2_2_144">
<rect width="100" height="100" fill="white" transform="translate(1282 823)"/>
</clipPath>
</defs>
</svg>
