<svg width="1920" height="1080" viewBox="0 0 1920 1080" fill="none" xmlns="http://www.w3.org/2000/svg">
<rect x="1477" y="80" width="357" height="920" rx="5" fill="#FACC15"/>
<path d="M1595.31 534.276C1595.2 533.13 1594.71 532.24 1593.85 531.605C1592.98 530.971 1591.82 530.653 1590.34 530.653C1589.33 530.653 1588.49 530.795 1587.8 531.08C1587.1 531.354 1586.57 531.738 1586.2 532.23C1585.84 532.723 1585.66 533.281 1585.66 533.906C1585.65 534.427 1585.75 534.882 1585.99 535.27C1586.24 535.658 1586.57 535.994 1587 536.278C1587.43 536.553 1587.92 536.795 1588.48 537.003C1589.04 537.202 1589.63 537.372 1590.27 537.514L1592.88 538.139C1594.15 538.423 1595.31 538.802 1596.38 539.276C1597.44 539.749 1598.35 540.331 1599.13 541.023C1599.91 541.714 1600.51 542.528 1600.93 543.466C1601.37 544.403 1601.59 545.478 1601.6 546.69C1601.59 548.471 1601.14 550.014 1600.24 551.321C1599.35 552.618 1598.06 553.627 1596.38 554.347C1594.7 555.057 1592.68 555.412 1590.31 555.412C1587.96 555.412 1585.92 555.052 1584.17 554.332C1582.44 553.613 1581.09 552.547 1580.11 551.136C1579.14 549.716 1578.64 547.959 1578.59 545.866H1584.54C1584.61 546.842 1584.89 547.656 1585.38 548.31C1585.88 548.954 1586.55 549.441 1587.38 549.773C1588.23 550.095 1589.18 550.256 1590.24 550.256C1591.28 550.256 1592.18 550.104 1592.95 549.801C1593.73 549.498 1594.33 549.077 1594.76 548.537C1595.18 547.997 1595.39 547.377 1595.39 546.676C1595.39 546.023 1595.2 545.473 1594.81 545.028C1594.43 544.583 1593.88 544.205 1593.14 543.892C1592.41 543.58 1591.51 543.295 1590.45 543.04L1587.28 542.244C1584.83 541.648 1582.89 540.715 1581.47 539.446C1580.05 538.177 1579.35 536.468 1579.36 534.318C1579.35 532.557 1579.82 531.018 1580.76 529.702C1581.72 528.385 1583.03 527.358 1584.7 526.619C1586.37 525.881 1588.26 525.511 1590.38 525.511C1592.54 525.511 1594.42 525.881 1596.03 526.619C1597.65 527.358 1598.91 528.385 1599.81 529.702C1600.71 531.018 1601.18 532.543 1601.2 534.276H1595.31ZM1605.74 555V525.909H1625.34V530.98H1611.89V537.912H1624.33V542.983H1611.89V549.929H1625.4V555H1605.74ZM1630.23 555V525.909H1641.71C1643.91 525.909 1645.78 526.302 1647.33 527.088C1648.9 527.865 1650.08 528.968 1650.9 530.398C1651.72 531.818 1652.13 533.49 1652.13 535.412C1652.13 537.344 1651.72 539.006 1650.88 540.398C1650.05 541.78 1648.84 542.841 1647.26 543.58C1645.69 544.318 1643.79 544.688 1641.55 544.688H1633.87V539.744H1640.56C1641.73 539.744 1642.71 539.583 1643.48 539.261C1644.26 538.939 1644.84 538.456 1645.22 537.812C1645.61 537.169 1645.8 536.368 1645.8 535.412C1645.8 534.446 1645.61 533.632 1645.22 532.969C1644.84 532.306 1644.26 531.804 1643.47 531.463C1642.69 531.113 1641.71 530.938 1640.53 530.938H1636.38V555H1630.23ZM1645.94 541.761L1653.17 555H1646.38L1639.31 541.761H1645.94ZM1660.96 525.909L1667.99 548.011H1668.26L1675.3 525.909H1682.12L1672.09 555H1664.17L1654.12 525.909H1660.96ZM1685.62 555V525.909H1705.22V530.98H1691.77V537.912H1704.22V542.983H1691.77V549.929H1705.28V555H1685.62ZM1710.11 555V525.909H1721.59C1723.79 525.909 1725.66 526.302 1727.22 527.088C1728.78 527.865 1729.97 528.968 1730.78 530.398C1731.61 531.818 1732.02 533.49 1732.02 535.412C1732.02 537.344 1731.6 539.006 1730.77 540.398C1729.93 541.78 1728.73 542.841 1727.15 543.58C1725.57 544.318 1723.67 544.688 1721.44 544.688H1713.75V539.744H1720.44C1721.62 539.744 1722.59 539.583 1723.37 539.261C1724.14 538.939 1724.72 538.456 1725.1 537.812C1725.49 537.169 1725.68 536.368 1725.68 535.412C1725.68 534.446 1725.49 533.632 1725.1 532.969C1724.72 532.306 1724.14 531.804 1723.35 531.463C1722.58 531.113 1721.6 530.938 1720.41 530.938H1716.26V555H1710.11ZM1725.82 541.761L1733.05 555H1726.26L1719.19 541.761H1725.82Z" fill="#333333"/>
<rect x="77" y="80" width="345" height="920" rx="5" fill="white"/>
<path d="M205.196 536.094H198.974C198.861 535.289 198.629 534.574 198.278 533.949C197.928 533.314 197.478 532.775 196.929 532.33C196.38 531.884 195.745 531.544 195.026 531.307C194.315 531.07 193.544 530.952 192.71 530.952C191.205 530.952 189.893 531.326 188.776 532.074C187.658 532.812 186.792 533.892 186.176 535.312C185.561 536.723 185.253 538.437 185.253 540.455C185.253 542.528 185.561 544.271 186.176 545.682C186.801 547.093 187.672 548.158 188.79 548.878C189.907 549.598 191.2 549.957 192.668 549.957C193.491 549.957 194.254 549.848 194.955 549.631C195.665 549.413 196.295 549.096 196.844 548.679C197.393 548.253 197.848 547.737 198.207 547.131C198.577 546.525 198.832 545.833 198.974 545.057L205.196 545.085C205.035 546.42 204.633 547.708 203.989 548.949C203.354 550.18 202.497 551.283 201.418 552.259C200.348 553.224 199.069 553.991 197.582 554.56C196.105 555.118 194.434 555.398 192.568 555.398C189.973 555.398 187.653 554.811 185.608 553.636C183.572 552.462 181.962 550.762 180.778 548.537C179.604 546.312 179.017 543.617 179.017 540.455C179.017 537.282 179.614 534.583 180.807 532.358C182 530.133 183.619 528.437 185.665 527.273C187.71 526.098 190.011 525.511 192.568 525.511C194.254 525.511 195.816 525.748 197.256 526.222C198.705 526.695 199.988 527.386 201.105 528.295C202.223 529.195 203.132 530.298 203.832 531.605C204.543 532.912 204.997 534.408 205.196 536.094ZM209.607 555V525.909H215.757V549.929H228.229V555H209.607ZM238.452 525.909V555H232.302V525.909H238.452ZM243.513 555V525.909H263.115V530.98H249.663V537.912H262.107V542.983H249.663V549.929H263.172V555H243.513ZM292.337 525.909V555H287.025L274.369 536.69H274.156V555H268.005V525.909H273.403L285.96 544.205H286.215V525.909H292.337ZM296.311 530.98V525.909H320.203V530.98H311.297V555H305.217V530.98H296.311Z" fill="#333333"/>
<path d="M479.828 131.909V161H477.172V131.909H479.828ZM489.566 147.364V161H487.037V139.182H489.495V142.605H489.722C490.233 141.488 491.029 140.593 492.108 139.92C493.197 139.239 494.542 138.898 496.142 138.898C497.61 138.898 498.898 139.205 500.006 139.821C501.123 140.427 501.99 141.322 502.605 142.506C503.23 143.689 503.543 145.143 503.543 146.866V161H501.015V147.023C501.015 145.233 500.513 143.817 499.509 142.776C498.515 141.734 497.179 141.213 495.503 141.213C494.357 141.213 493.339 141.459 492.449 141.952C491.559 142.444 490.854 143.154 490.333 144.082C489.821 145.001 489.566 146.095 489.566 147.364ZM510.23 161V139.182H512.772V161H510.23ZM511.522 135.432C511.002 135.432 510.556 135.257 510.187 134.906C509.818 134.546 509.633 134.116 509.633 133.614C509.633 133.112 509.818 132.686 510.187 132.335C510.556 131.975 511.002 131.795 511.522 131.795C512.043 131.795 512.488 131.975 512.858 132.335C513.227 132.686 513.412 133.112 513.412 133.614C513.412 134.116 513.227 134.546 512.858 134.906C512.488 135.257 512.043 135.432 511.522 135.432ZM528.053 139.182V141.384H517.641V139.182H528.053ZM520.894 133.955H523.436V155.304C523.436 156.213 523.593 156.928 523.905 157.449C524.218 157.96 524.625 158.325 525.127 158.543C525.629 158.751 526.164 158.855 526.732 158.855C527.063 158.855 527.347 158.836 527.584 158.798C527.821 158.751 528.029 158.704 528.209 158.656L528.749 160.943C528.503 161.038 528.2 161.123 527.84 161.199C527.48 161.284 527.035 161.327 526.505 161.327C525.577 161.327 524.682 161.123 523.82 160.716C522.968 160.309 522.267 159.703 521.718 158.898C521.168 158.093 520.894 157.094 520.894 155.901V133.955ZM533.824 161V139.182H536.366V161H533.824ZM535.116 135.432C534.595 135.432 534.15 135.257 533.781 134.906C533.412 134.546 533.227 134.116 533.227 133.614C533.227 133.112 533.412 132.686 533.781 132.335C534.15 131.975 534.595 131.795 535.116 131.795C535.637 131.795 536.082 131.975 536.451 132.335C536.821 132.686 537.005 133.112 537.005 133.614C537.005 134.116 536.821 134.546 536.451 134.906C536.082 135.257 535.637 135.432 535.116 135.432ZM549.147 161.497C547.83 161.497 546.628 161.241 545.539 160.73C544.45 160.209 543.583 159.461 542.939 158.486C542.295 157.501 541.973 156.308 541.973 154.906C541.973 153.827 542.177 152.918 542.584 152.179C542.991 151.44 543.569 150.834 544.317 150.361C545.065 149.887 545.951 149.513 546.973 149.239C547.996 148.964 549.123 148.751 550.354 148.599C551.576 148.448 552.608 148.315 553.451 148.202C554.303 148.088 554.952 147.908 555.397 147.662C555.842 147.416 556.064 147.018 556.064 146.469V145.957C556.064 144.471 555.619 143.301 554.729 142.449C553.848 141.587 552.579 141.156 550.922 141.156C549.35 141.156 548.067 141.502 547.073 142.193C546.088 142.884 545.397 143.699 544.999 144.636L542.598 143.77C543.091 142.577 543.773 141.625 544.644 140.915C545.515 140.195 546.49 139.679 547.57 139.366C548.65 139.045 549.743 138.884 550.851 138.884C551.685 138.884 552.551 138.992 553.451 139.21C554.36 139.428 555.203 139.807 555.979 140.347C556.756 140.877 557.385 141.62 557.868 142.577C558.351 143.524 558.593 144.726 558.593 146.185V161H556.064V157.548H555.908C555.605 158.192 555.155 158.817 554.559 159.423C553.962 160.029 553.214 160.527 552.314 160.915C551.415 161.303 550.359 161.497 549.147 161.497ZM549.488 159.182C550.832 159.182 551.997 158.884 552.982 158.287C553.967 157.69 554.724 156.9 555.255 155.915C555.794 154.92 556.064 153.827 556.064 152.634V149.48C555.875 149.66 555.558 149.821 555.113 149.963C554.677 150.105 554.17 150.233 553.593 150.347C553.025 150.451 552.456 150.541 551.888 150.616C551.32 150.692 550.809 150.759 550.354 150.815C549.123 150.967 548.072 151.204 547.201 151.526C546.329 151.848 545.662 152.293 545.198 152.861C544.734 153.42 544.502 154.139 544.502 155.02C544.502 156.346 544.975 157.373 545.922 158.102C546.869 158.822 548.058 159.182 549.488 159.182ZM567.847 131.909V161H565.319V131.909H567.847ZM585.787 161V139.182H588.245V142.534H588.429C588.865 141.436 589.623 140.55 590.702 139.878C591.791 139.196 593.022 138.855 594.395 138.855C594.604 138.855 594.836 138.86 595.091 138.869C595.347 138.879 595.56 138.888 595.73 138.898V141.469C595.617 141.45 595.418 141.421 595.134 141.384C594.85 141.346 594.542 141.327 594.211 141.327C593.074 141.327 592.061 141.568 591.171 142.051C590.29 142.525 589.594 143.183 589.083 144.026C588.571 144.868 588.316 145.83 588.316 146.909V161H585.787ZM608.202 161.455C606.166 161.455 604.405 160.981 602.918 160.034C601.431 159.078 600.281 157.757 599.466 156.071C598.661 154.376 598.259 152.425 598.259 150.219C598.259 148.022 598.661 146.071 599.466 144.366C600.281 142.652 601.403 141.312 602.833 140.347C604.272 139.371 605.934 138.884 607.819 138.884C609.002 138.884 610.143 139.101 611.242 139.537C612.34 139.963 613.325 140.621 614.196 141.511C615.077 142.392 615.773 143.505 616.284 144.849C616.796 146.185 617.051 147.766 617.051 149.594V150.844H600.006V148.614H614.466C614.466 147.212 614.182 145.953 613.614 144.835C613.055 143.708 612.274 142.818 611.27 142.165C610.276 141.511 609.125 141.185 607.819 141.185C606.436 141.185 605.219 141.554 604.168 142.293C603.117 143.031 602.293 144.007 601.696 145.219C601.109 146.431 600.811 147.757 600.801 149.196V150.531C600.801 152.264 601.1 153.779 601.696 155.077C602.302 156.365 603.159 157.364 604.267 158.074C605.375 158.784 606.687 159.139 608.202 159.139C609.234 159.139 610.139 158.978 610.915 158.656C611.701 158.334 612.359 157.903 612.89 157.364C613.429 156.814 613.837 156.213 614.111 155.56L616.512 156.341C616.18 157.259 615.636 158.107 614.878 158.884C614.13 159.66 613.193 160.285 612.066 160.759C610.948 161.223 609.66 161.455 608.202 161.455ZM637.41 169.182V156.952H637.183C636.889 157.615 636.473 158.296 635.933 158.997C635.393 159.688 634.678 160.271 633.788 160.744C632.898 161.218 631.795 161.455 630.478 161.455C628.698 161.455 627.131 160.981 625.777 160.034C624.432 159.087 623.381 157.766 622.623 156.071C621.875 154.376 621.501 152.402 621.501 150.148C621.501 147.903 621.875 145.938 622.623 144.253C623.381 142.558 624.437 141.241 625.791 140.304C627.145 139.357 628.722 138.884 630.521 138.884C631.856 138.884 632.959 139.12 633.831 139.594C634.711 140.067 635.417 140.65 635.947 141.341C636.477 142.023 636.889 142.69 637.183 143.344H637.481V139.182H639.953V169.182H637.41ZM630.777 159.139C632.188 159.139 633.39 158.756 634.385 157.989C635.379 157.212 636.136 156.147 636.657 154.793C637.188 153.429 637.453 151.866 637.453 150.105C637.453 148.363 637.192 146.824 636.672 145.489C636.151 144.144 635.393 143.093 634.399 142.335C633.414 141.568 632.207 141.185 630.777 141.185C629.318 141.185 628.087 141.582 627.083 142.378C626.08 143.164 625.322 144.229 624.811 145.574C624.299 146.919 624.044 148.429 624.044 150.105C624.044 151.8 624.304 153.33 624.825 154.693C625.346 156.057 626.108 157.141 627.112 157.946C628.116 158.741 629.337 159.139 630.777 159.139ZM660.471 152.662V139.182H663V161H660.471V157.378H660.272C659.761 158.495 658.951 159.428 657.843 160.176C656.735 160.915 655.381 161.284 653.781 161.284C652.389 161.284 651.153 160.981 650.074 160.375C648.994 159.759 648.146 158.86 647.531 157.676C646.915 156.492 646.608 155.039 646.608 153.315V139.182H649.136V153.159C649.136 154.864 649.638 156.237 650.642 157.278C651.645 158.311 652.933 158.827 654.505 158.827C655.49 158.827 656.437 158.59 657.346 158.116C658.255 157.643 659.003 156.952 659.591 156.043C660.178 155.124 660.471 153.997 660.471 152.662ZM678.515 161.455C676.479 161.455 674.717 160.981 673.23 160.034C671.744 159.078 670.593 157.757 669.779 156.071C668.974 154.376 668.571 152.425 668.571 150.219C668.571 148.022 668.974 146.071 669.779 144.366C670.593 142.652 671.715 141.312 673.145 140.347C674.585 139.371 676.247 138.884 678.131 138.884C679.315 138.884 680.456 139.101 681.554 139.537C682.653 139.963 683.638 140.621 684.509 141.511C685.39 142.392 686.086 143.505 686.597 144.849C687.108 146.185 687.364 147.766 687.364 149.594V150.844H670.319V148.614H684.779C684.779 147.212 684.495 145.953 683.926 144.835C683.368 143.708 682.587 142.818 681.583 142.165C680.588 141.511 679.438 141.185 678.131 141.185C676.748 141.185 675.532 141.554 674.48 142.293C673.429 143.031 672.605 144.007 672.009 145.219C671.422 146.431 671.123 147.757 671.114 149.196V150.531C671.114 152.264 671.412 153.779 672.009 155.077C672.615 156.365 673.472 157.364 674.58 158.074C675.688 158.784 676.999 159.139 678.515 159.139C679.547 159.139 680.451 158.978 681.228 158.656C682.014 158.334 682.672 157.903 683.202 157.364C683.742 156.814 684.149 156.213 684.424 155.56L686.824 156.341C686.493 157.259 685.948 158.107 685.191 158.884C684.443 159.66 683.505 160.285 682.378 160.759C681.261 161.223 679.973 161.455 678.515 161.455ZM707.595 143.969L705.279 144.622C705.052 143.969 704.73 143.377 704.314 142.847C703.897 142.316 703.352 141.895 702.68 141.582C702.017 141.27 701.193 141.114 700.208 141.114C698.731 141.114 697.519 141.464 696.572 142.165C695.625 142.866 695.152 143.77 695.152 144.878C695.152 145.815 695.474 146.578 696.118 147.165C696.771 147.742 697.775 148.202 699.129 148.543L702.424 149.352C704.252 149.797 705.62 150.503 706.529 151.469C707.448 152.435 707.907 153.647 707.907 155.105C707.907 156.336 707.566 157.43 706.885 158.386C706.203 159.343 705.251 160.096 704.029 160.645C702.817 161.185 701.411 161.455 699.811 161.455C697.68 161.455 695.923 160.976 694.541 160.02C693.158 159.054 692.273 157.662 691.885 155.844L694.314 155.247C694.626 156.545 695.237 157.525 696.146 158.188C697.065 158.85 698.272 159.182 699.768 159.182C701.444 159.182 702.784 158.808 703.788 158.06C704.792 157.302 705.294 156.355 705.294 155.219C705.294 154.338 705 153.599 704.413 153.003C703.826 152.397 702.936 151.952 701.743 151.668L698.177 150.815C696.283 150.361 694.882 149.641 693.973 148.656C693.064 147.671 692.609 146.45 692.609 144.991C692.609 143.789 692.936 142.733 693.589 141.824C694.243 140.905 695.142 140.186 696.288 139.665C697.434 139.144 698.741 138.884 700.208 138.884C702.207 138.884 703.802 139.338 704.995 140.247C706.198 141.147 707.065 142.387 707.595 143.969ZM722.037 139.182V141.384H711.625V139.182H722.037ZM714.878 133.955H717.421V155.304C717.421 156.213 717.577 156.928 717.89 157.449C718.202 157.96 718.609 158.325 719.111 158.543C719.613 158.751 720.148 158.855 720.716 158.855C721.048 158.855 721.332 158.836 721.569 158.798C721.805 158.751 722.014 158.704 722.194 158.656L722.733 160.943C722.487 161.038 722.184 161.123 721.824 161.199C721.464 161.284 721.019 161.327 720.489 161.327C719.561 161.327 718.666 161.123 717.804 160.716C716.952 160.309 716.251 159.703 715.702 158.898C715.153 158.093 714.878 157.094 714.878 155.901V133.955ZM498.428 209.455C496.543 209.455 494.876 208.976 493.428 208.02C491.988 207.063 490.861 205.742 490.047 204.057C489.232 202.362 488.825 200.406 488.825 198.19C488.825 195.955 489.232 193.991 490.047 192.295C490.861 190.591 491.988 189.265 493.428 188.318C494.876 187.362 496.543 186.884 498.428 186.884C500.312 186.884 501.974 187.362 503.413 188.318C504.853 189.275 505.98 190.6 506.794 192.295C507.618 193.991 508.03 195.955 508.03 198.19C508.03 200.406 507.623 202.362 506.808 204.057C505.994 205.742 504.862 207.063 503.413 208.02C501.974 208.976 500.312 209.455 498.428 209.455ZM498.428 207.139C499.943 207.139 501.226 206.732 502.277 205.918C503.328 205.103 504.124 204.019 504.663 202.665C505.213 201.311 505.487 199.819 505.487 198.19C505.487 196.562 505.213 195.065 504.663 193.702C504.124 192.338 503.328 191.244 502.277 190.42C501.226 189.597 499.943 189.185 498.428 189.185C496.922 189.185 495.639 189.597 494.578 190.42C493.527 191.244 492.727 192.338 492.178 193.702C491.638 195.065 491.368 196.562 491.368 198.19C491.368 199.819 491.638 201.311 492.178 202.665C492.727 204.019 493.527 205.103 494.578 205.918C495.629 206.732 496.912 207.139 498.428 207.139ZM516.109 195.364V209H513.58V187.182H516.038V190.605H516.265C516.776 189.488 517.572 188.593 518.651 187.92C519.74 187.239 521.085 186.898 522.685 186.898C524.153 186.898 525.441 187.205 526.549 187.821C527.666 188.427 528.533 189.322 529.148 190.506C529.773 191.689 530.086 193.143 530.086 194.866V209H527.558V195.023C527.558 193.233 527.056 191.817 526.052 190.776C525.058 189.734 523.722 189.213 522.046 189.213C520.9 189.213 519.882 189.459 518.992 189.952C518.102 190.444 517.397 191.154 516.876 192.082C516.364 193.001 516.109 194.095 516.109 195.364ZM553.293 209.412C551.901 209.412 550.66 209.17 549.571 208.688C548.482 208.195 547.62 207.471 546.986 206.514C546.361 205.548 546.048 204.346 546.048 202.906C546.048 201.694 546.271 200.676 546.716 199.852C547.161 199.028 547.767 198.366 548.534 197.864C549.301 197.362 550.172 196.983 551.148 196.727C552.133 196.472 553.165 196.292 554.244 196.188C555.513 196.055 556.536 195.932 557.312 195.818C558.089 195.695 558.652 195.515 559.003 195.278C559.353 195.042 559.528 194.691 559.528 194.227V194.142C559.528 193.242 559.244 192.546 558.676 192.054C558.117 191.562 557.322 191.315 556.29 191.315C555.201 191.315 554.334 191.557 553.69 192.04C553.046 192.513 552.62 193.11 552.412 193.83L546.815 193.375C547.099 192.049 547.658 190.903 548.491 189.938C549.325 188.962 550.4 188.214 551.716 187.693C553.042 187.163 554.576 186.898 556.318 186.898C557.53 186.898 558.69 187.04 559.798 187.324C560.916 187.608 561.905 188.048 562.767 188.645C563.638 189.241 564.325 190.009 564.827 190.946C565.329 191.874 565.58 192.987 565.58 194.284V209H559.841V205.974H559.67C559.32 206.656 558.851 207.258 558.264 207.778C557.677 208.29 556.972 208.692 556.148 208.986C555.324 209.27 554.372 209.412 553.293 209.412ZM555.026 205.236C555.916 205.236 556.702 205.061 557.384 204.71C558.065 204.35 558.6 203.867 558.989 203.261C559.377 202.655 559.571 201.969 559.571 201.202V198.886C559.382 199.009 559.121 199.123 558.79 199.227C558.468 199.322 558.103 199.412 557.696 199.497C557.289 199.573 556.882 199.644 556.474 199.71C556.067 199.767 555.698 199.819 555.366 199.866C554.656 199.971 554.036 200.136 553.506 200.364C552.975 200.591 552.563 200.899 552.27 201.287C551.976 201.666 551.83 202.139 551.83 202.707C551.83 203.531 552.128 204.161 552.724 204.597C553.33 205.023 554.098 205.236 555.026 205.236ZM576.325 196.386V209H570.274V187.182H576.041V191.031H576.297C576.78 189.762 577.589 188.759 578.726 188.02C579.862 187.272 581.24 186.898 582.859 186.898C584.375 186.898 585.696 187.229 586.822 187.892C587.949 188.555 588.825 189.502 589.45 190.733C590.075 191.955 590.388 193.413 590.388 195.108V209H584.337V196.188C584.346 194.852 584.005 193.811 583.314 193.062C582.623 192.305 581.671 191.926 580.459 191.926C579.644 191.926 578.925 192.101 578.3 192.452C577.684 192.802 577.201 193.313 576.851 193.986C576.51 194.649 576.335 195.449 576.325 196.386ZM598.112 217.182C597.344 217.182 596.625 217.12 595.952 216.997C595.29 216.884 594.74 216.737 594.305 216.557L595.668 212.04C596.379 212.258 597.018 212.376 597.586 212.395C598.164 212.414 598.661 212.281 599.077 211.997C599.504 211.713 599.849 211.23 600.114 210.548L600.469 209.625L592.643 187.182H599.006L603.523 203.205H603.751L608.31 187.182H614.717L606.237 211.358C605.829 212.532 605.275 213.555 604.575 214.426C603.883 215.307 603.007 215.984 601.947 216.457C600.886 216.94 599.608 217.182 598.112 217.182ZM627.071 217.182V187.182H633.037V190.847H633.307C633.572 190.259 633.955 189.663 634.457 189.057C634.969 188.441 635.632 187.93 636.446 187.523C637.27 187.106 638.293 186.898 639.514 186.898C641.105 186.898 642.573 187.314 643.918 188.148C645.262 188.972 646.337 190.217 647.142 191.884C647.947 193.541 648.349 195.619 648.349 198.119C648.349 200.553 647.956 202.608 647.17 204.284C646.394 205.951 645.333 207.215 643.989 208.077C642.653 208.929 641.157 209.355 639.5 209.355C638.326 209.355 637.327 209.161 636.503 208.773C635.688 208.384 635.021 207.897 634.5 207.31C633.979 206.713 633.581 206.112 633.307 205.506H633.122V217.182H627.071ZM632.994 198.091C632.994 199.388 633.174 200.52 633.534 201.486C633.894 202.452 634.415 203.205 635.097 203.744C635.778 204.275 636.607 204.54 637.582 204.54C638.567 204.54 639.401 204.27 640.082 203.73C640.764 203.181 641.28 202.423 641.631 201.457C641.991 200.482 642.17 199.36 642.17 198.091C642.17 196.831 641.995 195.723 641.645 194.767C641.295 193.811 640.778 193.062 640.097 192.523C639.415 191.983 638.577 191.713 637.582 191.713C636.598 191.713 635.764 191.973 635.082 192.494C634.41 193.015 633.894 193.754 633.534 194.71C633.174 195.667 632.994 196.794 632.994 198.091ZM658.605 209.412C657.213 209.412 655.973 209.17 654.884 208.688C653.795 208.195 652.933 207.471 652.298 206.514C651.673 205.548 651.361 204.346 651.361 202.906C651.361 201.694 651.583 200.676 652.028 199.852C652.473 199.028 653.08 198.366 653.847 197.864C654.614 197.362 655.485 196.983 656.46 196.727C657.445 196.472 658.477 196.292 659.557 196.188C660.826 196.055 661.848 195.932 662.625 195.818C663.402 195.695 663.965 195.515 664.315 195.278C664.666 195.042 664.841 194.691 664.841 194.227V194.142C664.841 193.242 664.557 192.546 663.989 192.054C663.43 191.562 662.634 191.315 661.602 191.315C660.513 191.315 659.647 191.557 659.003 192.04C658.359 192.513 657.933 193.11 657.724 193.83L652.128 193.375C652.412 192.049 652.971 190.903 653.804 189.938C654.637 188.962 655.712 188.214 657.028 187.693C658.354 187.163 659.888 186.898 661.631 186.898C662.843 186.898 664.003 187.04 665.111 187.324C666.228 187.608 667.218 188.048 668.08 188.645C668.951 189.241 669.637 190.009 670.139 190.946C670.641 191.874 670.892 192.987 670.892 194.284V209H665.153V205.974H664.983C664.633 206.656 664.164 207.258 663.577 207.778C662.99 208.29 662.284 208.692 661.46 208.986C660.636 209.27 659.685 209.412 658.605 209.412ZM660.338 205.236C661.228 205.236 662.014 205.061 662.696 204.71C663.378 204.35 663.913 203.867 664.301 203.261C664.689 202.655 664.884 201.969 664.884 201.202V198.886C664.694 199.009 664.434 199.123 664.102 199.227C663.78 199.322 663.416 199.412 663.009 199.497C662.601 199.573 662.194 199.644 661.787 199.71C661.38 199.767 661.01 199.819 660.679 199.866C659.969 199.971 659.348 200.136 658.818 200.364C658.288 200.591 657.876 200.899 657.582 201.287C657.289 201.666 657.142 202.139 657.142 202.707C657.142 203.531 657.44 204.161 658.037 204.597C658.643 205.023 659.41 205.236 660.338 205.236ZM685.416 217.636C683.456 217.636 681.775 217.366 680.374 216.827C678.982 216.296 677.874 215.572 677.05 214.653C676.226 213.735 675.691 212.703 675.445 211.557L681.041 210.804C681.212 211.24 681.482 211.647 681.851 212.026C682.22 212.404 682.708 212.707 683.314 212.935C683.929 213.171 684.678 213.29 685.558 213.29C686.875 213.29 687.959 212.968 688.811 212.324C689.673 211.689 690.104 210.624 690.104 209.128V205.136H689.848C689.583 205.742 689.185 206.315 688.655 206.855C688.125 207.395 687.443 207.835 686.609 208.176C685.776 208.517 684.782 208.688 683.626 208.688C681.988 208.688 680.497 208.309 679.152 207.551C677.817 206.784 676.751 205.615 675.956 204.043C675.17 202.461 674.777 200.463 674.777 198.048C674.777 195.577 675.179 193.512 675.984 191.855C676.789 190.198 677.859 188.957 679.195 188.134C680.539 187.31 682.012 186.898 683.612 186.898C684.834 186.898 685.857 187.106 686.68 187.523C687.504 187.93 688.167 188.441 688.669 189.057C689.18 189.663 689.573 190.259 689.848 190.847H690.075V187.182H696.084V209.213C696.084 211.069 695.629 212.622 694.72 213.872C693.811 215.122 692.552 216.06 690.942 216.685C689.341 217.319 687.5 217.636 685.416 217.636ZM685.544 204.142C686.519 204.142 687.343 203.901 688.016 203.418C688.697 202.925 689.218 202.224 689.578 201.315C689.947 200.397 690.132 199.298 690.132 198.02C690.132 196.741 689.952 195.634 689.592 194.696C689.232 193.749 688.712 193.015 688.03 192.494C687.348 191.973 686.519 191.713 685.544 191.713C684.55 191.713 683.712 191.983 683.03 192.523C682.348 193.053 681.832 193.792 681.482 194.739C681.131 195.686 680.956 196.779 680.956 198.02C680.956 199.279 681.131 200.368 681.482 201.287C681.841 202.196 682.357 202.902 683.03 203.403C683.712 203.896 684.55 204.142 685.544 204.142ZM710.842 209.426C708.598 209.426 706.666 208.972 705.047 208.062C703.437 207.144 702.196 205.847 701.325 204.17C700.454 202.485 700.018 200.491 700.018 198.19C700.018 195.946 700.454 193.976 701.325 192.281C702.196 190.586 703.423 189.265 705.004 188.318C706.595 187.371 708.461 186.898 710.601 186.898C712.04 186.898 713.38 187.13 714.621 187.594C715.871 188.048 716.96 188.735 717.888 189.653C718.825 190.572 719.554 191.727 720.075 193.119C720.596 194.502 720.857 196.121 720.857 197.977V199.639H702.433V195.889H715.161C715.161 195.018 714.971 194.246 714.592 193.574C714.214 192.902 713.688 192.376 713.016 191.997C712.353 191.609 711.581 191.415 710.7 191.415C709.782 191.415 708.967 191.628 708.257 192.054C707.556 192.471 707.007 193.034 706.609 193.744C706.212 194.445 706.008 195.226 705.999 196.088V199.653C705.999 200.733 706.197 201.666 706.595 202.452C707.002 203.238 707.575 203.844 708.314 204.27C709.053 204.696 709.929 204.909 710.942 204.909C711.614 204.909 712.23 204.814 712.788 204.625C713.347 204.436 713.825 204.152 714.223 203.773C714.621 203.394 714.924 202.93 715.132 202.381L720.729 202.75C720.445 204.095 719.862 205.269 718.982 206.273C718.11 207.267 716.983 208.044 715.601 208.602C714.228 209.152 712.642 209.426 710.842 209.426Z" fill="white"/>
<path d="M1381.06 171.085C1381.65 170.5 1381.65 169.55 1381.06 168.964L1371.52 159.417C1370.93 158.831 1369.98 158.831 1369.39 159.417C1368.81 160.003 1368.81 160.953 1369.39 161.538L1377.88 170.024L1369.39 178.509C1368.81 179.095 1368.81 180.045 1369.39 180.63C1369.98 181.216 1370.93 181.216 1371.51 180.631L1381.06 171.085ZM778 171.476L1380 171.525L1380 168.525L778 168.476L778 171.476Z" fill="white"/>
<path d="M471.939 286.96C471.354 287.546 471.354 288.496 471.939 289.081L481.486 298.627C482.072 299.213 483.022 299.213 483.607 298.627C484.193 298.041 484.193 297.091 483.607 296.505L475.121 288.021L483.606 279.535C484.192 278.949 484.192 277.999 483.606 277.413C483.02 276.828 482.07 276.828 481.485 277.414L471.939 286.96ZM473 289.521L1139 289.479L1139 286.479L473 286.521L473 289.521Z" fill="#FACC15"/>
<g clip-path="url(#clip0_2_234)">
<path d="M1215.19 296.333C1214.03 296.333 1213.08 297.267 1213.08 298.417V304.667H1204.67V298.417C1204.67 297.267 1203.72 296.333 1202.56 296.333C1201.4 296.333 1200.46 297.267 1200.46 298.417V315.083C1200.46 316.233 1201.4 317.167 1202.56 317.167C1203.72 317.167 1204.67 316.233 1204.67 315.083V308.833H1213.08V315.083C1213.08 316.233 1214.03 317.167 1215.19 317.167C1216.35 317.167 1217.29 316.233 1217.29 315.083V298.417C1217.29 297.267 1216.35 296.333 1215.19 296.333Z" fill="#FACC15"/>
<path d="M1232.02 296.333H1223.6C1222.44 296.333 1221.5 297.267 1221.5 298.417C1221.5 299.567 1222.44 300.5 1223.6 300.5H1225.71V315.083C1225.71 316.233 1226.65 317.167 1227.81 317.167C1228.97 317.167 1229.92 316.233 1229.92 315.083V300.5H1232.02C1233.18 300.5 1234.13 299.567 1234.13 298.417C1234.13 297.267 1233.18 296.333 1232.02 296.333Z" fill="#FACC15"/>
<path d="M1253.87 296.492C1253.08 296.163 1252.18 296.346 1251.57 296.942L1246.75 301.717L1241.93 296.942C1241.33 296.35 1240.42 296.167 1239.63 296.492C1238.85 296.813 1238.33 297.575 1238.33 298.417V315.083C1238.33 316.233 1239.28 317.167 1240.44 317.167C1241.6 317.167 1242.54 316.233 1242.54 315.083V303.446L1245.26 306.137C1246.09 306.95 1247.42 306.95 1248.24 306.137L1250.96 303.446V315.083C1250.96 316.233 1251.9 317.167 1253.06 317.167C1254.22 317.167 1255.17 316.233 1255.17 315.083V298.417C1255.17 297.575 1254.65 296.813 1253.87 296.492Z" fill="#FACC15"/>
<path d="M1269.9 313H1263.58V298.417C1263.58 297.267 1262.64 296.333 1261.48 296.333C1260.32 296.333 1259.38 297.267 1259.38 298.417V315.083C1259.38 316.233 1260.32 317.167 1261.48 317.167H1269.9C1271.06 317.167 1272 316.233 1272 315.083C1272 313.933 1271.06 313 1269.9 313Z" fill="#FACC15"/>
<path d="M1244.65 292.167C1245.81 292.167 1246.75 291.233 1246.75 290.083V240.083C1246.75 238.933 1245.81 238 1244.65 238H1198.35C1198.07 238 1197.79 238.058 1197.54 238.163C1197.46 238.196 1197.4 238.258 1197.33 238.304C1197.17 238.396 1197 238.479 1196.86 238.608L1171.61 263.608C1171.52 263.704 1171.46 263.833 1171.39 263.946C1171.31 264.058 1171.21 264.154 1171.16 264.279C1171.06 264.533 1171 264.804 1171 265.083V335.917C1171 337.067 1171.94 338 1173.1 338H1244.65C1245.81 338 1246.75 337.067 1246.75 335.917V323.417C1246.75 322.267 1245.81 321.333 1244.65 321.333C1243.48 321.333 1242.54 322.267 1242.54 323.417V333.833H1175.21V267.167H1198.35C1199.52 267.167 1200.46 266.233 1200.46 265.083V242.167H1242.54V290.083C1242.54 291.233 1243.48 292.167 1244.65 292.167ZM1196.25 263H1178.18L1196.25 245.113V263Z" fill="#FACC15"/>
</g>
<g clip-path="url(#clip1_2_234)">
<path d="M1384.34 304.423L1383.72 304.319C1380.07 303.723 1379.52 302.774 1379.52 302.261C1379.52 301.432 1381.18 300.178 1383.69 300.178C1386.16 300.178 1387.78 301.349 1387.86 302.19C1387.97 303.34 1389.02 304.215 1390.14 304.065C1391.28 303.957 1392.12 302.94 1392.01 301.794C1391.69 298.494 1388.12 296.007 1383.69 296.007C1379.02 296.007 1375.35 298.753 1375.35 302.257C1375.35 305.519 1377.94 307.594 1383.05 308.428L1383.39 306.373L1383.66 308.532C1387.12 309.103 1387.85 309.969 1387.85 310.594C1387.85 311.423 1386.19 312.678 1383.68 312.678C1381.22 312.678 1379.59 311.503 1379.51 310.661C1379.4 309.511 1378.38 308.645 1377.24 308.786C1376.1 308.895 1375.25 309.911 1375.36 311.057C1375.68 314.357 1379.25 316.844 1383.68 316.844C1388.36 316.844 1392.02 314.099 1392.02 310.594C1392.02 307.336 1389.44 305.261 1384.34 304.423Z" fill="#FACC15"/>
<path d="M1369.1 296.011C1367.95 296.011 1367.02 296.944 1367.02 298.094V310.594C1367.02 311.744 1366.08 312.677 1364.94 312.677C1363.79 312.677 1362.85 311.744 1362.85 310.594C1362.85 309.444 1361.92 308.511 1360.77 308.511C1359.62 308.511 1358.69 309.444 1358.69 310.594C1358.69 314.04 1361.49 316.844 1364.94 316.844C1368.38 316.844 1371.19 314.04 1371.19 310.594V298.094C1371.19 296.944 1370.25 296.011 1369.1 296.011Z" fill="#FACC15"/>
<path d="M1376.92 292.167C1378.07 292.167 1379 291.233 1379 290.083V240.084C1379 238.934 1378.07 238.001 1376.92 238.001H1331.08C1330.8 238.001 1330.53 238.059 1330.28 238.163C1330.16 238.213 1330.07 238.305 1329.96 238.376C1329.84 238.451 1329.71 238.509 1329.61 238.609L1304.61 263.609C1304.51 263.705 1304.46 263.834 1304.38 263.946C1304.31 264.059 1304.21 264.155 1304.16 264.28C1304.05 264.534 1304 264.805 1304 265.084V335.916C1304 337.066 1304.93 337.999 1306.08 337.999H1376.92C1378.07 337.999 1379 337.066 1379 335.916V323.416C1379 322.266 1378.07 321.333 1376.92 321.333C1375.77 321.333 1374.83 322.266 1374.83 323.416V333.832H1308.17V267.167H1331.08C1332.23 267.167 1333.17 266.234 1333.17 265.084V242.167H1374.83V290.083C1374.83 291.233 1375.77 292.167 1376.92 292.167ZM1329 263H1311.11L1329 245.113V263Z" fill="#FACC15"/>
</g>
<path d="M474.523 750V720.909H491.966V724.034H478.045V733.864H490.659V736.989H478.045V750H474.523ZM505.091 750.455C502.989 750.455 501.175 749.991 499.651 749.062C498.135 748.125 496.966 746.818 496.142 745.142C495.328 743.456 494.92 741.496 494.92 739.261C494.92 737.027 495.328 735.057 496.142 733.352C496.966 731.638 498.112 730.303 499.58 729.347C501.057 728.381 502.78 727.898 504.75 727.898C505.886 727.898 507.009 728.087 508.116 728.466C509.224 728.845 510.233 729.46 511.142 730.312C512.051 731.155 512.776 732.273 513.315 733.665C513.855 735.057 514.125 736.771 514.125 738.807V740.227H497.307V737.33H510.716C510.716 736.098 510.47 735 509.977 734.034C509.494 733.068 508.803 732.306 507.903 731.747C507.013 731.188 505.962 730.909 504.75 730.909C503.415 730.909 502.259 731.241 501.284 731.903C500.318 732.557 499.575 733.409 499.054 734.46C498.533 735.511 498.273 736.638 498.273 737.841V739.773C498.273 741.42 498.557 742.817 499.125 743.963C499.703 745.099 500.503 745.966 501.526 746.562C502.548 747.15 503.737 747.443 505.091 747.443C505.972 747.443 506.767 747.32 507.477 747.074C508.197 746.818 508.817 746.439 509.338 745.938C509.859 745.426 510.261 744.792 510.545 744.034L513.784 744.943C513.443 746.042 512.87 747.008 512.065 747.841C511.26 748.665 510.266 749.309 509.082 749.773C507.899 750.227 506.568 750.455 505.091 750.455ZM528.713 728.182V731.023H517.406V728.182H528.713ZM520.702 722.955H524.054V743.75C524.054 744.697 524.191 745.407 524.466 745.881C524.75 746.345 525.11 746.657 525.545 746.818C525.991 746.97 526.459 747.045 526.952 747.045C527.321 747.045 527.624 747.027 527.861 746.989C528.098 746.941 528.287 746.903 528.429 746.875L529.111 749.886C528.884 749.972 528.566 750.057 528.159 750.142C527.752 750.237 527.236 750.284 526.611 750.284C525.664 750.284 524.736 750.08 523.827 749.673C522.927 749.266 522.179 748.646 521.582 747.812C520.995 746.979 520.702 745.928 520.702 744.659V722.955ZM542.385 750.455C540.339 750.455 538.578 749.972 537.101 749.006C535.624 748.04 534.487 746.709 533.692 745.014C532.896 743.319 532.499 741.383 532.499 739.205C532.499 736.989 532.906 735.033 533.72 733.338C534.544 731.634 535.69 730.303 537.158 729.347C538.635 728.381 540.358 727.898 542.328 727.898C543.862 727.898 545.245 728.182 546.476 728.75C547.707 729.318 548.715 730.114 549.501 731.136C550.287 732.159 550.775 733.352 550.964 734.716H547.612C547.357 733.722 546.788 732.841 545.908 732.074C545.036 731.297 543.862 730.909 542.385 730.909C541.078 730.909 539.932 731.25 538.947 731.932C537.972 732.604 537.21 733.556 536.661 734.787C536.121 736.009 535.851 737.443 535.851 739.091C535.851 740.777 536.116 742.244 536.646 743.494C537.186 744.744 537.944 745.715 538.919 746.406C539.904 747.098 541.059 747.443 542.385 747.443C543.256 747.443 544.047 747.292 544.757 746.989C545.467 746.686 546.069 746.25 546.561 745.682C547.054 745.114 547.404 744.432 547.612 743.636H550.964C550.775 744.924 550.306 746.084 549.558 747.116C548.82 748.139 547.839 748.954 546.618 749.56C545.406 750.156 543.995 750.455 542.385 750.455ZM559.217 736.875V750H555.865V720.909H559.217V731.591H559.501C560.013 730.464 560.78 729.569 561.803 728.906C562.835 728.234 564.208 727.898 565.922 727.898C567.409 727.898 568.711 728.196 569.828 728.793C570.946 729.38 571.812 730.284 572.428 731.506C573.053 732.718 573.365 734.261 573.365 736.136V750H570.013V736.364C570.013 734.631 569.563 733.291 568.663 732.344C567.773 731.387 566.537 730.909 564.956 730.909C563.857 730.909 562.873 731.141 562.001 731.605C561.14 732.069 560.458 732.746 559.956 733.636C559.464 734.527 559.217 735.606 559.217 736.875Z" fill="white"/>
<path d="M1387.05 738.596C1387.64 738.015 1387.65 737.065 1387.07 736.475L1377.58 726.866C1377 726.277 1376.05 726.27 1375.46 726.852C1374.87 727.434 1374.87 728.384 1375.45 728.973L1383.88 737.515L1375.34 745.944C1374.75 746.526 1374.74 747.475 1375.32 748.065C1375.91 748.655 1376.85 748.661 1377.44 748.079L1387.05 738.596ZM621.99 733.971L1385.99 739.029L1386.01 736.029L622.01 730.971L621.99 733.971Z" fill="white"/>
<path d="M469.939 827.963C469.354 828.548 469.354 829.498 469.939 830.084L479.486 839.629C480.072 840.215 481.022 840.215 481.607 839.629C482.193 839.043 482.193 838.094 481.607 837.508L473.121 829.023L481.606 820.537C482.192 819.951 482.192 819.002 481.606 818.416C481.02 817.83 480.07 817.83 479.485 818.416L469.939 827.963ZM471 830.523L1230 830.477L1230 827.477L471 827.523L471 830.523Z" fill="#FACC15"/>
<g clip-path="url(#clip2_2_234)">
<path d="M1301 779V839H1306V784H1346V799V804H1366V839H1371V804V799L1351 779H1346H1301ZM1351 785.768L1364.23 799H1351V785.768ZM1306 844V859L1305.96 859.654L1305.83 860.289L1305.62 860.914L1305.33 861.5L1304.96 862.037L1304.53 862.535L1304.05 862.965L1303.5 863.326L1302.91 863.619L1302.3 863.824L1301.65 863.961L1301 864L1300.35 863.961L1299.7 863.824L1299.09 863.619L1298.5 863.326L1297.95 862.965L1297.46 862.535L1297.03 862.037L1296.67 861.5L1296.38 860.914L1296.17 860.289L1296.04 859.654L1296 859H1291L1291.04 859.918L1291.18 860.836L1291.38 861.734L1291.67 862.613L1292.04 863.453L1292.5 864.264L1293.02 865.025L1293.61 865.738L1294.26 866.393L1294.97 866.979L1295.74 867.496L1296.54 867.955L1297.39 868.326L1298.27 868.619L1299.16 868.824L1300.08 868.961L1301 869L1301.92 868.961L1302.84 868.824L1303.73 868.619L1304.61 868.326L1305.46 867.955L1306.26 867.496L1307.03 866.979L1307.74 866.393L1308.39 865.738L1308.98 865.025L1309.5 864.264L1309.95 863.453L1310.33 862.613L1310.62 861.734L1310.82 860.836L1310.96 859.918L1311 859V844H1306ZM1323.5 844C1322.51 844 1321.54 844.194 1320.63 844.571C1319.72 844.948 1318.89 845.5 1318.2 846.197C1317.5 846.893 1316.95 847.72 1316.57 848.63C1316.19 849.54 1316 850.515 1316 851.5C1316 852.485 1316.19 853.46 1316.57 854.37C1316.95 855.28 1317.5 856.107 1318.2 856.803C1318.89 857.5 1319.72 858.052 1320.63 858.429C1321.54 858.806 1322.51 859 1323.5 859H1328.5C1329.16 859 1329.8 859.263 1330.27 859.732C1330.74 860.201 1331 860.837 1331 861.5C1331 862.163 1330.74 862.799 1330.27 863.268C1329.8 863.737 1329.16 864 1328.5 864H1316V869H1328.5C1329.48 869 1330.46 868.806 1331.37 868.429C1332.28 868.052 1333.11 867.5 1333.8 866.803C1334.5 866.107 1335.05 865.28 1335.43 864.37C1335.81 863.46 1336 862.485 1336 861.5C1336 860.515 1335.81 859.54 1335.43 858.63C1335.05 857.72 1334.5 856.893 1333.8 856.197C1333.11 855.5 1332.28 854.948 1331.37 854.571C1330.46 854.194 1329.48 854 1328.5 854H1323.5C1322.84 854 1322.2 853.737 1321.73 853.268C1321.26 852.799 1321 852.163 1321 851.5C1321 850.837 1321.26 850.201 1321.73 849.732C1322.2 849.263 1322.84 849 1323.5 849H1336V844H1323.5ZM1351 844L1350.08 844.039L1349.16 844.166L1348.27 844.381L1347.39 844.674L1346.54 845.045L1345.74 845.494L1344.97 846.021L1344.26 846.607L1343.61 847.262L1343.02 847.975L1342.5 848.736L1342.04 849.537L1341.67 850.387L1341.38 851.256L1341.18 852.164L1341.04 853.082L1341 854V859L1341.04 859.918L1341.18 860.836L1341.38 861.734L1341.67 862.613L1342.04 863.453L1342.5 864.264L1343.02 865.025L1343.61 865.738L1344.26 866.393L1344.97 866.979L1345.74 867.496L1346.54 867.955L1347.39 868.326L1348.27 868.619L1349.16 868.824L1350.08 868.961L1351 869L1351.92 868.961L1352.84 868.824L1353.73 868.619L1354.61 868.326L1355.46 867.955L1356.26 867.496L1357.03 866.979L1357.74 866.393L1358.39 865.738L1358.98 865.025L1359.5 864.264L1359.95 863.453L1360.33 862.613L1360.62 861.734L1360.82 860.836L1360.96 859.918L1361 859V854L1360.96 853.082L1360.82 852.164L1360.62 851.256L1360.33 850.387L1359.95 849.537L1359.5 848.736L1358.98 847.975L1358.39 847.262L1357.74 846.607L1357.03 846.021L1356.26 845.494L1355.46 845.045L1354.61 844.674L1353.73 844.381L1352.84 844.166L1351.92 844.039L1351 844ZM1368.57 844C1368.23 843.991 1367.9 844.049 1367.59 844.17C1367.28 844.292 1367 844.475 1366.76 844.708C1366.52 844.941 1366.33 845.219 1366.2 845.527C1366.07 845.835 1366 846.166 1366 846.5V869H1371V854.01L1381.5 868.004C1381.81 868.425 1382.25 868.735 1382.75 868.892C1383.26 869.049 1383.79 869.044 1384.29 868.877C1384.79 868.711 1385.22 868.391 1385.53 867.965C1385.84 867.538 1386 867.025 1386 866.5V844H1381V858.99L1370.5 844.996C1370.28 844.695 1369.98 844.449 1369.65 844.277C1369.31 844.104 1368.94 844.01 1368.57 844ZM1351 849L1351.65 849.039L1352.3 849.166L1352.91 849.381L1353.5 849.674L1354.05 850.035L1354.53 850.465L1354.96 850.953L1355.33 851.5L1355.62 852.086L1355.83 852.701L1355.96 853.346L1356 854V859L1355.96 859.654L1355.83 860.289L1355.62 860.914L1355.33 861.5L1354.96 862.037L1354.53 862.535L1354.05 862.965L1353.5 863.326L1352.91 863.619L1352.3 863.824L1351.65 863.961L1351 864L1350.35 863.961L1349.7 863.824L1349.09 863.619L1348.5 863.326L1347.95 862.965L1347.46 862.535L1347.03 862.037L1346.67 861.5L1346.38 860.914L1346.17 860.289L1346.04 859.654L1346 859V854L1346.04 853.346L1346.17 852.701L1346.38 852.086L1346.67 851.5L1347.03 850.953L1347.46 850.465L1347.95 850.035L1348.5 849.674L1349.09 849.381L1349.7 849.166L1350.35 849.039L1351 849ZM1301 874V879H1371V874H1366H1306H1301Z" fill="#FACC15"/>
</g>
<path d="M471.17 653.193C470.724 654.204 471.183 655.385 472.193 655.83L488.664 663.09C489.675 663.535 490.856 663.077 491.301 662.066C491.747 661.056 491.288 659.875 490.278 659.43L475.637 652.977L482.09 638.336C482.535 637.325 482.077 636.144 481.066 635.699C480.056 635.253 478.875 635.712 478.43 636.722L471.17 653.193ZM472.403 440.909C531.111 459.263 575.758 475.844 605.888 491.861C620.955 499.87 632.285 507.684 639.919 515.428C647.544 523.165 651.352 530.695 651.698 538.184C652.044 545.668 648.952 553.516 641.927 561.928C634.893 570.352 624.029 579.199 609.149 588.602C579.393 607.406 533.994 628.179 472.276 652.136L473.724 655.864C535.484 631.891 581.186 611.005 611.286 591.984C626.334 582.474 637.586 573.368 644.997 564.492C652.418 555.606 656.101 546.809 655.694 537.999C655.287 529.194 650.812 520.781 642.767 512.62C634.73 504.467 623.003 496.429 607.765 488.329C577.287 472.127 532.339 455.456 473.597 437.091L472.403 440.909Z" fill="white"/>
<path d="M700.315 532.409V561.5H696.906L681.054 538.659H680.77V561.5H677.247V532.409H680.656L696.565 555.307H696.849V532.409H700.315ZM713.33 562.011C711.948 562.011 710.693 561.751 709.566 561.23C708.439 560.7 707.544 559.938 706.881 558.943C706.218 557.939 705.887 556.727 705.887 555.307C705.887 554.057 706.133 553.044 706.626 552.267C707.118 551.481 707.776 550.866 708.6 550.42C709.424 549.975 710.333 549.644 711.327 549.426C712.331 549.199 713.34 549.019 714.353 548.886C715.679 548.716 716.753 548.588 717.577 548.503C718.411 548.408 719.017 548.252 719.395 548.034C719.784 547.816 719.978 547.437 719.978 546.898V546.784C719.978 545.383 719.594 544.294 718.827 543.517C718.07 542.741 716.919 542.352 715.376 542.352C713.775 542.352 712.52 542.703 711.611 543.403C710.702 544.104 710.063 544.852 709.694 545.648L706.512 544.511C707.08 543.186 707.838 542.153 708.785 541.415C709.741 540.667 710.783 540.146 711.91 539.852C713.046 539.549 714.163 539.398 715.262 539.398C715.963 539.398 716.768 539.483 717.677 539.653C718.595 539.814 719.481 540.151 720.333 540.662C721.195 541.173 721.91 541.945 722.478 542.977C723.046 544.009 723.33 545.392 723.33 547.125V561.5H719.978V558.545H719.807C719.58 559.019 719.201 559.526 718.671 560.065C718.141 560.605 717.435 561.064 716.555 561.443C715.674 561.822 714.599 562.011 713.33 562.011ZM713.841 559C715.167 559 716.285 558.74 717.194 558.219C718.112 557.698 718.804 557.026 719.268 556.202C719.741 555.378 719.978 554.511 719.978 553.602V550.534C719.836 550.705 719.523 550.861 719.04 551.003C718.567 551.135 718.018 551.254 717.393 551.358C716.777 551.453 716.176 551.538 715.589 551.614C715.011 551.68 714.542 551.737 714.182 551.784C713.311 551.898 712.497 552.082 711.739 552.338C710.991 552.584 710.385 552.958 709.921 553.46C709.466 553.953 709.239 554.625 709.239 555.477C709.239 556.642 709.67 557.523 710.532 558.119C711.403 558.706 712.506 559 713.841 559ZM746.508 539.682L738.44 561.5H735.031L726.963 539.682H730.599L736.622 557.068H736.849L742.872 539.682H746.508ZM750.933 561.5V539.682H754.285V561.5H750.933ZM752.638 536.045C751.984 536.045 751.421 535.823 750.947 535.378C750.483 534.933 750.251 534.398 750.251 533.773C750.251 533.148 750.483 532.613 750.947 532.168C751.421 531.723 751.984 531.5 752.638 531.5C753.291 531.5 753.85 531.723 754.314 532.168C754.787 532.613 755.024 533.148 755.024 533.773C755.024 534.398 754.787 534.933 754.314 535.378C753.85 535.823 753.291 536.045 752.638 536.045ZM769.232 570.136C767.613 570.136 766.221 569.928 765.056 569.511C763.891 569.104 762.921 568.564 762.144 567.892C761.377 567.229 760.766 566.519 760.312 565.761L762.982 563.886C763.285 564.284 763.669 564.739 764.133 565.25C764.597 565.771 765.231 566.221 766.036 566.599C766.85 566.988 767.916 567.182 769.232 567.182C770.993 567.182 772.447 566.756 773.593 565.903C774.739 565.051 775.312 563.716 775.312 561.898V557.466H775.028C774.781 557.864 774.431 558.356 773.976 558.943C773.531 559.521 772.887 560.037 772.045 560.491C771.211 560.937 770.084 561.159 768.664 561.159C766.903 561.159 765.321 560.742 763.92 559.909C762.528 559.076 761.424 557.864 760.61 556.273C759.805 554.682 759.403 552.75 759.403 550.477C759.403 548.242 759.796 546.296 760.582 544.639C761.368 542.973 762.461 541.685 763.863 540.776C765.264 539.857 766.884 539.398 768.721 539.398C770.141 539.398 771.268 539.634 772.101 540.108C772.944 540.572 773.588 541.102 774.033 541.699C774.488 542.286 774.838 542.769 775.084 543.148H775.425V539.682H778.664V562.125C778.664 564 778.238 565.525 777.386 566.699C776.543 567.883 775.406 568.749 773.976 569.298C772.556 569.857 770.975 570.136 769.232 570.136ZM769.118 558.148C770.463 558.148 771.6 557.84 772.528 557.224C773.456 556.609 774.161 555.723 774.644 554.568C775.127 553.413 775.368 552.03 775.368 550.42C775.368 548.848 775.132 547.461 774.658 546.259C774.185 545.056 773.484 544.114 772.556 543.432C771.628 542.75 770.482 542.409 769.118 542.409C767.698 542.409 766.514 542.769 765.567 543.489C764.63 544.208 763.924 545.174 763.451 546.386C762.987 547.598 762.755 548.943 762.755 550.42C762.755 551.936 762.992 553.276 763.465 554.44C763.948 555.596 764.658 556.505 765.596 557.168C766.543 557.821 767.717 558.148 769.118 558.148ZM791.221 562.011C789.838 562.011 788.583 561.751 787.457 561.23C786.33 560.7 785.435 559.938 784.772 558.943C784.109 557.939 783.778 556.727 783.778 555.307C783.778 554.057 784.024 553.044 784.516 552.267C785.009 551.481 785.667 550.866 786.491 550.42C787.315 549.975 788.224 549.644 789.218 549.426C790.222 549.199 791.23 549.019 792.243 548.886C793.569 548.716 794.644 548.588 795.468 548.503C796.301 548.408 796.907 548.252 797.286 548.034C797.674 547.816 797.868 547.437 797.868 546.898V546.784C797.868 545.383 797.485 544.294 796.718 543.517C795.96 542.741 794.81 542.352 793.266 542.352C791.666 542.352 790.411 542.703 789.502 543.403C788.593 544.104 787.954 544.852 787.584 545.648L784.403 544.511C784.971 543.186 785.728 542.153 786.675 541.415C787.632 540.667 788.673 540.146 789.8 539.852C790.937 539.549 792.054 539.398 793.153 539.398C793.853 539.398 794.658 539.483 795.567 539.653C796.486 539.814 797.371 540.151 798.224 540.662C799.085 541.173 799.8 541.945 800.368 542.977C800.937 544.009 801.221 545.392 801.221 547.125V561.5H797.868V558.545H797.698C797.471 559.019 797.092 559.526 796.562 560.065C796.031 560.605 795.326 561.064 794.445 561.443C793.565 561.822 792.49 562.011 791.221 562.011ZM791.732 559C793.058 559 794.175 558.74 795.084 558.219C796.003 557.698 796.694 557.026 797.158 556.202C797.632 555.378 797.868 554.511 797.868 553.602V550.534C797.726 550.705 797.414 550.861 796.931 551.003C796.457 551.135 795.908 551.254 795.283 551.358C794.668 551.453 794.066 551.538 793.479 551.614C792.902 551.68 792.433 551.737 792.073 551.784C791.202 551.898 790.387 552.082 789.63 552.338C788.882 552.584 788.276 552.958 787.812 553.46C787.357 553.953 787.13 554.625 787.13 555.477C787.13 556.642 787.561 557.523 788.422 558.119C789.294 558.706 790.397 559 791.732 559ZM816.828 539.682V542.523H805.521V539.682H816.828ZM808.817 534.455H812.169V555.25C812.169 556.197 812.306 556.907 812.581 557.381C812.865 557.845 813.225 558.157 813.66 558.318C814.105 558.47 814.574 558.545 815.067 558.545C815.436 558.545 815.739 558.527 815.976 558.489C816.212 558.441 816.402 558.403 816.544 558.375L817.226 561.386C816.998 561.472 816.681 561.557 816.274 561.642C815.867 561.737 815.351 561.784 814.726 561.784C813.779 561.784 812.851 561.58 811.942 561.173C811.042 560.766 810.294 560.146 809.697 559.312C809.11 558.479 808.817 557.428 808.817 556.159V534.455ZM821.871 561.5V539.682H825.223V561.5H821.871ZM823.575 536.045C822.922 536.045 822.358 535.823 821.885 535.378C821.421 534.933 821.189 534.398 821.189 533.773C821.189 533.148 821.421 532.613 821.885 532.168C822.358 531.723 822.922 531.5 823.575 531.5C824.229 531.5 824.787 531.723 825.251 532.168C825.725 532.613 825.962 533.148 825.962 533.773C825.962 534.398 825.725 534.933 825.251 535.378C824.787 535.823 824.229 536.045 823.575 536.045ZM840.226 561.955C838.257 561.955 836.529 561.486 835.042 560.548C833.565 559.611 832.409 558.299 831.576 556.614C830.752 554.928 830.34 552.958 830.34 550.705C830.34 548.432 830.752 546.448 831.576 544.753C832.409 543.058 833.565 541.741 835.042 540.804C836.529 539.866 838.257 539.398 840.226 539.398C842.196 539.398 843.92 539.866 845.397 540.804C846.884 541.741 848.039 543.058 848.863 544.753C849.696 546.448 850.113 548.432 850.113 550.705C850.113 552.958 849.696 554.928 848.863 556.614C848.039 558.299 846.884 559.611 845.397 560.548C843.92 561.486 842.196 561.955 840.226 561.955ZM840.226 558.943C841.723 558.943 842.954 558.56 843.92 557.793C844.886 557.026 845.6 556.017 846.065 554.767C846.529 553.517 846.761 552.163 846.761 550.705C846.761 549.246 846.529 547.887 846.065 546.628C845.6 545.368 844.886 544.35 843.92 543.574C842.954 542.797 841.723 542.409 840.226 542.409C838.73 542.409 837.499 542.797 836.533 543.574C835.567 544.35 834.852 545.368 834.388 546.628C833.924 547.887 833.692 549.246 833.692 550.705C833.692 552.163 833.924 553.517 834.388 554.767C834.852 556.017 835.567 557.026 836.533 557.793C837.499 558.56 838.73 558.943 840.226 558.943ZM858.582 548.375V561.5H855.23V539.682H858.469V543.091H858.753C859.264 541.983 860.041 541.093 861.082 540.42C862.124 539.739 863.469 539.398 865.116 539.398C866.594 539.398 867.886 539.701 868.994 540.307C870.102 540.903 870.964 541.812 871.579 543.034C872.195 544.246 872.503 545.78 872.503 547.636V561.5H869.15V547.864C869.15 546.15 868.705 544.814 867.815 543.858C866.925 542.892 865.703 542.409 864.15 542.409C863.08 542.409 862.124 542.641 861.281 543.105C860.448 543.569 859.79 544.246 859.307 545.136C858.824 546.027 858.582 547.106 858.582 548.375Z" fill="white"/>
<defs>
<clipPath id="clip0_2_234">
<rect width="101" height="100" fill="white" transform="translate(1171 238)"/>
</clipPath>
<clipPath id="clip1_2_234">
<rect width="100" height="100" fill="white" transform="translate(1304 238)"/>
</clipPath>
<clipPath id="clip2_2_234">
<rect width="100" height="100" fill="white" transform="translate(1286 779)"/>
</clipPath>
</defs>
</svg>
