<svg width="1920" height="1080" viewBox="0 0 1920 1080" fill="none" xmlns="http://www.w3.org/2000/svg">
<rect x="1477" y="80" width="357" height="920" rx="5" fill="#60A5FA"/>
<path d="M1595.31 534.276C1595.2 533.13 1594.71 532.24 1593.85 531.605C1592.98 530.971 1591.82 530.653 1590.34 530.653C1589.33 530.653 1588.49 530.795 1587.8 531.08C1587.1 531.354 1586.57 531.738 1586.2 532.23C1585.84 532.723 1585.66 533.281 1585.66 533.906C1585.65 534.427 1585.75 534.882 1585.99 535.27C1586.24 535.658 1586.57 535.994 1587 536.278C1587.43 536.553 1587.92 536.795 1588.48 537.003C1589.04 537.202 1589.63 537.372 1590.27 537.514L1592.88 538.139C1594.15 538.423 1595.31 538.802 1596.38 539.276C1597.44 539.749 1598.35 540.331 1599.13 541.023C1599.91 541.714 1600.51 542.528 1600.93 543.466C1601.37 544.403 1601.59 545.478 1601.6 546.69C1601.59 548.471 1601.14 550.014 1600.24 551.321C1599.35 552.618 1598.06 553.627 1596.38 554.347C1594.7 555.057 1592.68 555.412 1590.31 555.412C1587.96 555.412 1585.92 555.052 1584.17 554.332C1582.44 553.613 1581.09 552.547 1580.11 551.136C1579.14 549.716 1578.64 547.959 1578.59 545.866H1584.54C1584.61 546.842 1584.89 547.656 1585.38 548.31C1585.88 548.954 1586.55 549.441 1587.38 549.773C1588.23 550.095 1589.18 550.256 1590.24 550.256C1591.28 550.256 1592.18 550.104 1592.95 549.801C1593.73 549.498 1594.33 549.077 1594.76 548.537C1595.18 547.997 1595.39 547.377 1595.39 546.676C1595.39 546.023 1595.2 545.473 1594.81 545.028C1594.43 544.583 1593.88 544.205 1593.14 543.892C1592.41 543.58 1591.51 543.295 1590.45 543.04L1587.28 542.244C1584.83 541.648 1582.89 540.715 1581.47 539.446C1580.05 538.177 1579.35 536.468 1579.36 534.318C1579.35 532.557 1579.82 531.018 1580.76 529.702C1581.72 528.385 1583.03 527.358 1584.7 526.619C1586.37 525.881 1588.26 525.511 1590.38 525.511C1592.54 525.511 1594.42 525.881 1596.03 526.619C1597.65 527.358 1598.91 528.385 1599.81 529.702C1600.71 531.018 1601.18 532.543 1601.2 534.276H1595.31ZM1605.74 555V525.909H1625.34V530.98H1611.89V537.912H1624.33V542.983H1611.89V549.929H1625.4V555H1605.74ZM1630.23 555V525.909H1641.71C1643.91 525.909 1645.78 526.302 1647.33 527.088C1648.9 527.865 1650.08 528.968 1650.9 530.398C1651.72 531.818 1652.13 533.49 1652.13 535.412C1652.13 537.344 1651.72 539.006 1650.88 540.398C1650.05 541.78 1648.84 542.841 1647.26 543.58C1645.69 544.318 1643.79 544.688 1641.55 544.688H1633.87V539.744H1640.56C1641.73 539.744 1642.71 539.583 1643.48 539.261C1644.26 538.939 1644.84 538.456 1645.22 537.812C1645.61 537.169 1645.8 536.368 1645.8 535.412C1645.8 534.446 1645.61 533.632 1645.22 532.969C1644.84 532.306 1644.26 531.804 1643.47 531.463C1642.69 531.113 1641.71 530.938 1640.53 530.938H1636.38V555H1630.23ZM1645.94 541.761L1653.17 555H1646.38L1639.31 541.761H1645.94ZM1660.96 525.909L1667.99 548.011H1668.26L1675.3 525.909H1682.12L1672.09 555H1664.17L1654.12 525.909H1660.96ZM1685.62 555V525.909H1705.22V530.98H1691.77V537.912H1704.22V542.983H1691.77V549.929H1705.28V555H1685.62ZM1710.11 555V525.909H1721.59C1723.79 525.909 1725.66 526.302 1727.22 527.088C1728.78 527.865 1729.97 528.968 1730.78 530.398C1731.61 531.818 1732.02 533.49 1732.02 535.412C1732.02 537.344 1731.6 539.006 1730.77 540.398C1729.93 541.78 1728.73 542.841 1727.15 543.58C1725.57 544.318 1723.67 544.688 1721.44 544.688H1713.75V539.744H1720.44C1721.62 539.744 1722.59 539.583 1723.37 539.261C1724.14 538.939 1724.72 538.456 1725.1 537.812C1725.49 537.169 1725.68 536.368 1725.68 535.412C1725.68 534.446 1725.49 533.632 1725.1 532.969C1724.72 532.306 1724.14 531.804 1723.35 531.463C1722.58 531.113 1721.6 530.938 1720.41 530.938H1716.26V555H1710.11ZM1725.82 541.761L1733.05 555H1726.26L1719.19 541.761H1725.82Z" fill="#333333"/>
<rect x="77" y="80" width="345" height="920" rx="5" fill="white"/>
<path d="M205.196 536.094H198.974C198.861 535.289 198.629 534.574 198.278 533.949C197.928 533.314 197.478 532.775 196.929 532.33C196.38 531.884 195.745 531.544 195.026 531.307C194.315 531.07 193.544 530.952 192.71 530.952C191.205 530.952 189.893 531.326 188.776 532.074C187.658 532.812 186.792 533.892 186.176 535.312C185.561 536.723 185.253 538.437 185.253 540.455C185.253 542.528 185.561 544.271 186.176 545.682C186.801 547.093 187.672 548.158 188.79 548.878C189.907 549.598 191.2 549.957 192.668 549.957C193.491 549.957 194.254 549.848 194.955 549.631C195.665 549.413 196.295 549.096 196.844 548.679C197.393 548.253 197.848 547.737 198.207 547.131C198.577 546.525 198.832 545.833 198.974 545.057L205.196 545.085C205.035 546.42 204.633 547.708 203.989 548.949C203.354 550.18 202.497 551.283 201.418 552.259C200.348 553.224 199.069 553.991 197.582 554.56C196.105 555.118 194.434 555.398 192.568 555.398C189.973 555.398 187.653 554.811 185.608 553.636C183.572 552.462 181.962 550.762 180.778 548.537C179.604 546.312 179.017 543.617 179.017 540.455C179.017 537.282 179.614 534.583 180.807 532.358C182 530.133 183.619 528.437 185.665 527.273C187.71 526.098 190.011 525.511 192.568 525.511C194.254 525.511 195.816 525.748 197.256 526.222C198.705 526.695 199.988 527.386 201.105 528.295C202.223 529.195 203.132 530.298 203.832 531.605C204.543 532.912 204.997 534.408 205.196 536.094ZM209.607 555V525.909H215.757V549.929H228.229V555H209.607ZM238.452 525.909V555H232.302V525.909H238.452ZM243.513 555V525.909H263.115V530.98H249.663V537.912H262.107V542.983H249.663V549.929H263.172V555H243.513ZM292.337 525.909V555H287.025L274.369 536.69H274.156V555H268.005V525.909H273.403L285.96 544.205H286.215V525.909H292.337ZM296.311 530.98V525.909H320.203V530.98H311.297V555H305.217V530.98H296.311Z" fill="#333333"/>
<path d="M499.673 197.909V227H496.264L480.412 204.159H480.127V227H476.605V197.909H480.014L495.923 220.807H496.207V197.909H499.673ZM512.688 227.511C511.305 227.511 510.051 227.251 508.924 226.73C507.797 226.2 506.902 225.438 506.239 224.443C505.576 223.439 505.245 222.227 505.245 220.807C505.245 219.557 505.491 218.544 505.983 217.767C506.476 216.981 507.134 216.366 507.958 215.92C508.782 215.475 509.691 215.144 510.685 214.926C511.689 214.699 512.697 214.519 513.711 214.386C515.036 214.216 516.111 214.088 516.935 214.003C517.768 213.908 518.374 213.752 518.753 213.534C519.141 213.316 519.336 212.937 519.336 212.398V212.284C519.336 210.883 518.952 209.794 518.185 209.017C517.427 208.241 516.277 207.852 514.733 207.852C513.133 207.852 511.878 208.203 510.969 208.903C510.06 209.604 509.421 210.352 509.051 211.148L505.87 210.011C506.438 208.686 507.195 207.653 508.142 206.915C509.099 206.167 510.141 205.646 511.267 205.352C512.404 205.049 513.521 204.898 514.62 204.898C515.32 204.898 516.125 204.983 517.034 205.153C517.953 205.314 518.838 205.651 519.691 206.162C520.552 206.673 521.267 207.445 521.836 208.477C522.404 209.509 522.688 210.892 522.688 212.625V227H519.336V224.045H519.165C518.938 224.519 518.559 225.026 518.029 225.565C517.498 226.105 516.793 226.564 515.912 226.943C515.032 227.322 513.957 227.511 512.688 227.511ZM513.199 224.5C514.525 224.5 515.642 224.24 516.551 223.719C517.47 223.198 518.161 222.526 518.625 221.702C519.099 220.878 519.336 220.011 519.336 219.102V216.034C519.194 216.205 518.881 216.361 518.398 216.503C517.925 216.635 517.375 216.754 516.75 216.858C516.135 216.953 515.533 217.038 514.946 217.114C514.369 217.18 513.9 217.237 513.54 217.284C512.669 217.398 511.855 217.582 511.097 217.838C510.349 218.084 509.743 218.458 509.279 218.96C508.824 219.453 508.597 220.125 508.597 220.977C508.597 222.142 509.028 223.023 509.89 223.619C510.761 224.206 511.864 224.5 513.199 224.5ZM545.866 205.182L537.798 227H534.389L526.321 205.182H529.957L535.98 222.568H536.207L542.23 205.182H545.866ZM550.291 227V205.182H553.643V227H550.291ZM551.995 201.545C551.342 201.545 550.779 201.323 550.305 200.878C549.841 200.433 549.609 199.898 549.609 199.273C549.609 198.648 549.841 198.113 550.305 197.668C550.779 197.223 551.342 197 551.995 197C552.649 197 553.208 197.223 553.672 197.668C554.145 198.113 554.382 198.648 554.382 199.273C554.382 199.898 554.145 200.433 553.672 200.878C553.208 201.323 552.649 201.545 551.995 201.545ZM568.59 235.636C566.971 235.636 565.578 235.428 564.414 235.011C563.249 234.604 562.278 234.064 561.502 233.392C560.735 232.729 560.124 232.019 559.669 231.261L562.34 229.386C562.643 229.784 563.026 230.239 563.49 230.75C563.954 231.271 564.589 231.721 565.394 232.099C566.208 232.488 567.274 232.682 568.59 232.682C570.351 232.682 571.805 232.256 572.951 231.403C574.096 230.551 574.669 229.216 574.669 227.398V222.966H574.385C574.139 223.364 573.789 223.856 573.334 224.443C572.889 225.021 572.245 225.537 571.402 225.991C570.569 226.437 569.442 226.659 568.022 226.659C566.26 226.659 564.679 226.242 563.277 225.409C561.885 224.576 560.782 223.364 559.968 221.773C559.163 220.182 558.76 218.25 558.76 215.977C558.76 213.742 559.153 211.796 559.939 210.139C560.725 208.473 561.819 207.185 563.221 206.276C564.622 205.357 566.241 204.898 568.078 204.898C569.499 204.898 570.626 205.134 571.459 205.608C572.302 206.072 572.946 206.602 573.391 207.199C573.846 207.786 574.196 208.269 574.442 208.648H574.783V205.182H578.022V227.625C578.022 229.5 577.596 231.025 576.743 232.199C575.9 233.383 574.764 234.249 573.334 234.798C571.914 235.357 570.332 235.636 568.59 235.636ZM568.476 223.648C569.821 223.648 570.957 223.34 571.885 222.724C572.813 222.109 573.519 221.223 574.002 220.068C574.485 218.913 574.726 217.53 574.726 215.92C574.726 214.348 574.489 212.961 574.016 211.759C573.542 210.556 572.842 209.614 571.914 208.932C570.986 208.25 569.84 207.909 568.476 207.909C567.056 207.909 565.872 208.269 564.925 208.989C563.988 209.708 563.282 210.674 562.809 211.886C562.345 213.098 562.113 214.443 562.113 215.92C562.113 217.436 562.349 218.776 562.823 219.94C563.306 221.096 564.016 222.005 564.953 222.668C565.9 223.321 567.075 223.648 568.476 223.648ZM590.578 227.511C589.196 227.511 587.941 227.251 586.814 226.73C585.687 226.2 584.792 225.438 584.13 224.443C583.467 223.439 583.135 222.227 583.135 220.807C583.135 219.557 583.382 218.544 583.874 217.767C584.366 216.981 585.025 216.366 585.848 215.92C586.672 215.475 587.581 215.144 588.576 214.926C589.579 214.699 590.588 214.519 591.601 214.386C592.927 214.216 594.002 214.088 594.826 214.003C595.659 213.908 596.265 213.752 596.644 213.534C597.032 213.316 597.226 212.937 597.226 212.398V212.284C597.226 210.883 596.843 209.794 596.076 209.017C595.318 208.241 594.167 207.852 592.624 207.852C591.024 207.852 589.769 208.203 588.86 208.903C587.951 209.604 587.311 210.352 586.942 211.148L583.76 210.011C584.328 208.686 585.086 207.653 586.033 206.915C586.989 206.167 588.031 205.646 589.158 205.352C590.294 205.049 591.412 204.898 592.51 204.898C593.211 204.898 594.016 204.983 594.925 205.153C595.844 205.314 596.729 205.651 597.581 206.162C598.443 206.673 599.158 207.445 599.726 208.477C600.294 209.509 600.578 210.892 600.578 212.625V227H597.226V224.045H597.056C596.828 224.519 596.45 225.026 595.919 225.565C595.389 226.105 594.684 226.564 593.803 226.943C592.922 227.322 591.847 227.511 590.578 227.511ZM591.09 224.5C592.416 224.5 593.533 224.24 594.442 223.719C595.361 223.198 596.052 222.526 596.516 221.702C596.989 220.878 597.226 220.011 597.226 219.102V216.034C597.084 216.205 596.772 216.361 596.289 216.503C595.815 216.635 595.266 216.754 594.641 216.858C594.025 216.953 593.424 217.038 592.837 217.114C592.259 217.18 591.791 217.237 591.431 217.284C590.56 217.398 589.745 217.582 588.988 217.838C588.239 218.084 587.633 218.458 587.169 218.96C586.715 219.453 586.488 220.125 586.488 220.977C586.488 222.142 586.918 223.023 587.78 223.619C588.651 224.206 589.755 224.5 591.09 224.5ZM616.186 205.182V208.023H604.879V205.182H616.186ZM608.174 199.955H611.527V220.75C611.527 221.697 611.664 222.407 611.939 222.881C612.223 223.345 612.583 223.657 613.018 223.818C613.463 223.97 613.932 224.045 614.424 224.045C614.794 224.045 615.097 224.027 615.333 223.989C615.57 223.941 615.76 223.903 615.902 223.875L616.583 226.886C616.356 226.972 616.039 227.057 615.632 227.142C615.225 227.237 614.708 227.284 614.083 227.284C613.136 227.284 612.208 227.08 611.299 226.673C610.4 226.266 609.652 225.646 609.055 224.812C608.468 223.979 608.174 222.928 608.174 221.659V199.955ZM621.228 227V205.182H624.581V227H621.228ZM622.933 201.545C622.279 201.545 621.716 201.323 621.243 200.878C620.779 200.433 620.547 199.898 620.547 199.273C620.547 198.648 620.779 198.113 621.243 197.668C621.716 197.223 622.279 197 622.933 197C623.586 197 624.145 197.223 624.609 197.668C625.083 198.113 625.319 198.648 625.319 199.273C625.319 199.898 625.083 200.433 624.609 200.878C624.145 201.323 623.586 201.545 622.933 201.545ZM639.584 227.455C637.614 227.455 635.886 226.986 634.4 226.048C632.922 225.111 631.767 223.799 630.934 222.114C630.11 220.428 629.698 218.458 629.698 216.205C629.698 213.932 630.11 211.948 630.934 210.253C631.767 208.558 632.922 207.241 634.4 206.304C635.886 205.366 637.614 204.898 639.584 204.898C641.554 204.898 643.277 205.366 644.755 206.304C646.241 207.241 647.397 208.558 648.221 210.253C649.054 211.948 649.471 213.932 649.471 216.205C649.471 218.458 649.054 220.428 648.221 222.114C647.397 223.799 646.241 225.111 644.755 226.048C643.277 226.986 641.554 227.455 639.584 227.455ZM639.584 224.443C641.08 224.443 642.311 224.06 643.277 223.293C644.243 222.526 644.958 221.517 645.422 220.267C645.886 219.017 646.118 217.663 646.118 216.205C646.118 214.746 645.886 213.387 645.422 212.128C644.958 210.868 644.243 209.85 643.277 209.074C642.311 208.297 641.08 207.909 639.584 207.909C638.088 207.909 636.857 208.297 635.891 209.074C634.925 209.85 634.21 210.868 633.746 212.128C633.282 213.387 633.05 214.746 633.05 216.205C633.05 217.663 633.282 219.017 633.746 220.267C634.21 221.517 634.925 222.526 635.891 223.293C636.857 224.06 638.088 224.443 639.584 224.443ZM657.94 213.875V227H654.588V205.182H657.826V208.591H658.11C658.622 207.483 659.398 206.593 660.44 205.92C661.482 205.239 662.826 204.898 664.474 204.898C665.951 204.898 667.244 205.201 668.352 205.807C669.46 206.403 670.322 207.312 670.937 208.534C671.553 209.746 671.86 211.28 671.86 213.136V227H668.508V213.364C668.508 211.65 668.063 210.314 667.173 209.358C666.283 208.392 665.061 207.909 663.508 207.909C662.438 207.909 661.482 208.141 660.639 208.605C659.806 209.069 659.147 209.746 658.664 210.636C658.181 211.527 657.94 212.606 657.94 213.875Z" fill="white"/>
<path d="M1387.06 213.068C1387.65 212.482 1387.65 211.532 1387.06 210.947L1377.51 201.4C1376.93 200.815 1375.98 200.815 1375.39 201.4C1374.81 201.986 1374.81 202.936 1375.39 203.522L1383.88 212.007L1375.39 220.492C1374.81 221.078 1374.81 222.028 1375.39 222.614C1375.98 223.199 1376.93 223.199 1377.51 222.614L1387.06 213.068ZM736 213.493L1386 213.507L1386 210.507L736 210.493L736 213.493Z" fill="white"/>
<g clip-path="url(#clip0_2_3)">
<path d="M504.822 271.864C516.633 261.18 534.309 261.017 546.283 270.77L536.792 271.129C535.567 271.178 534.619 272.191 534.668 273.416C534.717 274.609 535.697 275.54 536.874 275.54C536.906 275.54 536.923 275.54 536.955 275.54L551.527 275.001C552.72 274.952 553.651 273.988 553.651 272.795V272.632C553.651 272.599 553.651 272.583 553.651 272.55V272.534L553.112 258.125C553.063 256.9 552.034 255.953 550.825 256.002C549.599 256.051 548.652 257.064 548.701 258.289L549.044 267.323C543.114 262.471 535.812 259.661 528.003 259.269C518.332 258.779 509.037 262.095 501.865 268.597C491.998 277.533 487.816 291.125 490.953 304.063C491.198 305.076 492.096 305.745 493.093 305.745C493.272 305.745 493.436 305.729 493.615 305.68C494.792 305.386 495.527 304.193 495.233 303.017C492.488 291.647 496.147 279.706 504.822 271.864Z" fill="#60A5FA"/>
<path d="M562.048 287.939C561.754 286.763 560.561 286.028 559.385 286.322C558.209 286.616 557.473 287.808 557.768 288.984C560.528 300.354 556.853 312.296 548.178 320.138C542.085 325.643 534.439 328.355 526.827 328.355C519.557 328.355 512.304 325.888 506.456 321.02L516.061 320.154C517.27 320.04 518.169 318.978 518.054 317.752C517.94 316.527 516.878 315.645 515.653 315.759L501.13 317.066C499.921 317.181 499.023 318.243 499.137 319.468L500.444 333.991C500.542 335.134 501.506 336 502.633 336C502.698 336 502.764 336 502.829 335.984C504.038 335.869 504.936 334.807 504.822 333.582L504.038 324.744C509.968 329.547 517.237 332.341 524.997 332.733C525.618 332.765 526.239 332.782 526.843 332.782C535.844 332.782 544.405 329.482 551.135 323.405C561.002 314.469 565.184 300.894 562.048 287.939Z" fill="#60A5FA"/>
</g>
<path d="M471.761 370V355.455H476.676C477.817 355.455 478.75 355.661 479.474 356.072C480.204 356.48 480.743 357.031 481.094 357.727C481.444 358.423 481.619 359.2 481.619 360.057C481.619 360.914 481.444 361.693 481.094 362.393C480.748 363.094 480.213 363.653 479.489 364.07C478.764 364.482 477.836 364.688 476.705 364.688H473.182V363.125H476.648C477.429 363.125 478.056 362.99 478.53 362.72C479.003 362.45 479.347 362.086 479.56 361.626C479.777 361.162 479.886 360.639 479.886 360.057C479.886 359.474 479.777 358.954 479.56 358.494C479.347 358.035 479.001 357.675 478.523 357.415C478.045 357.15 477.41 357.017 476.619 357.017H473.523V370H471.761ZM487.44 370.256C486.748 370.256 486.121 370.125 485.558 369.865C484.994 369.6 484.547 369.219 484.215 368.722C483.884 368.22 483.718 367.614 483.718 366.903C483.718 366.278 483.841 365.772 484.087 365.384C484.334 364.991 484.663 364.683 485.075 364.46C485.487 364.238 485.941 364.072 486.438 363.963C486.94 363.849 487.444 363.759 487.951 363.693C488.614 363.608 489.151 363.544 489.563 363.501C489.98 363.454 490.283 363.376 490.472 363.267C490.666 363.158 490.763 362.969 490.763 362.699V362.642C490.763 361.941 490.572 361.397 490.188 361.009C489.809 360.62 489.234 360.426 488.462 360.426C487.662 360.426 487.035 360.601 486.58 360.952C486.126 361.302 485.806 361.676 485.621 362.074L484.031 361.506C484.315 360.843 484.693 360.327 485.167 359.957C485.645 359.583 486.166 359.323 486.729 359.176C487.298 359.025 487.856 358.949 488.406 358.949C488.756 358.949 489.158 358.991 489.613 359.077C490.072 359.157 490.515 359.325 490.941 359.581C491.372 359.837 491.729 360.223 492.013 360.739C492.298 361.255 492.44 361.946 492.44 362.812V370H490.763V368.523H490.678C490.565 368.759 490.375 369.013 490.11 369.283C489.845 369.553 489.492 369.782 489.052 369.972C488.612 370.161 488.074 370.256 487.44 370.256ZM487.695 368.75C488.358 368.75 488.917 368.62 489.371 368.359C489.831 368.099 490.176 367.763 490.408 367.351C490.645 366.939 490.763 366.506 490.763 366.051V364.517C490.692 364.602 490.536 364.68 490.295 364.751C490.058 364.818 489.783 364.877 489.471 364.929C489.163 364.976 488.862 365.019 488.569 365.057C488.28 365.09 488.046 365.118 487.866 365.142C487.43 365.199 487.023 365.291 486.644 365.419C486.27 365.542 485.967 365.729 485.735 365.98C485.508 366.226 485.394 366.562 485.394 366.989C485.394 367.571 485.61 368.011 486.04 368.31C486.476 368.603 487.028 368.75 487.695 368.75ZM499.902 374.318C499.093 374.318 498.397 374.214 497.814 374.006C497.232 373.802 496.747 373.532 496.358 373.196C495.975 372.865 495.669 372.509 495.442 372.131L496.777 371.193C496.929 371.392 497.121 371.619 497.353 371.875C497.585 372.135 497.902 372.36 498.304 372.55C498.712 372.744 499.244 372.841 499.902 372.841C500.783 372.841 501.51 372.628 502.083 372.202C502.656 371.776 502.942 371.108 502.942 370.199V367.983H502.8C502.677 368.182 502.502 368.428 502.275 368.722C502.052 369.01 501.73 369.268 501.309 369.496C500.892 369.718 500.328 369.83 499.618 369.83C498.738 369.83 497.947 369.621 497.246 369.205C496.55 368.788 495.998 368.182 495.591 367.386C495.189 366.591 494.988 365.625 494.988 364.489C494.988 363.371 495.184 362.398 495.577 361.57C495.97 360.736 496.517 360.092 497.218 359.638C497.918 359.179 498.728 358.949 499.647 358.949C500.357 358.949 500.92 359.067 501.337 359.304C501.758 359.536 502.08 359.801 502.303 360.099C502.53 360.393 502.705 360.634 502.828 360.824H502.999V359.091H504.618V370.312C504.618 371.25 504.405 372.012 503.979 372.599C503.558 373.191 502.989 373.625 502.275 373.899C501.564 374.179 500.774 374.318 499.902 374.318ZM499.846 368.324C500.518 368.324 501.086 368.17 501.55 367.862C502.014 367.554 502.367 367.112 502.608 366.534C502.85 365.956 502.971 365.265 502.971 364.46C502.971 363.674 502.852 362.981 502.615 362.379C502.379 361.778 502.028 361.307 501.564 360.966C501.1 360.625 500.527 360.455 499.846 360.455C499.135 360.455 498.543 360.634 498.07 360.994C497.601 361.354 497.248 361.837 497.012 362.443C496.78 363.049 496.664 363.722 496.664 364.46C496.664 365.218 496.782 365.888 497.019 366.47C497.26 367.048 497.615 367.502 498.084 367.834C498.558 368.161 499.145 368.324 499.846 368.324ZM512.26 370.227C511.209 370.227 510.302 369.995 509.54 369.531C508.783 369.062 508.198 368.409 507.786 367.571C507.379 366.728 507.175 365.748 507.175 364.631C507.175 363.513 507.379 362.528 507.786 361.676C508.198 360.819 508.771 360.152 509.505 359.673C510.243 359.19 511.105 358.949 512.09 358.949C512.658 358.949 513.219 359.044 513.773 359.233C514.327 359.422 514.831 359.73 515.286 360.156C515.74 360.578 516.103 361.136 516.373 361.832C516.642 362.528 516.777 363.385 516.777 364.403V365.114H508.368V363.665H515.073C515.073 363.049 514.95 362.5 514.703 362.017C514.462 361.534 514.116 361.153 513.667 360.874C513.221 360.594 512.696 360.455 512.09 360.455C511.422 360.455 510.845 360.62 510.357 360.952C509.874 361.278 509.502 361.705 509.242 362.23C508.981 362.756 508.851 363.319 508.851 363.92V364.886C508.851 365.71 508.993 366.409 509.277 366.982C509.566 367.55 509.966 367.983 510.478 368.281C510.989 368.575 511.583 368.722 512.26 368.722C512.701 368.722 513.098 368.66 513.453 368.537C513.813 368.409 514.123 368.22 514.384 367.969C514.644 367.713 514.846 367.396 514.988 367.017L516.607 367.472C516.436 368.021 516.15 368.504 515.748 368.92C515.345 369.332 514.848 369.654 514.256 369.886C513.664 370.114 512.999 370.227 512.26 370.227ZM524.952 370V359.091H526.571V360.739H526.685C526.884 360.199 527.244 359.761 527.765 359.425C528.285 359.089 528.873 358.92 529.526 358.92C529.649 358.92 529.803 358.923 529.988 358.928C530.172 358.932 530.312 358.939 530.407 358.949V360.653C530.35 360.639 530.22 360.618 530.016 360.589C529.817 360.556 529.606 360.54 529.384 360.54C528.854 360.54 528.38 360.651 527.963 360.874C527.551 361.091 527.225 361.394 526.983 361.783C526.747 362.166 526.628 362.604 526.628 363.097V370H524.952ZM536.635 370.227C535.584 370.227 534.677 369.995 533.915 369.531C533.158 369.062 532.573 368.409 532.161 367.571C531.754 366.728 531.55 365.748 531.55 364.631C531.55 363.513 531.754 362.528 532.161 361.676C532.573 360.819 533.146 360.152 533.88 359.673C534.618 359.19 535.48 358.949 536.465 358.949C537.033 358.949 537.594 359.044 538.148 359.233C538.702 359.422 539.206 359.73 539.661 360.156C540.115 360.578 540.478 361.136 540.748 361.832C541.017 362.528 541.152 363.385 541.152 364.403V365.114H532.743V363.665H539.448C539.448 363.049 539.325 362.5 539.078 362.017C538.837 361.534 538.491 361.153 538.042 360.874C537.596 360.594 537.071 360.455 536.465 360.455C535.797 360.455 535.22 360.62 534.732 360.952C534.249 361.278 533.877 361.705 533.617 362.23C533.356 362.756 533.226 363.319 533.226 363.92V364.886C533.226 365.71 533.368 366.409 533.652 366.982C533.941 367.55 534.341 367.983 534.853 368.281C535.364 368.575 535.958 368.722 536.635 368.722C537.076 368.722 537.473 368.66 537.828 368.537C538.188 368.409 538.498 368.22 538.759 367.969C539.019 367.713 539.221 367.396 539.363 367.017L540.982 367.472C540.811 368.021 540.525 368.504 540.123 368.92C539.72 369.332 539.223 369.654 538.631 369.886C538.039 370.114 537.374 370.227 536.635 370.227ZM545.378 355.455V370H543.702V355.455H545.378ZM552.88 370.227C551.895 370.227 551.031 369.993 550.288 369.524C549.549 369.055 548.971 368.4 548.555 367.557C548.143 366.714 547.937 365.729 547.937 364.602C547.937 363.466 548.143 362.474 548.555 361.626C548.971 360.779 549.549 360.121 550.288 359.652C551.031 359.183 551.895 358.949 552.88 358.949C553.865 358.949 554.727 359.183 555.465 359.652C556.209 360.121 556.786 360.779 557.198 361.626C557.615 362.474 557.823 363.466 557.823 364.602C557.823 365.729 557.615 366.714 557.198 367.557C556.786 368.4 556.209 369.055 555.465 369.524C554.727 369.993 553.865 370.227 552.88 370.227ZM552.88 368.722C553.628 368.722 554.244 368.53 554.727 368.146C555.21 367.763 555.567 367.259 555.799 366.634C556.031 366.009 556.147 365.331 556.147 364.602C556.147 363.873 556.031 363.194 555.799 362.564C555.567 361.934 555.21 361.425 554.727 361.037C554.244 360.649 553.628 360.455 552.88 360.455C552.132 360.455 551.516 360.649 551.033 361.037C550.55 361.425 550.193 361.934 549.961 362.564C549.729 363.194 549.613 363.873 549.613 364.602C549.613 365.331 549.729 366.009 549.961 366.634C550.193 367.259 550.55 367.763 551.033 368.146C551.516 368.53 552.132 368.722 552.88 368.722ZM563.592 370.256C562.901 370.256 562.273 370.125 561.71 369.865C561.146 369.6 560.699 369.219 560.368 368.722C560.036 368.22 559.87 367.614 559.87 366.903C559.87 366.278 559.993 365.772 560.24 365.384C560.486 364.991 560.815 364.683 561.227 364.46C561.639 364.238 562.093 364.072 562.591 363.963C563.092 363.849 563.597 363.759 564.103 363.693C564.766 363.608 565.304 363.544 565.716 363.501C566.132 363.454 566.435 363.376 566.625 363.267C566.819 363.158 566.916 362.969 566.916 362.699V362.642C566.916 361.941 566.724 361.397 566.341 361.009C565.962 360.62 565.386 360.426 564.615 360.426C563.815 360.426 563.187 360.601 562.733 360.952C562.278 361.302 561.958 361.676 561.774 362.074L560.183 361.506C560.467 360.843 560.846 360.327 561.319 359.957C561.797 359.583 562.318 359.323 562.882 359.176C563.45 359.025 564.009 358.949 564.558 358.949C564.908 358.949 565.311 358.991 565.765 359.077C566.225 359.157 566.667 359.325 567.093 359.581C567.524 359.837 567.882 360.223 568.166 360.739C568.45 361.255 568.592 361.946 568.592 362.812V370H566.916V368.523H566.831C566.717 368.759 566.528 369.013 566.262 369.283C565.997 369.553 565.645 369.782 565.204 369.972C564.764 370.161 564.226 370.256 563.592 370.256ZM563.848 368.75C564.511 368.75 565.069 368.62 565.524 368.359C565.983 368.099 566.329 367.763 566.561 367.351C566.797 366.939 566.916 366.506 566.916 366.051V364.517C566.845 364.602 566.689 364.68 566.447 364.751C566.21 364.818 565.936 364.877 565.623 364.929C565.315 364.976 565.015 365.019 564.721 365.057C564.432 365.09 564.198 365.118 564.018 365.142C563.583 365.199 563.175 365.291 562.797 365.419C562.422 365.542 562.119 365.729 561.887 365.98C561.66 366.226 561.547 366.562 561.547 366.989C561.547 367.571 561.762 368.011 562.193 368.31C562.628 368.603 563.18 368.75 563.848 368.75ZM575.771 370.227C574.862 370.227 574.059 369.998 573.363 369.538C572.667 369.074 572.122 368.421 571.729 367.578C571.336 366.731 571.14 365.729 571.14 364.574C571.14 363.428 571.336 362.434 571.729 361.591C572.122 360.748 572.669 360.097 573.37 359.638C574.071 359.179 574.88 358.949 575.799 358.949C576.509 358.949 577.07 359.067 577.482 359.304C577.899 359.536 578.216 359.801 578.434 360.099C578.656 360.393 578.829 360.634 578.952 360.824H579.094V355.455H580.771V370H579.151V368.324H578.952C578.829 368.523 578.654 368.774 578.427 369.077C578.2 369.375 577.875 369.643 577.454 369.879C577.032 370.111 576.471 370.227 575.771 370.227ZM575.998 368.722C576.67 368.722 577.238 368.546 577.702 368.196C578.166 367.841 578.519 367.351 578.761 366.726C579.002 366.096 579.123 365.369 579.123 364.545C579.123 363.731 579.004 363.018 578.768 362.408C578.531 361.792 578.181 361.314 577.717 360.973C577.253 360.627 576.68 360.455 575.998 360.455C575.288 360.455 574.696 360.637 574.222 361.001C573.754 361.361 573.401 361.851 573.164 362.472C572.932 363.087 572.816 363.778 572.816 364.545C572.816 365.322 572.934 366.027 573.171 366.662C573.413 367.292 573.768 367.794 574.237 368.168C574.71 368.537 575.297 368.722 575.998 368.722Z" fill="#60A5FA"/>
<path d="M612.945 312.558C612.356 313.141 612.351 314.09 612.933 314.68L622.425 324.28C623.007 324.869 623.957 324.874 624.546 324.292C625.135 323.71 625.14 322.76 624.558 322.171L616.121 313.637L624.655 305.2C625.244 304.618 625.249 303.668 624.667 303.079C624.085 302.49 623.135 302.485 622.546 303.067L612.945 312.558ZM613.991 315.125L1270.99 318.875L1271.01 315.875L614.009 312.125L613.991 315.125Z" fill="#60A5FA"/>
<g clip-path="url(#clip1_2_3)">
<path d="M1346.19 323.833C1345.03 323.833 1344.08 324.767 1344.08 325.917V332.167H1335.67V325.917C1335.67 324.767 1334.72 323.833 1333.56 323.833C1332.4 323.833 1331.46 324.767 1331.46 325.917V342.583C1331.46 343.733 1332.4 344.667 1333.56 344.667C1334.72 344.667 1335.67 343.733 1335.67 342.583V336.333H1344.08V342.583C1344.08 343.733 1345.03 344.667 1346.19 344.667C1347.35 344.667 1348.29 343.733 1348.29 342.583V325.917C1348.29 324.767 1347.35 323.833 1346.19 323.833Z" fill="#60A5FA"/>
<path d="M1363.02 323.833H1354.6C1353.44 323.833 1352.5 324.767 1352.5 325.917C1352.5 327.067 1353.44 328 1354.6 328H1356.71V342.583C1356.71 343.733 1357.65 344.667 1358.81 344.667C1359.97 344.667 1360.92 343.733 1360.92 342.583V328H1363.02C1364.18 328 1365.13 327.067 1365.13 325.917C1365.13 324.767 1364.18 323.833 1363.02 323.833Z" fill="#60A5FA"/>
<path d="M1384.87 323.992C1384.08 323.663 1383.18 323.846 1382.57 324.442L1377.75 329.217L1372.93 324.442C1372.33 323.85 1371.42 323.667 1370.63 323.992C1369.85 324.313 1369.33 325.075 1369.33 325.917V342.583C1369.33 343.733 1370.28 344.667 1371.44 344.667C1372.6 344.667 1373.54 343.733 1373.54 342.583V330.946L1376.26 333.637C1377.09 334.45 1378.42 334.45 1379.24 333.637L1381.96 330.946V342.583C1381.96 343.733 1382.9 344.667 1384.06 344.667C1385.22 344.667 1386.17 343.733 1386.17 342.583V325.917C1386.17 325.075 1385.65 324.313 1384.87 323.992Z" fill="#60A5FA"/>
<path d="M1400.9 340.5H1394.58V325.917C1394.58 324.767 1393.64 323.833 1392.48 323.833C1391.32 323.833 1390.38 324.767 1390.38 325.917V342.583C1390.38 343.733 1391.32 344.667 1392.48 344.667H1400.9C1402.06 344.667 1403 343.733 1403 342.583C1403 341.433 1402.06 340.5 1400.9 340.5Z" fill="#60A5FA"/>
<path d="M1375.65 319.667C1376.81 319.667 1377.75 318.733 1377.75 317.583V267.583C1377.75 266.433 1376.81 265.5 1375.65 265.5H1329.35C1329.07 265.5 1328.79 265.558 1328.54 265.663C1328.46 265.696 1328.4 265.758 1328.33 265.804C1328.17 265.896 1328 265.979 1327.86 266.108L1302.61 291.108C1302.52 291.204 1302.46 291.333 1302.39 291.446C1302.31 291.558 1302.21 291.654 1302.16 291.779C1302.06 292.033 1302 292.304 1302 292.583V363.417C1302 364.567 1302.94 365.5 1304.1 365.5H1375.65C1376.81 365.5 1377.75 364.567 1377.75 363.417V350.917C1377.75 349.767 1376.81 348.833 1375.65 348.833C1374.48 348.833 1373.54 349.767 1373.54 350.917V361.333H1306.21V294.667H1329.35C1330.52 294.667 1331.46 293.733 1331.46 292.583V269.667H1373.54V317.583C1373.54 318.733 1374.48 319.667 1375.65 319.667ZM1327.25 290.5H1309.18L1327.25 272.613V290.5Z" fill="#60A5FA"/>
</g>
<path d="M458.523 716V686.909H475.966V690.034H462.045V699.864H474.659V702.989H462.045V716H458.523ZM488.807 716.455C486.837 716.455 485.109 715.986 483.622 715.048C482.145 714.111 480.99 712.799 480.156 711.114C479.332 709.428 478.92 707.458 478.92 705.205C478.92 702.932 479.332 700.948 480.156 699.253C480.99 697.558 482.145 696.241 483.622 695.304C485.109 694.366 486.837 693.898 488.807 693.898C490.777 693.898 492.5 694.366 493.977 695.304C495.464 696.241 496.619 697.558 497.443 699.253C498.277 700.948 498.693 702.932 498.693 705.205C498.693 707.458 498.277 709.428 497.443 711.114C496.619 712.799 495.464 714.111 493.977 715.048C492.5 715.986 490.777 716.455 488.807 716.455ZM488.807 713.443C490.303 713.443 491.534 713.06 492.5 712.293C493.466 711.526 494.181 710.517 494.645 709.267C495.109 708.017 495.341 706.663 495.341 705.205C495.341 703.746 495.109 702.387 494.645 701.128C494.181 699.868 493.466 698.85 492.5 698.074C491.534 697.297 490.303 696.909 488.807 696.909C487.311 696.909 486.08 697.297 485.114 698.074C484.148 698.85 483.433 699.868 482.969 701.128C482.505 702.387 482.273 703.746 482.273 705.205C482.273 706.663 482.505 708.017 482.969 709.267C483.433 710.517 484.148 711.526 485.114 712.293C486.08 713.06 487.311 713.443 488.807 713.443ZM503.81 716V694.182H507.049V697.477H507.276C507.674 696.398 508.394 695.522 509.435 694.849C510.477 694.177 511.651 693.841 512.958 693.841C513.204 693.841 513.512 693.846 513.881 693.855C514.251 693.865 514.53 693.879 514.719 693.898V697.307C514.606 697.278 514.345 697.236 513.938 697.179C513.54 697.113 513.119 697.08 512.674 697.08C511.613 697.08 510.666 697.302 509.833 697.747C509.009 698.183 508.356 698.789 507.873 699.565C507.399 700.332 507.163 701.208 507.163 702.193V716H503.81ZM518.693 716V694.182H521.932V697.591H522.216C522.67 696.426 523.404 695.522 524.418 694.878C525.431 694.224 526.648 693.898 528.068 693.898C529.508 693.898 530.705 694.224 531.662 694.878C532.628 695.522 533.381 696.426 533.92 697.591H534.148C534.706 696.464 535.545 695.569 536.662 694.906C537.779 694.234 539.119 693.898 540.682 693.898C542.633 693.898 544.228 694.509 545.469 695.73C546.709 696.942 547.33 698.831 547.33 701.398V716H543.977V701.398C543.977 699.788 543.537 698.637 542.656 697.946C541.776 697.255 540.739 696.909 539.545 696.909C538.011 696.909 536.823 697.373 535.98 698.301C535.137 699.22 534.716 700.384 534.716 701.795V716H531.307V701.057C531.307 699.816 530.904 698.817 530.099 698.06C529.295 697.293 528.258 696.909 526.989 696.909C526.117 696.909 525.303 697.141 524.545 697.605C523.797 698.069 523.191 698.713 522.727 699.537C522.273 700.351 522.045 701.294 522.045 702.364V716H518.693ZM565.163 716V686.909H574.993C577.275 686.909 579.141 687.321 580.589 688.145C582.048 688.959 583.127 690.062 583.828 691.455C584.529 692.847 584.879 694.4 584.879 696.114C584.879 697.828 584.529 699.385 583.828 700.787C583.137 702.188 582.067 703.306 580.618 704.139C579.169 704.963 577.313 705.375 575.05 705.375H568.004V702.25H574.936C576.499 702.25 577.753 701.98 578.7 701.44C579.647 700.901 580.334 700.171 580.76 699.253C581.196 698.325 581.413 697.278 581.413 696.114C581.413 694.949 581.196 693.907 580.76 692.989C580.334 692.07 579.643 691.35 578.686 690.83C577.73 690.299 576.461 690.034 574.879 690.034H568.686V716H565.163ZM615.099 701.455C615.099 704.523 614.545 707.174 613.438 709.409C612.33 711.644 610.81 713.367 608.878 714.58C606.946 715.792 604.74 716.398 602.259 716.398C599.777 716.398 597.571 715.792 595.639 714.58C593.707 713.367 592.188 711.644 591.08 709.409C589.972 707.174 589.418 704.523 589.418 701.455C589.418 698.386 589.972 695.735 591.08 693.5C592.188 691.265 593.707 689.542 595.639 688.33C597.571 687.117 599.777 686.511 602.259 686.511C604.74 686.511 606.946 687.117 608.878 688.33C610.81 689.542 612.33 691.265 613.438 693.5C614.545 695.735 615.099 698.386 615.099 701.455ZM611.69 701.455C611.69 698.936 611.269 696.81 610.426 695.077C609.593 693.344 608.461 692.032 607.031 691.142C605.611 690.252 604.02 689.807 602.259 689.807C600.497 689.807 598.902 690.252 597.472 691.142C596.051 692.032 594.92 693.344 594.077 695.077C593.243 696.81 592.827 698.936 592.827 701.455C592.827 703.973 593.243 706.099 594.077 707.832C594.92 709.565 596.051 710.877 597.472 711.767C598.902 712.657 600.497 713.102 602.259 713.102C604.02 713.102 605.611 712.657 607.031 711.767C608.461 710.877 609.593 709.565 610.426 707.832C611.269 706.099 611.69 703.973 611.69 701.455ZM636.932 694.182C636.761 692.742 636.07 691.625 634.858 690.83C633.646 690.034 632.159 689.636 630.398 689.636C629.11 689.636 627.983 689.845 627.017 690.261C626.061 690.678 625.313 691.251 624.773 691.98C624.242 692.709 623.977 693.538 623.977 694.466C623.977 695.242 624.162 695.91 624.531 696.469C624.91 697.018 625.393 697.477 625.98 697.847C626.567 698.206 627.183 698.505 627.827 698.741C628.471 698.969 629.062 699.153 629.602 699.295L632.557 700.091C633.314 700.29 634.157 700.564 635.085 700.915C636.023 701.265 636.918 701.743 637.77 702.349C638.632 702.946 639.342 703.713 639.901 704.651C640.459 705.588 640.739 706.739 640.739 708.102C640.739 709.674 640.327 711.095 639.503 712.364C638.688 713.633 637.495 714.641 635.923 715.389C634.361 716.137 632.462 716.511 630.227 716.511C628.144 716.511 626.34 716.175 624.815 715.503C623.3 714.83 622.107 713.893 621.236 712.69C620.374 711.488 619.886 710.091 619.773 708.5H623.409C623.504 709.598 623.873 710.508 624.517 711.227C625.17 711.937 625.994 712.468 626.989 712.818C627.992 713.159 629.072 713.33 630.227 713.33C631.572 713.33 632.779 713.112 633.849 712.676C634.92 712.231 635.767 711.616 636.392 710.83C637.017 710.034 637.33 709.106 637.33 708.045C637.33 707.08 637.06 706.294 636.52 705.688C635.98 705.081 635.27 704.589 634.389 704.21C633.509 703.831 632.557 703.5 631.534 703.216L627.955 702.193C625.682 701.54 623.883 700.607 622.557 699.395C621.231 698.183 620.568 696.597 620.568 694.636C620.568 693.008 621.009 691.587 621.889 690.375C622.779 689.153 623.973 688.206 625.469 687.534C626.974 686.852 628.655 686.511 630.511 686.511C632.386 686.511 634.053 686.848 635.511 687.52C636.97 688.183 638.125 689.092 638.977 690.247C639.839 691.402 640.294 692.714 640.341 694.182H636.932ZM644.94 690.034V686.909H666.758V690.034H657.61V716H654.087V690.034H644.94Z" fill="white"/>
<path d="M1371.05 704.597C1371.64 704.016 1371.65 703.066 1371.07 702.476L1361.6 692.857C1361.01 692.267 1360.06 692.26 1359.47 692.841C1358.88 693.422 1358.88 694.372 1359.46 694.962L1367.88 703.512L1359.33 711.932C1358.74 712.514 1358.73 713.463 1359.31 714.054C1359.89 714.644 1360.84 714.651 1361.43 714.07L1371.05 704.597ZM709.989 699.971L1369.99 705.029L1370.01 702.029L710.011 696.971L709.989 699.971Z" fill="white"/>
<g clip-path="url(#clip2_2_3)">
<path d="M489.822 760.864C501.633 750.18 519.309 750.017 531.283 759.77L521.792 760.129C520.567 760.178 519.619 761.191 519.668 762.416C519.717 763.609 520.697 764.54 521.874 764.54C521.906 764.54 521.923 764.54 521.955 764.54L536.527 764.001C537.72 763.952 538.651 762.988 538.651 761.795V761.632C538.651 761.599 538.651 761.583 538.651 761.55V761.534L538.112 747.126C538.063 745.9 537.034 744.953 535.825 745.002C534.599 745.051 533.652 746.064 533.701 747.289L534.044 756.323C528.114 751.471 520.812 748.661 513.003 748.269C503.332 747.779 494.037 751.095 486.865 757.597C476.998 766.533 472.816 780.125 475.953 793.063C476.198 794.076 477.096 794.745 478.093 794.745C478.272 794.745 478.436 794.729 478.615 794.68C479.792 794.386 480.527 793.194 480.233 792.017C477.488 780.647 481.147 768.706 489.822 760.864Z" fill="#60A5FA"/>
<path d="M547.048 776.939C546.754 775.763 545.561 775.028 544.385 775.322C543.209 775.616 542.473 776.808 542.768 777.985C545.528 789.355 541.853 801.296 533.178 809.138C527.085 814.643 519.439 817.355 511.827 817.355C504.557 817.355 497.304 814.888 491.456 810.02L501.061 809.154C502.27 809.04 503.169 807.978 503.054 806.753C502.94 805.527 501.878 804.645 500.653 804.76L486.13 806.066C484.921 806.181 484.023 807.243 484.137 808.468L485.444 822.991C485.542 824.134 486.506 825 487.633 825C487.698 825 487.764 825 487.829 824.984C489.038 824.869 489.936 823.807 489.822 822.582L489.038 813.744C494.968 818.547 502.237 821.341 509.997 821.733C510.618 821.765 511.239 821.782 511.843 821.782C520.844 821.782 529.405 818.482 536.135 812.405C546.002 803.469 550.184 789.894 547.048 776.939Z" fill="#60A5FA"/>
</g>
<path d="M456.761 859V844.455H461.676C462.817 844.455 463.75 844.661 464.474 845.072C465.204 845.48 465.743 846.031 466.094 846.727C466.444 847.423 466.619 848.2 466.619 849.057C466.619 849.914 466.444 850.693 466.094 851.393C465.748 852.094 465.213 852.653 464.489 853.07C463.764 853.482 462.836 853.688 461.705 853.688H458.182V852.125H461.648C462.429 852.125 463.056 851.99 463.53 851.72C464.003 851.45 464.347 851.086 464.56 850.626C464.777 850.162 464.886 849.639 464.886 849.057C464.886 848.474 464.777 847.954 464.56 847.494C464.347 847.035 464.001 846.675 463.523 846.415C463.045 846.15 462.41 846.017 461.619 846.017H458.523V859H456.761ZM472.44 859.256C471.748 859.256 471.121 859.125 470.558 858.865C469.994 858.6 469.547 858.219 469.215 857.722C468.884 857.22 468.718 856.614 468.718 855.903C468.718 855.278 468.841 854.772 469.087 854.384C469.334 853.991 469.663 853.683 470.075 853.46C470.487 853.238 470.941 853.072 471.438 852.963C471.94 852.849 472.444 852.759 472.951 852.693C473.614 852.608 474.151 852.544 474.563 852.501C474.98 852.454 475.283 852.376 475.472 852.267C475.666 852.158 475.763 851.969 475.763 851.699V851.642C475.763 850.941 475.572 850.397 475.188 850.009C474.809 849.62 474.234 849.426 473.462 849.426C472.662 849.426 472.035 849.601 471.58 849.952C471.126 850.302 470.806 850.676 470.621 851.074L469.031 850.506C469.315 849.843 469.693 849.327 470.167 848.957C470.645 848.583 471.166 848.323 471.729 848.176C472.298 848.025 472.856 847.949 473.406 847.949C473.756 847.949 474.158 847.991 474.613 848.077C475.072 848.157 475.515 848.325 475.941 848.581C476.372 848.837 476.729 849.223 477.013 849.739C477.298 850.255 477.44 850.946 477.44 851.812V859H475.763V857.523H475.678C475.565 857.759 475.375 858.013 475.11 858.283C474.845 858.553 474.492 858.782 474.052 858.972C473.612 859.161 473.074 859.256 472.44 859.256ZM472.695 857.75C473.358 857.75 473.917 857.62 474.371 857.359C474.831 857.099 475.176 856.763 475.408 856.351C475.645 855.939 475.763 855.506 475.763 855.051V853.517C475.692 853.602 475.536 853.68 475.295 853.751C475.058 853.818 474.783 853.877 474.471 853.929C474.163 853.976 473.862 854.019 473.569 854.057C473.28 854.09 473.046 854.118 472.866 854.142C472.43 854.199 472.023 854.291 471.644 854.419C471.27 854.542 470.967 854.729 470.735 854.98C470.508 855.226 470.394 855.562 470.394 855.989C470.394 856.571 470.61 857.011 471.04 857.31C471.476 857.603 472.028 857.75 472.695 857.75ZM484.902 863.318C484.093 863.318 483.397 863.214 482.814 863.006C482.232 862.802 481.747 862.532 481.358 862.196C480.975 861.865 480.669 861.509 480.442 861.131L481.777 860.193C481.929 860.392 482.121 860.619 482.353 860.875C482.585 861.135 482.902 861.36 483.304 861.55C483.712 861.744 484.244 861.841 484.902 861.841C485.783 861.841 486.51 861.628 487.083 861.202C487.656 860.776 487.942 860.108 487.942 859.199V856.983H487.8C487.677 857.182 487.502 857.428 487.275 857.722C487.052 858.01 486.73 858.268 486.309 858.496C485.892 858.718 485.328 858.83 484.618 858.83C483.738 858.83 482.947 858.621 482.246 858.205C481.55 857.788 480.998 857.182 480.591 856.386C480.189 855.591 479.988 854.625 479.988 853.489C479.988 852.371 480.184 851.398 480.577 850.57C480.97 849.736 481.517 849.092 482.218 848.638C482.918 848.179 483.728 847.949 484.647 847.949C485.357 847.949 485.92 848.067 486.337 848.304C486.758 848.536 487.08 848.801 487.303 849.099C487.53 849.393 487.705 849.634 487.828 849.824H487.999V848.091H489.618V859.312C489.618 860.25 489.405 861.012 488.979 861.599C488.558 862.191 487.989 862.625 487.275 862.899C486.564 863.179 485.774 863.318 484.902 863.318ZM484.846 857.324C485.518 857.324 486.086 857.17 486.55 856.862C487.014 856.554 487.367 856.112 487.608 855.534C487.85 854.956 487.971 854.265 487.971 853.46C487.971 852.674 487.852 851.981 487.615 851.379C487.379 850.778 487.028 850.307 486.564 849.966C486.1 849.625 485.527 849.455 484.846 849.455C484.135 849.455 483.543 849.634 483.07 849.994C482.601 850.354 482.248 850.837 482.012 851.443C481.78 852.049 481.664 852.722 481.664 853.46C481.664 854.218 481.782 854.888 482.019 855.47C482.26 856.048 482.615 856.502 483.084 856.834C483.558 857.161 484.145 857.324 484.846 857.324ZM497.26 859.227C496.209 859.227 495.302 858.995 494.54 858.531C493.783 858.062 493.198 857.409 492.786 856.571C492.379 855.728 492.175 854.748 492.175 853.631C492.175 852.513 492.379 851.528 492.786 850.676C493.198 849.819 493.771 849.152 494.505 848.673C495.243 848.19 496.105 847.949 497.09 847.949C497.658 847.949 498.219 848.044 498.773 848.233C499.327 848.422 499.831 848.73 500.286 849.156C500.74 849.578 501.103 850.136 501.373 850.832C501.642 851.528 501.777 852.385 501.777 853.403V854.114H493.368V852.665H500.073C500.073 852.049 499.95 851.5 499.703 851.017C499.462 850.534 499.116 850.153 498.667 849.874C498.221 849.594 497.696 849.455 497.09 849.455C496.422 849.455 495.845 849.62 495.357 849.952C494.874 850.278 494.502 850.705 494.242 851.23C493.981 851.756 493.851 852.319 493.851 852.92V853.886C493.851 854.71 493.993 855.409 494.277 855.982C494.566 856.55 494.966 856.983 495.478 857.281C495.989 857.575 496.583 857.722 497.26 857.722C497.701 857.722 498.098 857.66 498.453 857.537C498.813 857.409 499.123 857.22 499.384 856.969C499.644 856.713 499.846 856.396 499.988 856.017L501.607 856.472C501.436 857.021 501.15 857.504 500.748 857.92C500.345 858.332 499.848 858.654 499.256 858.886C498.664 859.114 497.999 859.227 497.26 859.227ZM509.952 859V848.091H511.571V849.739H511.685C511.884 849.199 512.244 848.761 512.765 848.425C513.285 848.089 513.873 847.92 514.526 847.92C514.649 847.92 514.803 847.923 514.988 847.928C515.172 847.932 515.312 847.939 515.407 847.949V849.653C515.35 849.639 515.22 849.618 515.016 849.589C514.817 849.556 514.606 849.54 514.384 849.54C513.854 849.54 513.38 849.651 512.963 849.874C512.551 850.091 512.225 850.394 511.983 850.783C511.747 851.166 511.628 851.604 511.628 852.097V859H509.952ZM521.635 859.227C520.584 859.227 519.677 858.995 518.915 858.531C518.158 858.062 517.573 857.409 517.161 856.571C516.754 855.728 516.55 854.748 516.55 853.631C516.55 852.513 516.754 851.528 517.161 850.676C517.573 849.819 518.146 849.152 518.88 848.673C519.618 848.19 520.48 847.949 521.465 847.949C522.033 847.949 522.594 848.044 523.148 848.233C523.702 848.422 524.206 848.73 524.661 849.156C525.115 849.578 525.478 850.136 525.748 850.832C526.017 851.528 526.152 852.385 526.152 853.403V854.114H517.743V852.665H524.448C524.448 852.049 524.325 851.5 524.078 851.017C523.837 850.534 523.491 850.153 523.042 849.874C522.596 849.594 522.071 849.455 521.465 849.455C520.797 849.455 520.22 849.62 519.732 849.952C519.249 850.278 518.877 850.705 518.617 851.23C518.356 851.756 518.226 852.319 518.226 852.92V853.886C518.226 854.71 518.368 855.409 518.652 855.982C518.941 856.55 519.341 856.983 519.853 857.281C520.364 857.575 520.958 857.722 521.635 857.722C522.076 857.722 522.473 857.66 522.828 857.537C523.188 857.409 523.498 857.22 523.759 856.969C524.019 856.713 524.221 856.396 524.363 856.017L525.982 856.472C525.811 857.021 525.525 857.504 525.123 857.92C524.72 858.332 524.223 858.654 523.631 858.886C523.039 859.114 522.374 859.227 521.635 859.227ZM530.378 844.455V859H528.702V844.455H530.378ZM537.88 859.227C536.895 859.227 536.031 858.993 535.288 858.524C534.549 858.055 533.971 857.4 533.555 856.557C533.143 855.714 532.937 854.729 532.937 853.602C532.937 852.466 533.143 851.474 533.555 850.626C533.971 849.779 534.549 849.121 535.288 848.652C536.031 848.183 536.895 847.949 537.88 847.949C538.865 847.949 539.727 848.183 540.465 848.652C541.209 849.121 541.786 849.779 542.198 850.626C542.615 851.474 542.823 852.466 542.823 853.602C542.823 854.729 542.615 855.714 542.198 856.557C541.786 857.4 541.209 858.055 540.465 858.524C539.727 858.993 538.865 859.227 537.88 859.227ZM537.88 857.722C538.628 857.722 539.244 857.53 539.727 857.146C540.21 856.763 540.567 856.259 540.799 855.634C541.031 855.009 541.147 854.331 541.147 853.602C541.147 852.873 541.031 852.194 540.799 851.564C540.567 850.934 540.21 850.425 539.727 850.037C539.244 849.649 538.628 849.455 537.88 849.455C537.132 849.455 536.516 849.649 536.033 850.037C535.55 850.425 535.193 850.934 534.961 851.564C534.729 852.194 534.613 852.873 534.613 853.602C534.613 854.331 534.729 855.009 534.961 855.634C535.193 856.259 535.55 856.763 536.033 857.146C536.516 857.53 537.132 857.722 537.88 857.722ZM548.592 859.256C547.901 859.256 547.273 859.125 546.71 858.865C546.146 858.6 545.699 858.219 545.368 857.722C545.036 857.22 544.87 856.614 544.87 855.903C544.87 855.278 544.993 854.772 545.24 854.384C545.486 853.991 545.815 853.683 546.227 853.46C546.639 853.238 547.093 853.072 547.591 852.963C548.092 852.849 548.597 852.759 549.103 852.693C549.766 852.608 550.304 852.544 550.716 852.501C551.132 852.454 551.435 852.376 551.625 852.267C551.819 852.158 551.916 851.969 551.916 851.699V851.642C551.916 850.941 551.724 850.397 551.341 850.009C550.962 849.62 550.386 849.426 549.615 849.426C548.815 849.426 548.187 849.601 547.733 849.952C547.278 850.302 546.958 850.676 546.774 851.074L545.183 850.506C545.467 849.843 545.846 849.327 546.319 848.957C546.797 848.583 547.318 848.323 547.882 848.176C548.45 848.025 549.009 847.949 549.558 847.949C549.908 847.949 550.311 847.991 550.765 848.077C551.225 848.157 551.667 848.325 552.093 848.581C552.524 848.837 552.882 849.223 553.166 849.739C553.45 850.255 553.592 850.946 553.592 851.812V859H551.916V857.523H551.831C551.717 857.759 551.528 858.013 551.262 858.283C550.997 858.553 550.645 858.782 550.204 858.972C549.764 859.161 549.226 859.256 548.592 859.256ZM548.848 857.75C549.511 857.75 550.069 857.62 550.524 857.359C550.983 857.099 551.329 856.763 551.561 856.351C551.797 855.939 551.916 855.506 551.916 855.051V853.517C551.845 853.602 551.689 853.68 551.447 853.751C551.21 853.818 550.936 853.877 550.623 853.929C550.315 853.976 550.015 854.019 549.721 854.057C549.432 854.09 549.198 854.118 549.018 854.142C548.583 854.199 548.175 854.291 547.797 854.419C547.422 854.542 547.119 854.729 546.887 854.98C546.66 855.226 546.547 855.562 546.547 855.989C546.547 856.571 546.762 857.011 547.193 857.31C547.628 857.603 548.18 857.75 548.848 857.75ZM560.771 859.227C559.862 859.227 559.059 858.998 558.363 858.538C557.667 858.074 557.122 857.421 556.729 856.578C556.336 855.731 556.14 854.729 556.14 853.574C556.14 852.428 556.336 851.434 556.729 850.591C557.122 849.748 557.669 849.097 558.37 848.638C559.071 848.179 559.88 847.949 560.799 847.949C561.509 847.949 562.07 848.067 562.482 848.304C562.899 848.536 563.216 848.801 563.434 849.099C563.656 849.393 563.829 849.634 563.952 849.824H564.094V844.455H565.771V859H564.151V857.324H563.952C563.829 857.523 563.654 857.774 563.427 858.077C563.2 858.375 562.875 858.643 562.454 858.879C562.032 859.111 561.471 859.227 560.771 859.227ZM560.998 857.722C561.67 857.722 562.238 857.546 562.702 857.196C563.166 856.841 563.519 856.351 563.761 855.726C564.002 855.096 564.123 854.369 564.123 853.545C564.123 852.731 564.004 852.018 563.768 851.408C563.531 850.792 563.181 850.314 562.717 849.973C562.253 849.627 561.68 849.455 560.998 849.455C560.288 849.455 559.696 849.637 559.222 850.001C558.754 850.361 558.401 850.851 558.164 851.472C557.932 852.087 557.816 852.778 557.816 853.545C557.816 854.322 557.934 855.027 558.171 855.662C558.413 856.292 558.768 856.794 559.237 857.168C559.71 857.537 560.297 857.722 560.998 857.722Z" fill="#60A5FA"/>
<path d="M611.939 803.463C611.354 804.049 611.354 804.998 611.939 805.584L621.486 815.129C622.072 815.715 623.022 815.715 623.607 815.129C624.193 814.543 624.193 813.594 623.607 813.008L615.121 804.523L623.606 796.037C624.192 795.451 624.192 794.502 623.606 793.916C623.02 793.33 622.07 793.33 621.484 793.916L611.939 803.463ZM613 806.023L1243 805.977L1243 802.977L613 803.023L613 806.023Z" fill="#60A5FA"/>
<g clip-path="url(#clip3_2_3)">
<path d="M1331.75 812.833C1330.6 812.833 1329.67 813.767 1329.67 814.917V821.167H1321.33V814.917C1321.33 813.767 1320.4 812.833 1319.25 812.833C1318.1 812.833 1317.17 813.767 1317.17 814.917V831.583C1317.17 832.733 1318.1 833.667 1319.25 833.667C1320.4 833.667 1321.33 832.733 1321.33 831.583V825.333H1329.67V831.583C1329.67 832.733 1330.6 833.667 1331.75 833.667C1332.9 833.667 1333.83 832.733 1333.83 831.583V814.917C1333.83 813.767 1332.9 812.833 1331.75 812.833Z" fill="#60A5FA"/>
<path d="M1348.42 812.833H1340.08C1338.93 812.833 1338 813.767 1338 814.917C1338 816.067 1338.93 817 1340.08 817H1342.17V831.583C1342.17 832.733 1343.1 833.667 1344.25 833.667C1345.4 833.667 1346.33 832.733 1346.33 831.583V817H1348.42C1349.57 817 1350.5 816.067 1350.5 814.917C1350.5 813.767 1349.57 812.833 1348.42 812.833Z" fill="#60A5FA"/>
<path d="M1370.05 812.992C1369.27 812.663 1368.37 812.846 1367.77 813.442L1363 818.217L1358.22 813.442C1357.63 812.85 1356.73 812.667 1355.95 812.992C1355.17 813.313 1354.67 814.075 1354.67 814.917V831.583C1354.67 832.733 1355.6 833.667 1356.75 833.667C1357.9 833.667 1358.83 832.733 1358.83 831.583V819.946L1361.53 822.637C1362.34 823.45 1363.66 823.45 1364.47 822.637L1367.17 819.946V831.583C1367.17 832.733 1368.1 833.667 1369.25 833.667C1370.4 833.667 1371.33 832.733 1371.33 831.583V814.917C1371.33 814.075 1370.82 813.313 1370.05 812.992Z" fill="#60A5FA"/>
<path d="M1385.92 829.5H1379.67V814.917C1379.67 813.767 1378.73 812.833 1377.58 812.833C1376.43 812.833 1375.5 813.767 1375.5 814.917V831.583C1375.5 832.733 1376.43 833.667 1377.58 833.667H1385.92C1387.07 833.667 1388 832.733 1388 831.583C1388 830.433 1387.07 829.5 1385.92 829.5Z" fill="#60A5FA"/>
<path d="M1360.92 808.667C1362.07 808.667 1363 807.733 1363 806.583V756.583C1363 755.433 1362.07 754.5 1360.92 754.5H1315.08C1314.8 754.5 1314.53 754.558 1314.27 754.663C1314.2 754.696 1314.14 754.758 1314.07 754.804C1313.91 754.896 1313.74 754.979 1313.61 755.108L1288.61 780.108C1288.51 780.204 1288.46 780.333 1288.38 780.446C1288.31 780.558 1288.21 780.654 1288.16 780.779C1288.06 781.033 1288 781.304 1288 781.583V852.417C1288 853.567 1288.93 854.5 1290.08 854.5H1360.92C1362.07 854.5 1363 853.567 1363 852.417V839.917C1363 838.767 1362.07 837.833 1360.92 837.833C1359.77 837.833 1358.83 838.767 1358.83 839.917V850.333H1292.17V783.667H1315.08C1316.23 783.667 1317.17 782.733 1317.17 781.583V758.667H1358.83V806.583C1358.83 807.733 1359.77 808.667 1360.92 808.667ZM1313 779.5H1295.11L1313 761.613V779.5Z" fill="#60A5FA"/>
</g>
<defs>
<clipPath id="clip0_2_3">
<rect width="80" height="80" fill="white" transform="translate(486.5 256)"/>
</clipPath>
<clipPath id="clip1_2_3">
<rect width="101" height="100" fill="white" transform="translate(1302 265.5)"/>
</clipPath>
<clipPath id="clip2_2_3">
<rect width="80" height="80" fill="white" transform="translate(471.5 745)"/>
</clipPath>
<clipPath id="clip3_2_3">
<rect width="100" height="100" fill="white" transform="translate(1288 754.5)"/>
</clipPath>
</defs>
</svg>
