<svg width="1757" height="920" viewBox="0 0 1757 920" fill="none" xmlns="http://www.w3.org/2000/svg">
<rect x="1400" width="357" height="920" rx="5" fill="#4ADE80"/>
<path d="M1518.31 454.276C1518.2 453.13 1517.71 452.24 1516.85 451.605C1515.98 450.971 1514.82 450.653 1513.34 450.653C1512.33 450.653 1511.49 450.795 1510.8 451.08C1510.1 451.354 1509.57 451.738 1509.2 452.23C1508.84 452.723 1508.66 453.281 1508.66 453.906C1508.65 454.427 1508.75 454.882 1508.99 455.27C1509.24 455.658 1509.57 455.994 1510 456.278C1510.43 456.553 1510.92 456.795 1511.48 457.003C1512.04 457.202 1512.63 457.372 1513.27 457.514L1515.88 458.139C1517.15 458.423 1518.31 458.802 1519.38 459.276C1520.44 459.749 1521.35 460.331 1522.13 461.023C1522.91 461.714 1523.51 462.528 1523.93 463.466C1524.37 464.403 1524.59 465.478 1524.6 466.69C1524.59 468.471 1524.14 470.014 1523.24 471.321C1522.35 472.618 1521.06 473.627 1519.38 474.347C1517.7 475.057 1515.68 475.412 1513.31 475.412C1510.96 475.412 1508.92 475.052 1507.17 474.332C1505.44 473.613 1504.09 472.547 1503.11 471.136C1502.14 469.716 1501.64 467.959 1501.59 465.866H1507.54C1507.61 466.842 1507.89 467.656 1508.38 468.31C1508.88 468.954 1509.55 469.441 1510.38 469.773C1511.23 470.095 1512.18 470.256 1513.24 470.256C1514.28 470.256 1515.18 470.104 1515.95 469.801C1516.73 469.498 1517.33 469.077 1517.76 468.537C1518.18 467.997 1518.39 467.377 1518.39 466.676C1518.39 466.023 1518.2 465.473 1517.81 465.028C1517.43 464.583 1516.88 464.205 1516.14 463.892C1515.41 463.58 1514.51 463.295 1513.45 463.04L1510.28 462.244C1507.83 461.648 1505.89 460.715 1504.47 459.446C1503.05 458.177 1502.35 456.468 1502.36 454.318C1502.35 452.557 1502.82 451.018 1503.76 449.702C1504.72 448.385 1506.03 447.358 1507.7 446.619C1509.37 445.881 1511.26 445.511 1513.38 445.511C1515.54 445.511 1517.42 445.881 1519.03 446.619C1520.65 447.358 1521.91 448.385 1522.81 449.702C1523.71 451.018 1524.18 452.543 1524.2 454.276H1518.31ZM1528.74 475V445.909H1548.34V450.98H1534.89V457.912H1547.33V462.983H1534.89V469.929H1548.4V475H1528.74ZM1553.23 475V445.909H1564.71C1566.91 445.909 1568.78 446.302 1570.33 447.088C1571.9 447.865 1573.08 448.968 1573.9 450.398C1574.72 451.818 1575.13 453.49 1575.13 455.412C1575.13 457.344 1574.72 459.006 1573.88 460.398C1573.05 461.78 1571.84 462.841 1570.26 463.58C1568.69 464.318 1566.79 464.688 1564.55 464.688H1556.87V459.744H1563.56C1564.73 459.744 1565.71 459.583 1566.48 459.261C1567.26 458.939 1567.84 458.456 1568.22 457.812C1568.61 457.169 1568.8 456.368 1568.8 455.412C1568.8 454.446 1568.61 453.632 1568.22 452.969C1567.84 452.306 1567.26 451.804 1566.47 451.463C1565.69 451.113 1564.71 450.938 1563.53 450.938H1559.38V475H1553.23ZM1568.94 461.761L1576.17 475H1569.38L1562.31 461.761H1568.94ZM1583.96 445.909L1590.99 468.011H1591.26L1598.3 445.909H1605.12L1595.09 475H1587.17L1577.12 445.909H1583.96ZM1608.62 475V445.909H1628.22V450.98H1614.77V457.912H1627.22V462.983H1614.77V469.929H1628.28V475H1608.62ZM1633.11 475V445.909H1644.59C1646.79 445.909 1648.66 446.302 1650.22 447.088C1651.78 447.865 1652.97 448.968 1653.78 450.398C1654.61 451.818 1655.02 453.49 1655.02 455.412C1655.02 457.344 1654.6 459.006 1653.77 460.398C1652.93 461.78 1651.73 462.841 1650.15 463.58C1648.57 464.318 1646.67 464.688 1644.44 464.688H1636.75V459.744H1643.44C1644.62 459.744 1645.59 459.583 1646.37 459.261C1647.14 458.939 1647.72 458.456 1648.1 457.812C1648.49 457.169 1648.68 456.368 1648.68 455.412C1648.68 454.446 1648.49 453.632 1648.1 452.969C1647.72 452.306 1647.14 451.804 1646.35 451.463C1645.58 451.113 1644.6 450.938 1643.41 450.938H1639.26V475H1633.11ZM1648.82 461.761L1656.05 475H1649.26L1642.19 461.761H1648.82Z" fill="#333333"/>
<rect width="345" height="920" rx="5" fill="white"/>
<path d="M128.196 456.094H121.974C121.861 455.289 121.629 454.574 121.278 453.949C120.928 453.314 120.478 452.775 119.929 452.33C119.38 451.884 118.745 451.544 118.026 451.307C117.315 451.07 116.544 450.952 115.71 450.952C114.205 450.952 112.893 451.326 111.776 452.074C110.658 452.812 109.792 453.892 109.176 455.312C108.561 456.723 108.253 458.437 108.253 460.455C108.253 462.528 108.561 464.271 109.176 465.682C109.801 467.093 110.672 468.158 111.79 468.878C112.907 469.598 114.2 469.957 115.668 469.957C116.491 469.957 117.254 469.848 117.955 469.631C118.665 469.413 119.295 469.096 119.844 468.679C120.393 468.253 120.848 467.737 121.207 467.131C121.577 466.525 121.832 465.833 121.974 465.057L128.196 465.085C128.035 466.42 127.633 467.708 126.989 468.949C126.354 470.18 125.497 471.283 124.418 472.259C123.348 473.224 122.069 473.991 120.582 474.56C119.105 475.118 117.434 475.398 115.568 475.398C112.973 475.398 110.653 474.811 108.608 473.636C106.572 472.462 104.962 470.762 103.778 468.537C102.604 466.312 102.017 463.617 102.017 460.455C102.017 457.282 102.614 454.583 103.807 452.358C105 450.133 106.619 448.437 108.665 447.273C110.71 446.098 113.011 445.511 115.568 445.511C117.254 445.511 118.816 445.748 120.256 446.222C121.705 446.695 122.988 447.386 124.105 448.295C125.223 449.195 126.132 450.298 126.832 451.605C127.543 452.912 127.997 454.408 128.196 456.094ZM132.607 475V445.909H138.757V469.929H151.229V475H132.607ZM161.452 445.909V475H155.302V445.909H161.452ZM166.513 475V445.909H186.115V450.98H172.663V457.912H185.107V462.983H172.663V469.929H186.172V475H166.513ZM215.337 445.909V475H210.025L197.369 456.69H197.156V475H191.005V445.909H196.403L208.96 464.205H209.215V445.909H215.337ZM219.311 450.98V445.909H243.203V450.98H234.297V475H228.217V450.98H219.311Z" fill="#333333"/>
<path d="M404.52 75.9091V105H401.864V75.9091H404.52ZM414.257 91.3636V105H411.729V83.1818H414.186V86.6051H414.413C414.925 85.4877 415.72 84.5928 416.8 83.9205C417.889 83.2386 419.233 82.8977 420.834 82.8977C422.302 82.8977 423.589 83.2055 424.697 83.821C425.815 84.4271 426.681 85.322 427.297 86.5057C427.922 87.6894 428.234 89.143 428.234 90.8665V105H425.706V91.0227C425.706 89.233 425.204 87.8172 424.2 86.7756C423.206 85.7339 421.871 85.2131 420.195 85.2131C419.049 85.2131 418.031 85.4593 417.141 85.9517C416.25 86.4441 415.545 87.1544 415.024 88.0824C414.513 89.0009 414.257 90.0947 414.257 91.3636ZM434.921 105V83.1818H437.464V105H434.921ZM436.214 79.4318C435.693 79.4318 435.248 79.2566 434.879 78.9062C434.509 78.5464 434.325 78.1155 434.325 77.6136C434.325 77.1117 434.509 76.6856 434.879 76.3352C435.248 75.9754 435.693 75.7955 436.214 75.7955C436.735 75.7955 437.18 75.9754 437.549 76.3352C437.918 76.6856 438.103 77.1117 438.103 77.6136C438.103 78.1155 437.918 78.5464 437.549 78.9062C437.18 79.2566 436.735 79.4318 436.214 79.4318ZM452.744 83.1818V85.3835H442.332V83.1818H452.744ZM445.585 77.9545H448.128V99.304C448.128 100.213 448.284 100.928 448.597 101.449C448.909 101.96 449.316 102.325 449.818 102.543C450.32 102.751 450.855 102.855 451.423 102.855C451.755 102.855 452.039 102.836 452.276 102.798C452.512 102.751 452.721 102.704 452.901 102.656L453.44 104.943C453.194 105.038 452.891 105.123 452.531 105.199C452.171 105.284 451.726 105.327 451.196 105.327C450.268 105.327 449.373 105.123 448.511 104.716C447.659 104.309 446.958 103.703 446.409 102.898C445.86 102.093 445.585 101.094 445.585 99.9006V77.9545ZM458.515 105V83.1818H461.058V105H458.515ZM459.808 79.4318C459.287 79.4318 458.842 79.2566 458.472 78.9062C458.103 78.5464 457.918 78.1155 457.918 77.6136C457.918 77.1117 458.103 76.6856 458.472 76.3352C458.842 75.9754 459.287 75.7955 459.808 75.7955C460.328 75.7955 460.773 75.9754 461.143 76.3352C461.512 76.6856 461.697 77.1117 461.697 77.6136C461.697 78.1155 461.512 78.5464 461.143 78.9062C460.773 79.2566 460.328 79.4318 459.808 79.4318ZM473.838 105.497C472.522 105.497 471.319 105.241 470.23 104.73C469.141 104.209 468.275 103.461 467.631 102.486C466.987 101.501 466.665 100.308 466.665 98.9062C466.665 97.8267 466.868 96.9176 467.276 96.179C467.683 95.4403 468.26 94.8343 469.009 94.3608C469.757 93.8873 470.642 93.5133 471.665 93.2386C472.688 92.964 473.814 92.7509 475.045 92.5994C476.267 92.4479 477.299 92.3153 478.142 92.2017C478.994 92.0881 479.643 91.9081 480.088 91.6619C480.533 91.4157 480.756 91.018 480.756 90.4688V89.9574C480.756 88.4706 480.311 87.3011 479.42 86.4489C478.54 85.5871 477.271 85.1562 475.614 85.1562C474.042 85.1562 472.759 85.5019 471.764 86.1932C470.779 86.8845 470.088 87.6989 469.69 88.6364L467.29 87.7699C467.782 86.5767 468.464 85.625 469.335 84.9148C470.206 84.1951 471.182 83.679 472.261 83.3665C473.341 83.0445 474.435 82.8835 475.543 82.8835C476.376 82.8835 477.242 82.9924 478.142 83.2102C479.051 83.428 479.894 83.8068 480.67 84.3466C481.447 84.8769 482.077 85.6203 482.56 86.5767C483.043 87.5237 483.284 88.7263 483.284 90.1847V105H480.756V101.548H480.599C480.296 102.192 479.847 102.817 479.25 103.423C478.653 104.029 477.905 104.527 477.006 104.915C476.106 105.303 475.05 105.497 473.838 105.497ZM474.179 103.182C475.524 103.182 476.688 102.884 477.673 102.287C478.658 101.69 479.416 100.9 479.946 99.9148C480.486 98.9205 480.756 97.8267 480.756 96.6335V93.4801C480.566 93.66 480.249 93.821 479.804 93.9631C479.368 94.1051 478.862 94.233 478.284 94.3466C477.716 94.4508 477.148 94.5407 476.58 94.6165C476.011 94.6922 475.5 94.7585 475.045 94.8153C473.814 94.9669 472.763 95.2036 471.892 95.5256C471.021 95.8475 470.353 96.2926 469.889 96.8608C469.425 97.4195 469.193 98.1392 469.193 99.0199C469.193 100.346 469.667 101.373 470.614 102.102C471.561 102.822 472.749 103.182 474.179 103.182ZM492.538 75.9091V105H490.01V75.9091H492.538ZM510.479 105V83.1818H512.936V86.5341H513.121C513.556 85.4356 514.314 84.5502 515.393 83.8778C516.482 83.196 517.714 82.8551 519.087 82.8551C519.295 82.8551 519.527 82.8598 519.783 82.8693C520.038 82.8788 520.251 82.8883 520.422 82.8977V85.4688C520.308 85.4498 520.109 85.4214 519.825 85.3835C519.541 85.3456 519.233 85.3267 518.902 85.3267C517.766 85.3267 516.752 85.5682 515.862 86.0511C514.982 86.5246 514.286 87.1828 513.774 88.0256C513.263 88.8684 513.007 89.8295 513.007 90.9091V105H510.479ZM532.893 105.455C530.857 105.455 529.096 104.981 527.609 104.034C526.123 103.078 524.972 101.757 524.158 100.071C523.353 98.3759 522.95 96.4252 522.95 94.2188C522.95 92.0218 523.353 90.071 524.158 88.3665C524.972 86.6525 526.094 85.3125 527.524 84.3466C528.964 83.3712 530.625 82.8835 532.51 82.8835C533.694 82.8835 534.835 83.1013 535.933 83.5369C537.032 83.9631 538.017 84.6212 538.888 85.5114C539.768 86.392 540.464 87.5047 540.976 88.8494C541.487 90.1847 541.743 91.7661 541.743 93.5938V94.8438H524.697V92.6136H539.158C539.158 91.2121 538.874 89.9527 538.305 88.8352C537.747 87.7083 536.965 86.8182 535.962 86.1648C534.967 85.5114 533.817 85.1847 532.51 85.1847C531.127 85.1847 529.911 85.554 528.859 86.2926C527.808 87.0312 526.984 88.0066 526.388 89.2188C525.801 90.4309 525.502 91.7566 525.493 93.196V94.5312C525.493 96.2642 525.791 97.7794 526.388 99.0767C526.994 100.365 527.851 101.364 528.959 102.074C530.067 102.784 531.378 103.139 532.893 103.139C533.926 103.139 534.83 102.978 535.607 102.656C536.393 102.334 537.051 101.903 537.581 101.364C538.121 100.814 538.528 100.213 538.803 99.5597L541.203 100.341C540.872 101.259 540.327 102.107 539.57 102.884C538.821 103.66 537.884 104.285 536.757 104.759C535.64 105.223 534.352 105.455 532.893 105.455ZM562.102 113.182V100.952H561.874C561.581 101.615 561.164 102.296 560.624 102.997C560.085 103.688 559.37 104.271 558.479 104.744C557.589 105.218 556.486 105.455 555.17 105.455C553.389 105.455 551.822 104.981 550.468 104.034C549.123 103.087 548.072 101.766 547.315 100.071C546.567 98.3759 546.192 96.4015 546.192 94.1477C546.192 91.9034 546.567 89.9384 547.315 88.2528C548.072 86.5578 549.128 85.2415 550.482 84.304C551.836 83.357 553.413 82.8835 555.212 82.8835C556.548 82.8835 557.651 83.1203 558.522 83.5938C559.403 84.0672 560.108 84.6496 560.638 85.3409C561.169 86.0227 561.581 86.6903 561.874 87.3438H562.173V83.1818H564.644V113.182H562.102ZM555.468 103.139C556.879 103.139 558.082 102.756 559.076 101.989C560.07 101.212 560.828 100.147 561.349 98.7926C561.879 97.429 562.144 95.8665 562.144 94.1051C562.144 92.3627 561.884 90.8239 561.363 89.4886C560.842 88.1439 560.085 87.0928 559.09 86.3352C558.105 85.5682 556.898 85.1847 555.468 85.1847C554.01 85.1847 552.779 85.5824 551.775 86.3778C550.771 87.1638 550.013 88.2292 549.502 89.5739C548.991 90.9186 548.735 92.429 548.735 94.1051C548.735 95.8002 548.996 97.3295 549.516 98.6932C550.037 100.057 550.799 101.141 551.803 101.946C552.807 102.741 554.029 103.139 555.468 103.139ZM585.163 96.6619V83.1818H587.691V105H585.163V101.378H584.964C584.452 102.495 583.643 103.428 582.535 104.176C581.427 104.915 580.073 105.284 578.472 105.284C577.08 105.284 575.844 104.981 574.765 104.375C573.685 103.759 572.838 102.86 572.222 101.676C571.607 100.492 571.299 99.0388 571.299 97.3153V83.1818H573.827V97.1591C573.827 98.8636 574.329 100.237 575.333 101.278C576.337 102.311 577.625 102.827 579.197 102.827C580.182 102.827 581.129 102.59 582.038 102.116C582.947 101.643 583.695 100.952 584.282 100.043C584.869 99.1241 585.163 97.9972 585.163 96.6619ZM603.206 105.455C601.17 105.455 599.409 104.981 597.922 104.034C596.435 103.078 595.285 101.757 594.47 100.071C593.665 98.3759 593.263 96.4252 593.263 94.2188C593.263 92.0218 593.665 90.071 594.47 88.3665C595.285 86.6525 596.407 85.3125 597.837 84.3466C599.276 83.3712 600.938 82.8835 602.822 82.8835C604.006 82.8835 605.147 83.1013 606.246 83.5369C607.344 83.9631 608.329 84.6212 609.2 85.5114C610.081 86.392 610.777 87.5047 611.288 88.8494C611.8 90.1847 612.055 91.7661 612.055 93.5938V94.8438H595.01V92.6136H609.47C609.47 91.2121 609.186 89.9527 608.618 88.8352C608.059 87.7083 607.278 86.8182 606.274 86.1648C605.28 85.5114 604.129 85.1847 602.822 85.1847C601.44 85.1847 600.223 85.554 599.172 86.2926C598.121 87.0312 597.297 88.0066 596.7 89.2188C596.113 90.4309 595.815 91.7566 595.805 93.196V94.5312C595.805 96.2642 596.104 97.7794 596.7 99.0767C597.306 100.365 598.163 101.364 599.271 102.074C600.379 102.784 601.691 103.139 603.206 103.139C604.238 103.139 605.143 102.978 605.919 102.656C606.705 102.334 607.363 101.903 607.893 101.364C608.433 100.814 608.84 100.213 609.115 99.5597L611.516 100.341C611.184 101.259 610.64 102.107 609.882 102.884C609.134 103.66 608.196 104.285 607.07 104.759C605.952 105.223 604.664 105.455 603.206 105.455ZM632.286 87.9688L629.971 88.6222C629.744 87.9687 629.422 87.3769 629.005 86.8466C628.588 86.3163 628.044 85.8949 627.371 85.5824C626.709 85.2699 625.885 85.1136 624.9 85.1136C623.423 85.1136 622.21 85.464 621.263 86.1648C620.317 86.8655 619.843 87.7699 619.843 88.8778C619.843 89.8153 620.165 90.5777 620.809 91.1648C621.462 91.7424 622.466 92.2017 623.82 92.5426L627.116 93.3523C628.943 93.7973 630.312 94.5028 631.221 95.4688C632.139 96.4347 632.599 97.6468 632.599 99.1051C632.599 100.336 632.258 101.43 631.576 102.386C630.894 103.343 629.942 104.096 628.721 104.645C627.509 105.185 626.103 105.455 624.502 105.455C622.371 105.455 620.615 104.976 619.232 104.02C617.85 103.054 616.964 101.662 616.576 99.8438L619.005 99.2472C619.317 100.545 619.928 101.525 620.837 102.188C621.756 102.85 622.963 103.182 624.46 103.182C626.136 103.182 627.476 102.808 628.479 102.06C629.483 101.302 629.985 100.355 629.985 99.2188C629.985 98.3381 629.692 97.5994 629.104 97.0028C628.517 96.3968 627.627 95.9517 626.434 95.6676L622.869 94.8153C620.975 94.3608 619.573 93.6411 618.664 92.6562C617.755 91.6714 617.3 90.4498 617.3 88.9915C617.3 87.7888 617.627 86.733 618.281 85.8239C618.934 84.9053 619.834 84.1856 620.979 83.6648C622.125 83.1439 623.432 82.8835 624.9 82.8835C626.898 82.8835 628.494 83.3381 629.687 84.2472C630.889 85.1468 631.756 86.3873 632.286 87.9688ZM646.729 83.1818V85.3835H636.317V83.1818H646.729ZM639.57 77.9545H642.112V99.304C642.112 100.213 642.268 100.928 642.581 101.449C642.893 101.96 643.301 102.325 643.803 102.543C644.304 102.751 644.839 102.855 645.408 102.855C645.739 102.855 646.023 102.836 646.26 102.798C646.497 102.751 646.705 102.704 646.885 102.656L647.425 104.943C647.179 105.038 646.875 105.123 646.516 105.199C646.156 105.284 645.711 105.327 645.18 105.327C644.252 105.327 643.357 105.123 642.496 104.716C641.643 104.309 640.943 103.703 640.393 102.898C639.844 102.093 639.57 101.094 639.57 99.9006V77.9545ZM409.818 153.455C407.934 153.455 406.267 152.976 404.818 152.02C403.379 151.063 402.252 149.742 401.438 148.057C400.623 146.362 400.216 144.406 400.216 142.19C400.216 139.955 400.623 137.991 401.438 136.295C402.252 134.591 403.379 133.265 404.818 132.318C406.267 131.362 407.934 130.884 409.818 130.884C411.703 130.884 413.365 131.362 414.804 132.318C416.243 133.275 417.37 134.6 418.185 136.295C419.009 137.991 419.42 139.955 419.42 142.19C419.42 144.406 419.013 146.362 418.199 148.057C417.384 149.742 416.253 151.063 414.804 152.02C413.365 152.976 411.703 153.455 409.818 153.455ZM409.818 151.139C411.333 151.139 412.616 150.732 413.668 149.918C414.719 149.103 415.514 148.019 416.054 146.665C416.603 145.311 416.878 143.819 416.878 142.19C416.878 140.562 416.603 139.065 416.054 137.702C415.514 136.338 414.719 135.244 413.668 134.42C412.616 133.597 411.333 133.185 409.818 133.185C408.313 133.185 407.029 133.597 405.969 134.42C404.918 135.244 404.117 136.338 403.568 137.702C403.028 139.065 402.759 140.562 402.759 142.19C402.759 143.819 403.028 145.311 403.568 146.665C404.117 148.019 404.918 149.103 405.969 149.918C407.02 150.732 408.303 151.139 409.818 151.139ZM427.499 139.364V153H424.971V131.182H427.428V134.605H427.656C428.167 133.488 428.962 132.593 430.042 131.92C431.131 131.239 432.476 130.898 434.076 130.898C435.544 130.898 436.832 131.205 437.94 131.821C439.057 132.427 439.924 133.322 440.539 134.506C441.164 135.689 441.477 137.143 441.477 138.866V153H438.948V139.023C438.948 137.233 438.446 135.817 437.442 134.776C436.448 133.734 435.113 133.213 433.437 133.213C432.291 133.213 431.273 133.459 430.383 133.952C429.493 134.444 428.787 135.154 428.266 136.082C427.755 137.001 427.499 138.095 427.499 139.364ZM458.462 153V131.182H464.513V153H458.462ZM461.501 128.369C460.602 128.369 459.83 128.071 459.186 127.474C458.552 126.868 458.234 126.144 458.234 125.301C458.234 124.468 458.552 123.753 459.186 123.156C459.83 122.55 460.602 122.247 461.501 122.247C462.401 122.247 463.168 122.55 463.803 123.156C464.446 123.753 464.768 124.468 464.768 125.301C464.768 126.144 464.446 126.868 463.803 127.474C463.168 128.071 462.401 128.369 461.501 128.369ZM475.411 140.386V153H469.36V131.182H475.127V135.031H475.383C475.866 133.762 476.675 132.759 477.812 132.02C478.948 131.272 480.326 130.898 481.945 130.898C483.46 130.898 484.781 131.229 485.908 131.892C487.035 132.555 487.911 133.502 488.536 134.733C489.161 135.955 489.474 137.413 489.474 139.108V153H483.423V140.188C483.432 138.852 483.091 137.811 482.4 137.062C481.709 136.305 480.757 135.926 479.545 135.926C478.73 135.926 478.011 136.101 477.386 136.452C476.77 136.802 476.287 137.313 475.937 137.986C475.596 138.649 475.421 139.449 475.411 140.386ZM502.283 153.355C500.625 153.355 499.125 152.929 497.78 152.077C496.445 151.215 495.384 149.951 494.598 148.284C493.821 146.608 493.433 144.553 493.433 142.119C493.433 139.619 493.836 137.541 494.641 135.884C495.446 134.217 496.516 132.972 497.851 132.148C499.196 131.314 500.668 130.898 502.268 130.898C503.49 130.898 504.508 131.106 505.322 131.523C506.146 131.93 506.809 132.441 507.311 133.057C507.822 133.663 508.211 134.259 508.476 134.847H508.661V123.909H514.697V153H508.732V149.506H508.476C508.192 150.112 507.789 150.713 507.268 151.31C506.757 151.897 506.089 152.384 505.266 152.773C504.451 153.161 503.457 153.355 502.283 153.355ZM504.2 148.54C505.176 148.54 506 148.275 506.672 147.744C507.354 147.205 507.875 146.452 508.234 145.486C508.604 144.52 508.788 143.388 508.788 142.091C508.788 140.794 508.608 139.667 508.249 138.71C507.889 137.754 507.368 137.015 506.686 136.494C506.004 135.973 505.176 135.713 504.2 135.713C503.206 135.713 502.368 135.983 501.686 136.523C501.004 137.062 500.488 137.811 500.138 138.767C499.787 139.723 499.612 140.831 499.612 142.091C499.612 143.36 499.787 144.482 500.138 145.457C500.498 146.423 501.014 147.181 501.686 147.73C502.368 148.27 503.206 148.54 504.2 148.54ZM529.616 153.426C527.371 153.426 525.44 152.972 523.82 152.062C522.21 151.144 520.97 149.847 520.099 148.17C519.228 146.485 518.792 144.491 518.792 142.19C518.792 139.946 519.228 137.976 520.099 136.281C520.97 134.586 522.196 133.265 523.778 132.318C525.369 131.371 527.234 130.898 529.374 130.898C530.814 130.898 532.154 131.13 533.394 131.594C534.644 132.048 535.733 132.735 536.661 133.653C537.599 134.572 538.328 135.727 538.849 137.119C539.37 138.502 539.63 140.121 539.63 141.977V143.639H521.207V139.889H533.934C533.934 139.018 533.745 138.246 533.366 137.574C532.987 136.902 532.461 136.376 531.789 135.997C531.126 135.609 530.354 135.415 529.474 135.415C528.555 135.415 527.741 135.628 527.031 136.054C526.33 136.471 525.781 137.034 525.383 137.744C524.985 138.445 524.781 139.226 524.772 140.088V143.653C524.772 144.733 524.971 145.666 525.369 146.452C525.776 147.238 526.349 147.844 527.087 148.27C527.826 148.696 528.702 148.909 529.715 148.909C530.388 148.909 531.003 148.814 531.562 148.625C532.121 148.436 532.599 148.152 532.996 147.773C533.394 147.394 533.697 146.93 533.906 146.381L539.502 146.75C539.218 148.095 538.636 149.269 537.755 150.273C536.884 151.267 535.757 152.044 534.374 152.602C533.001 153.152 531.415 153.426 529.616 153.426ZM548.245 131.182L552.251 138.81L556.356 131.182H562.563L556.242 142.091L562.734 153H556.555L552.251 145.457L548.018 153H541.768L548.245 142.091L541.995 131.182H548.245ZM569.694 153.369C568.756 153.369 567.951 153.038 567.279 152.375C566.616 151.703 566.285 150.898 566.285 149.96C566.285 149.032 566.616 148.237 567.279 147.574C567.951 146.911 568.756 146.58 569.694 146.58C570.603 146.58 571.398 146.911 572.08 147.574C572.762 148.237 573.103 149.032 573.103 149.96C573.103 150.585 572.942 151.158 572.62 151.679C572.308 152.19 571.896 152.602 571.384 152.915C570.873 153.218 570.309 153.369 569.694 153.369ZM584.122 140.386V153H578.071V123.909H583.952V135.031H584.207C584.7 133.743 585.495 132.735 586.594 132.006C587.692 131.267 589.07 130.898 590.727 130.898C592.242 130.898 593.563 131.229 594.69 131.892C595.827 132.545 596.707 133.488 597.332 134.719C597.967 135.94 598.279 137.403 598.27 139.108V153H592.219V140.188C592.228 138.843 591.887 137.796 591.196 137.048C590.514 136.3 589.558 135.926 588.327 135.926C587.503 135.926 586.774 136.101 586.139 136.452C585.514 136.802 585.022 137.313 584.662 137.986C584.312 138.649 584.132 139.449 584.122 140.386ZM614.637 131.182V135.727H601.498V131.182H614.637ZM604.481 125.955H610.532V146.295C610.532 146.854 610.617 147.29 610.788 147.602C610.958 147.905 611.195 148.118 611.498 148.241C611.81 148.365 612.17 148.426 612.577 148.426C612.862 148.426 613.146 148.402 613.43 148.355C613.714 148.298 613.932 148.256 614.083 148.227L615.035 152.73C614.732 152.825 614.306 152.934 613.756 153.057C613.207 153.189 612.54 153.27 611.754 153.298C610.295 153.355 609.017 153.161 607.918 152.716C606.829 152.271 605.982 151.58 605.376 150.642C604.77 149.705 604.471 148.521 604.481 147.091V125.955ZM618.579 153V131.182H624.346V135.031H624.602C625.056 133.753 625.814 132.744 626.874 132.006C627.935 131.267 629.204 130.898 630.681 130.898C632.177 130.898 633.451 131.272 634.502 132.02C635.553 132.759 636.254 133.762 636.604 135.031H636.832C637.277 133.781 638.082 132.782 639.246 132.034C640.421 131.277 641.808 130.898 643.408 130.898C645.444 130.898 647.097 131.546 648.366 132.844C649.644 134.132 650.283 135.959 650.283 138.327V153H644.246V139.52C644.246 138.308 643.924 137.399 643.281 136.793C642.637 136.187 641.832 135.884 640.866 135.884C639.767 135.884 638.91 136.234 638.295 136.935C637.679 137.626 637.371 138.54 637.371 139.676V153H631.505V139.392C631.505 138.322 631.197 137.47 630.582 136.835C629.976 136.201 629.175 135.884 628.181 135.884C627.509 135.884 626.903 136.054 626.363 136.395C625.833 136.726 625.411 137.195 625.099 137.801C624.786 138.398 624.63 139.098 624.63 139.903V153H618.579ZM661.114 123.909V153H655.063V123.909H661.114Z" fill="white"/>
<path d="M1320.06 115.068C1320.65 114.482 1320.65 113.532 1320.06 112.947L1310.51 103.4C1309.93 102.815 1308.98 102.815 1308.39 103.4C1307.81 103.986 1307.81 104.936 1308.39 105.522L1316.88 114.007L1308.39 122.492C1307.81 123.078 1307.81 124.028 1308.39 124.614C1308.98 125.199 1309.93 125.199 1310.51 124.614L1320.06 115.068ZM706 115.493L1319 115.507L1319 112.507L706 112.493L706 115.493Z" fill="white"/>
<path d="M392.939 230.96C392.354 231.546 392.354 232.496 392.939 233.081L402.486 242.627C403.072 243.213 404.022 243.213 404.607 242.627C405.193 242.041 405.193 241.091 404.607 240.505L396.121 232.021L404.606 223.535C405.192 222.949 405.192 221.999 404.606 221.413C404.02 220.828 403.07 220.828 402.485 221.414L392.939 230.96ZM394 233.521L1060 233.479L1060 230.479L394 230.521L394 233.521Z" fill="#4ADE80"/>
<g clip-path="url(#clip0_15_3)">
<path d="M1136.19 240.333C1135.03 240.333 1134.08 241.267 1134.08 242.417V248.667H1125.67V242.417C1125.67 241.267 1124.72 240.333 1123.56 240.333C1122.4 240.333 1121.46 241.267 1121.46 242.417V259.083C1121.46 260.233 1122.4 261.167 1123.56 261.167C1124.72 261.167 1125.67 260.233 1125.67 259.083V252.833H1134.08V259.083C1134.08 260.233 1135.03 261.167 1136.19 261.167C1137.35 261.167 1138.29 260.233 1138.29 259.083V242.417C1138.29 241.267 1137.35 240.333 1136.19 240.333Z" fill="#4ADE80"/>
<path d="M1153.02 240.333H1144.6C1143.44 240.333 1142.5 241.267 1142.5 242.417C1142.5 243.567 1143.44 244.5 1144.6 244.5H1146.71V259.083C1146.71 260.233 1147.65 261.167 1148.81 261.167C1149.97 261.167 1150.92 260.233 1150.92 259.083V244.5H1153.02C1154.18 244.5 1155.13 243.567 1155.13 242.417C1155.13 241.267 1154.18 240.333 1153.02 240.333Z" fill="#4ADE80"/>
<path d="M1174.87 240.492C1174.08 240.163 1173.18 240.346 1172.57 240.942L1167.75 245.717L1162.93 240.942C1162.33 240.35 1161.42 240.167 1160.63 240.492C1159.85 240.813 1159.33 241.575 1159.33 242.417V259.083C1159.33 260.233 1160.28 261.167 1161.44 261.167C1162.6 261.167 1163.54 260.233 1163.54 259.083V247.446L1166.26 250.137C1167.09 250.95 1168.42 250.95 1169.24 250.137L1171.96 247.446V259.083C1171.96 260.233 1172.9 261.167 1174.06 261.167C1175.22 261.167 1176.17 260.233 1176.17 259.083V242.417C1176.17 241.575 1175.65 240.813 1174.87 240.492Z" fill="#4ADE80"/>
<path d="M1190.9 257H1184.58V242.417C1184.58 241.267 1183.64 240.333 1182.48 240.333C1181.32 240.333 1180.38 241.267 1180.38 242.417V259.083C1180.38 260.233 1181.32 261.167 1182.48 261.167H1190.9C1192.06 261.167 1193 260.233 1193 259.083C1193 257.933 1192.06 257 1190.9 257Z" fill="#4ADE80"/>
<path d="M1165.65 236.167C1166.81 236.167 1167.75 235.233 1167.75 234.083V184.083C1167.75 182.933 1166.81 182 1165.65 182H1119.35C1119.07 182 1118.79 182.058 1118.54 182.163C1118.46 182.196 1118.4 182.258 1118.33 182.304C1118.17 182.396 1118 182.479 1117.86 182.608L1092.61 207.608C1092.52 207.704 1092.46 207.833 1092.39 207.946C1092.31 208.058 1092.21 208.154 1092.16 208.279C1092.06 208.533 1092 208.804 1092 209.083V279.917C1092 281.067 1092.94 282 1094.1 282H1165.65C1166.81 282 1167.75 281.067 1167.75 279.917V267.417C1167.75 266.267 1166.81 265.333 1165.65 265.333C1164.48 265.333 1163.54 266.267 1163.54 267.417V277.833H1096.21V211.167H1119.35C1120.52 211.167 1121.46 210.233 1121.46 209.083V186.167H1163.54V234.083C1163.54 235.233 1164.48 236.167 1165.65 236.167ZM1117.25 207H1099.18L1117.25 189.113V207Z" fill="#4ADE80"/>
</g>
<g clip-path="url(#clip1_15_3)">
<path d="M1305.34 248.423L1304.72 248.319C1301.07 247.723 1300.52 246.774 1300.52 246.261C1300.52 245.432 1302.18 244.178 1304.69 244.178C1307.16 244.178 1308.78 245.349 1308.86 246.19C1308.97 247.34 1310.02 248.215 1311.14 248.065C1312.28 247.957 1313.12 246.94 1313.01 245.794C1312.69 242.494 1309.12 240.007 1304.69 240.007C1300.02 240.007 1296.35 242.753 1296.35 246.257C1296.35 249.519 1298.94 251.594 1304.05 252.428L1304.39 250.373L1304.66 252.532C1308.12 253.103 1308.85 253.969 1308.85 254.594C1308.85 255.423 1307.19 256.678 1304.68 256.678C1302.22 256.678 1300.59 255.503 1300.51 254.661C1300.4 253.511 1299.38 252.645 1298.24 252.786C1297.1 252.895 1296.25 253.911 1296.36 255.057C1296.68 258.357 1300.25 260.844 1304.68 260.844C1309.36 260.844 1313.02 258.099 1313.02 254.594C1313.02 251.336 1310.44 249.261 1305.34 248.423Z" fill="#4ADE80"/>
<path d="M1290.1 240.011C1288.95 240.011 1288.02 240.944 1288.02 242.094V254.594C1288.02 255.744 1287.08 256.678 1285.94 256.678C1284.79 256.678 1283.85 255.744 1283.85 254.594C1283.85 253.444 1282.92 252.511 1281.77 252.511C1280.62 252.511 1279.69 253.444 1279.69 254.594C1279.69 258.04 1282.49 260.844 1285.94 260.844C1289.38 260.844 1292.19 258.04 1292.19 254.594V242.094C1292.19 240.944 1291.25 240.011 1290.1 240.011Z" fill="#4ADE80"/>
<path d="M1297.92 236.167C1299.07 236.167 1300 235.233 1300 234.083V184.084C1300 182.934 1299.07 182.001 1297.92 182.001H1252.08C1251.8 182.001 1251.53 182.059 1251.28 182.163C1251.16 182.213 1251.07 182.305 1250.96 182.376C1250.84 182.451 1250.71 182.509 1250.61 182.609L1225.61 207.609C1225.51 207.705 1225.46 207.834 1225.38 207.946C1225.31 208.059 1225.21 208.155 1225.16 208.28C1225.05 208.534 1225 208.805 1225 209.084V279.916C1225 281.066 1225.93 281.999 1227.08 281.999H1297.92C1299.07 281.999 1300 281.066 1300 279.916V267.416C1300 266.266 1299.07 265.333 1297.92 265.333C1296.77 265.333 1295.83 266.266 1295.83 267.416V277.832H1229.17V211.167H1252.08C1253.23 211.167 1254.17 210.234 1254.17 209.084V186.167H1295.83V234.083C1295.83 235.233 1296.77 236.167 1297.92 236.167ZM1250 207H1232.11L1250 189.113V207Z" fill="#4ADE80"/>
</g>
<path d="M393.523 714V684.909H410.966V688.034H397.045V697.864H409.659V700.989H397.045V714H393.523ZM424.091 714.455C421.989 714.455 420.175 713.991 418.651 713.062C417.135 712.125 415.966 710.818 415.142 709.142C414.328 707.456 413.92 705.496 413.92 703.261C413.92 701.027 414.328 699.057 415.142 697.352C415.966 695.638 417.112 694.303 418.58 693.347C420.057 692.381 421.78 691.898 423.75 691.898C424.886 691.898 426.009 692.087 427.116 692.466C428.224 692.845 429.233 693.46 430.142 694.312C431.051 695.155 431.776 696.273 432.315 697.665C432.855 699.057 433.125 700.771 433.125 702.807V704.227H416.307V701.33H429.716C429.716 700.098 429.47 699 428.977 698.034C428.494 697.068 427.803 696.306 426.903 695.747C426.013 695.188 424.962 694.909 423.75 694.909C422.415 694.909 421.259 695.241 420.284 695.903C419.318 696.557 418.575 697.409 418.054 698.46C417.533 699.511 417.273 700.638 417.273 701.841V703.773C417.273 705.42 417.557 706.817 418.125 707.963C418.703 709.099 419.503 709.966 420.526 710.562C421.548 711.15 422.737 711.443 424.091 711.443C424.972 711.443 425.767 711.32 426.477 711.074C427.197 710.818 427.817 710.439 428.338 709.938C428.859 709.426 429.261 708.792 429.545 708.034L432.784 708.943C432.443 710.042 431.87 711.008 431.065 711.841C430.26 712.665 429.266 713.309 428.082 713.773C426.899 714.227 425.568 714.455 424.091 714.455ZM447.713 692.182V695.023H436.406V692.182H447.713ZM439.702 686.955H443.054V707.75C443.054 708.697 443.191 709.407 443.466 709.881C443.75 710.345 444.11 710.657 444.545 710.818C444.991 710.97 445.459 711.045 445.952 711.045C446.321 711.045 446.624 711.027 446.861 710.989C447.098 710.941 447.287 710.903 447.429 710.875L448.111 713.886C447.884 713.972 447.566 714.057 447.159 714.142C446.752 714.237 446.236 714.284 445.611 714.284C444.664 714.284 443.736 714.08 442.827 713.673C441.927 713.266 441.179 712.646 440.582 711.812C439.995 710.979 439.702 709.928 439.702 708.659V686.955ZM461.385 714.455C459.339 714.455 457.578 713.972 456.101 713.006C454.624 712.04 453.487 710.709 452.692 709.014C451.896 707.319 451.499 705.383 451.499 703.205C451.499 700.989 451.906 699.033 452.72 697.338C453.544 695.634 454.69 694.303 456.158 693.347C457.635 692.381 459.358 691.898 461.328 691.898C462.862 691.898 464.245 692.182 465.476 692.75C466.707 693.318 467.715 694.114 468.501 695.136C469.287 696.159 469.775 697.352 469.964 698.716H466.612C466.357 697.722 465.788 696.841 464.908 696.074C464.036 695.297 462.862 694.909 461.385 694.909C460.078 694.909 458.932 695.25 457.947 695.932C456.972 696.604 456.21 697.556 455.661 698.787C455.121 700.009 454.851 701.443 454.851 703.091C454.851 704.777 455.116 706.244 455.646 707.494C456.186 708.744 456.944 709.715 457.919 710.406C458.904 711.098 460.059 711.443 461.385 711.443C462.256 711.443 463.047 711.292 463.757 710.989C464.467 710.686 465.069 710.25 465.561 709.682C466.054 709.114 466.404 708.432 466.612 707.636H469.964C469.775 708.924 469.306 710.084 468.558 711.116C467.82 712.139 466.839 712.954 465.618 713.56C464.406 714.156 462.995 714.455 461.385 714.455ZM478.217 700.875V714H474.865V684.909H478.217V695.591H478.501C479.013 694.464 479.78 693.569 480.803 692.906C481.835 692.234 483.208 691.898 484.922 691.898C486.409 691.898 487.711 692.196 488.828 692.793C489.946 693.38 490.812 694.284 491.428 695.506C492.053 696.718 492.365 698.261 492.365 700.136V714H489.013V700.364C489.013 698.631 488.563 697.291 487.663 696.344C486.773 695.387 485.537 694.909 483.956 694.909C482.857 694.909 481.873 695.141 481.001 695.605C480.14 696.069 479.458 696.746 478.956 697.636C478.464 698.527 478.217 699.606 478.217 700.875Z" fill="white"/>
<path d="M1306.05 702.596C1306.64 702.014 1306.65 701.065 1306.07 700.475L1296.58 690.866C1296 690.276 1295.05 690.27 1294.46 690.852C1293.87 691.434 1293.87 692.384 1294.45 692.973L1302.88 701.515L1294.34 709.944C1293.75 710.525 1293.74 711.475 1294.32 712.065C1294.91 712.654 1295.85 712.661 1296.44 712.079L1306.05 702.596ZM540.99 697.971L1304.99 703.029L1305.01 700.029L541.01 694.971L540.99 697.971Z" fill="white"/>
<path d="M388.939 791.963C388.354 792.549 388.354 793.498 388.939 794.084L398.486 803.629C399.072 804.215 400.022 804.215 400.607 803.629C401.193 803.043 401.193 802.094 400.607 801.508L392.121 793.023L400.606 784.537C401.192 783.952 401.192 783.002 400.606 782.416C400.02 781.83 399.07 781.83 398.485 782.416L388.939 791.963ZM390 794.523L1149 794.477L1149 791.477L390 791.523L390 794.523Z" fill="#4ADE80"/>
<g clip-path="url(#clip2_15_3)">
<path d="M1220 743V803H1225V748H1265V763V768H1285V803H1290V768V763L1270 743H1265H1220ZM1270 749.768L1283.23 763H1270V749.768ZM1225 808V823L1224.96 823.654L1224.83 824.289L1224.62 824.914L1224.33 825.5L1223.96 826.037L1223.53 826.535L1223.05 826.965L1222.5 827.326L1221.91 827.619L1221.3 827.824L1220.65 827.961L1220 828L1219.35 827.961L1218.7 827.824L1218.09 827.619L1217.5 827.326L1216.95 826.965L1216.46 826.535L1216.03 826.037L1215.67 825.5L1215.38 824.914L1215.17 824.289L1215.04 823.654L1215 823H1210L1210.04 823.918L1210.18 824.836L1210.38 825.734L1210.67 826.613L1211.04 827.453L1211.5 828.264L1212.02 829.025L1212.61 829.738L1213.26 830.393L1213.97 830.979L1214.74 831.496L1215.54 831.955L1216.39 832.326L1217.27 832.619L1218.16 832.824L1219.08 832.961L1220 833L1220.92 832.961L1221.84 832.824L1222.73 832.619L1223.61 832.326L1224.46 831.955L1225.26 831.496L1226.03 830.979L1226.74 830.393L1227.39 829.738L1227.98 829.025L1228.5 828.264L1228.95 827.453L1229.33 826.613L1229.62 825.734L1229.82 824.836L1229.96 823.918L1230 823V808H1225ZM1242.5 808C1241.51 808 1240.54 808.194 1239.63 808.571C1238.72 808.948 1237.89 809.5 1237.2 810.197C1236.5 810.893 1235.95 811.72 1235.57 812.63C1235.19 813.54 1235 814.515 1235 815.5C1235 816.485 1235.19 817.46 1235.57 818.37C1235.95 819.28 1236.5 820.107 1237.2 820.803C1237.89 821.5 1238.72 822.052 1239.63 822.429C1240.54 822.806 1241.51 823 1242.5 823H1247.5C1248.16 823 1248.8 823.263 1249.27 823.732C1249.74 824.201 1250 824.837 1250 825.5C1250 826.163 1249.74 826.799 1249.27 827.268C1248.8 827.737 1248.16 828 1247.5 828H1235V833H1247.5C1248.48 833 1249.46 832.806 1250.37 832.429C1251.28 832.052 1252.11 831.5 1252.8 830.803C1253.5 830.107 1254.05 829.28 1254.43 828.37C1254.81 827.46 1255 826.485 1255 825.5C1255 824.515 1254.81 823.54 1254.43 822.63C1254.05 821.72 1253.5 820.893 1252.8 820.197C1252.11 819.5 1251.28 818.948 1250.37 818.571C1249.46 818.194 1248.48 818 1247.5 818H1242.5C1241.84 818 1241.2 817.737 1240.73 817.268C1240.26 816.799 1240 816.163 1240 815.5C1240 814.837 1240.26 814.201 1240.73 813.732C1241.2 813.263 1241.84 813 1242.5 813H1255V808H1242.5ZM1270 808L1269.08 808.039L1268.16 808.166L1267.27 808.381L1266.39 808.674L1265.54 809.045L1264.74 809.494L1263.97 810.021L1263.26 810.607L1262.61 811.262L1262.02 811.975L1261.5 812.736L1261.04 813.537L1260.67 814.387L1260.38 815.256L1260.18 816.164L1260.04 817.082L1260 818V823L1260.04 823.918L1260.18 824.836L1260.38 825.734L1260.67 826.613L1261.04 827.453L1261.5 828.264L1262.02 829.025L1262.61 829.738L1263.26 830.393L1263.97 830.979L1264.74 831.496L1265.54 831.955L1266.39 832.326L1267.27 832.619L1268.16 832.824L1269.08 832.961L1270 833L1270.92 832.961L1271.84 832.824L1272.73 832.619L1273.61 832.326L1274.46 831.955L1275.26 831.496L1276.03 830.979L1276.74 830.393L1277.39 829.738L1277.98 829.025L1278.5 828.264L1278.95 827.453L1279.33 826.613L1279.62 825.734L1279.82 824.836L1279.96 823.918L1280 823V818L1279.96 817.082L1279.82 816.164L1279.62 815.256L1279.33 814.387L1278.95 813.537L1278.5 812.736L1277.98 811.975L1277.39 811.262L1276.74 810.607L1276.03 810.021L1275.26 809.494L1274.46 809.045L1273.61 808.674L1272.73 808.381L1271.84 808.166L1270.92 808.039L1270 808ZM1287.57 808C1287.23 807.991 1286.9 808.049 1286.59 808.17C1286.28 808.292 1286 808.475 1285.76 808.708C1285.52 808.941 1285.33 809.219 1285.2 809.527C1285.07 809.835 1285 810.166 1285 810.5V833H1290V818.01L1300.5 832.004C1300.81 832.425 1301.25 832.735 1301.75 832.892C1302.26 833.049 1302.79 833.044 1303.29 832.877C1303.79 832.711 1304.22 832.391 1304.53 831.965C1304.84 831.538 1305 831.025 1305 830.5V808H1300V822.99L1289.5 808.996C1289.28 808.695 1288.98 808.449 1288.65 808.277C1288.31 808.104 1287.94 808.01 1287.57 808ZM1270 813L1270.65 813.039L1271.3 813.166L1271.91 813.381L1272.5 813.674L1273.05 814.035L1273.53 814.465L1273.96 814.953L1274.33 815.5L1274.62 816.086L1274.83 816.701L1274.96 817.346L1275 818V823L1274.96 823.654L1274.83 824.289L1274.62 824.914L1274.33 825.5L1273.96 826.037L1273.53 826.535L1273.05 826.965L1272.5 827.326L1271.91 827.619L1271.3 827.824L1270.65 827.961L1270 828L1269.35 827.961L1268.7 827.824L1268.09 827.619L1267.5 827.326L1266.95 826.965L1266.46 826.535L1266.03 826.037L1265.67 825.5L1265.38 824.914L1265.17 824.289L1265.04 823.654L1265 823V818L1265.04 817.346L1265.17 816.701L1265.38 816.086L1265.67 815.5L1266.03 814.953L1266.46 814.465L1266.95 814.035L1267.5 813.674L1268.09 813.381L1268.7 813.166L1269.35 813.039L1270 813ZM1220 838V843H1290V838H1285H1225H1220Z" fill="#4ADE80"/>
</g>
<path d="M399.17 566.693C398.724 567.704 399.183 568.885 400.193 569.33L416.664 576.59C417.675 577.035 418.856 576.577 419.301 575.566C419.747 574.556 419.288 573.375 418.278 572.93L403.637 566.477L410.09 551.836C410.535 550.825 410.077 549.644 409.066 549.199C408.056 548.753 406.875 549.212 406.43 550.222L399.17 566.693ZM400.403 354.409C459.111 372.763 503.758 389.344 533.888 405.361C548.955 413.37 560.285 421.184 567.919 428.928C575.544 436.665 579.352 444.195 579.698 451.684C580.044 459.168 576.952 467.016 569.927 475.428C562.893 483.852 552.029 492.699 537.149 502.102C507.393 520.906 461.994 541.679 400.276 565.636L401.724 569.364C463.484 545.391 509.186 524.505 539.286 505.484C554.334 495.974 565.586 486.868 572.997 477.992C580.418 469.106 584.101 460.309 583.694 451.499C583.287 442.694 578.812 434.281 570.767 426.12C562.73 417.967 551.003 409.929 535.765 401.829C505.287 385.627 460.339 368.956 401.597 350.591L400.403 354.409Z" fill="white"/>
<path d="M628.315 445.909V475H624.906L609.054 452.159H608.77V475H605.247V445.909H608.656L624.565 468.807H624.849V445.909H628.315ZM641.33 475.511C639.948 475.511 638.693 475.251 637.566 474.73C636.439 474.2 635.544 473.438 634.881 472.443C634.218 471.439 633.887 470.227 633.887 468.807C633.887 467.557 634.133 466.544 634.626 465.767C635.118 464.981 635.776 464.366 636.6 463.92C637.424 463.475 638.333 463.144 639.327 462.926C640.331 462.699 641.34 462.519 642.353 462.386C643.679 462.216 644.753 462.088 645.577 462.003C646.411 461.908 647.017 461.752 647.395 461.534C647.784 461.316 647.978 460.937 647.978 460.398V460.284C647.978 458.883 647.594 457.794 646.827 457.017C646.07 456.241 644.919 455.852 643.376 455.852C641.775 455.852 640.52 456.203 639.611 456.903C638.702 457.604 638.063 458.352 637.694 459.148L634.512 458.011C635.08 456.686 635.838 455.653 636.785 454.915C637.741 454.167 638.783 453.646 639.91 453.352C641.046 453.049 642.163 452.898 643.262 452.898C643.963 452.898 644.768 452.983 645.677 453.153C646.595 453.314 647.481 453.651 648.333 454.162C649.195 454.673 649.91 455.445 650.478 456.477C651.046 457.509 651.33 458.892 651.33 460.625V475H647.978V472.045H647.807C647.58 472.519 647.201 473.026 646.671 473.565C646.141 474.105 645.435 474.564 644.555 474.943C643.674 475.322 642.599 475.511 641.33 475.511ZM641.841 472.5C643.167 472.5 644.285 472.24 645.194 471.719C646.112 471.198 646.804 470.526 647.268 469.702C647.741 468.878 647.978 468.011 647.978 467.102V464.034C647.836 464.205 647.523 464.361 647.04 464.503C646.567 464.635 646.018 464.754 645.393 464.858C644.777 464.953 644.176 465.038 643.589 465.114C643.011 465.18 642.542 465.237 642.182 465.284C641.311 465.398 640.497 465.582 639.739 465.838C638.991 466.084 638.385 466.458 637.921 466.96C637.466 467.453 637.239 468.125 637.239 468.977C637.239 470.142 637.67 471.023 638.532 471.619C639.403 472.206 640.506 472.5 641.841 472.5ZM674.508 453.182L666.44 475H663.031L654.963 453.182H658.599L664.622 470.568H664.849L670.872 453.182H674.508ZM678.933 475V453.182H682.285V475H678.933ZM680.638 449.545C679.984 449.545 679.421 449.323 678.947 448.878C678.483 448.433 678.251 447.898 678.251 447.273C678.251 446.648 678.483 446.113 678.947 445.668C679.421 445.223 679.984 445 680.638 445C681.291 445 681.85 445.223 682.314 445.668C682.787 446.113 683.024 446.648 683.024 447.273C683.024 447.898 682.787 448.433 682.314 448.878C681.85 449.323 681.291 449.545 680.638 449.545ZM697.232 483.636C695.613 483.636 694.221 483.428 693.056 483.011C691.891 482.604 690.921 482.064 690.144 481.392C689.377 480.729 688.766 480.019 688.312 479.261L690.982 477.386C691.285 477.784 691.669 478.239 692.133 478.75C692.597 479.271 693.231 479.721 694.036 480.099C694.85 480.488 695.916 480.682 697.232 480.682C698.993 480.682 700.447 480.256 701.593 479.403C702.739 478.551 703.312 477.216 703.312 475.398V470.966H703.028C702.781 471.364 702.431 471.856 701.976 472.443C701.531 473.021 700.887 473.537 700.045 473.991C699.211 474.437 698.084 474.659 696.664 474.659C694.903 474.659 693.321 474.242 691.92 473.409C690.528 472.576 689.424 471.364 688.61 469.773C687.805 468.182 687.403 466.25 687.403 463.977C687.403 461.742 687.796 459.796 688.582 458.139C689.368 456.473 690.461 455.185 691.863 454.276C693.264 453.357 694.884 452.898 696.721 452.898C698.141 452.898 699.268 453.134 700.101 453.608C700.944 454.072 701.588 454.602 702.033 455.199C702.488 455.786 702.838 456.269 703.084 456.648H703.425V453.182H706.664V475.625C706.664 477.5 706.238 479.025 705.386 480.199C704.543 481.383 703.406 482.249 701.976 482.798C700.556 483.357 698.975 483.636 697.232 483.636ZM697.118 471.648C698.463 471.648 699.6 471.34 700.528 470.724C701.456 470.109 702.161 469.223 702.644 468.068C703.127 466.913 703.368 465.53 703.368 463.92C703.368 462.348 703.132 460.961 702.658 459.759C702.185 458.556 701.484 457.614 700.556 456.932C699.628 456.25 698.482 455.909 697.118 455.909C695.698 455.909 694.514 456.269 693.567 456.989C692.63 457.708 691.924 458.674 691.451 459.886C690.987 461.098 690.755 462.443 690.755 463.92C690.755 465.436 690.992 466.776 691.465 467.94C691.948 469.096 692.658 470.005 693.596 470.668C694.543 471.321 695.717 471.648 697.118 471.648ZM719.221 475.511C717.838 475.511 716.583 475.251 715.457 474.73C714.33 474.2 713.435 473.438 712.772 472.443C712.109 471.439 711.778 470.227 711.778 468.807C711.778 467.557 712.024 466.544 712.516 465.767C713.009 464.981 713.667 464.366 714.491 463.92C715.315 463.475 716.224 463.144 717.218 462.926C718.222 462.699 719.23 462.519 720.243 462.386C721.569 462.216 722.644 462.088 723.468 462.003C724.301 461.908 724.907 461.752 725.286 461.534C725.674 461.316 725.868 460.937 725.868 460.398V460.284C725.868 458.883 725.485 457.794 724.718 457.017C723.96 456.241 722.81 455.852 721.266 455.852C719.666 455.852 718.411 456.203 717.502 456.903C716.593 457.604 715.954 458.352 715.584 459.148L712.403 458.011C712.971 456.686 713.728 455.653 714.675 454.915C715.632 454.167 716.673 453.646 717.8 453.352C718.937 453.049 720.054 452.898 721.153 452.898C721.853 452.898 722.658 452.983 723.567 453.153C724.486 453.314 725.371 453.651 726.224 454.162C727.085 454.673 727.8 455.445 728.368 456.477C728.937 457.509 729.221 458.892 729.221 460.625V475H725.868V472.045H725.698C725.471 472.519 725.092 473.026 724.562 473.565C724.031 474.105 723.326 474.564 722.445 474.943C721.565 475.322 720.49 475.511 719.221 475.511ZM719.732 472.5C721.058 472.5 722.175 472.24 723.084 471.719C724.003 471.198 724.694 470.526 725.158 469.702C725.632 468.878 725.868 468.011 725.868 467.102V464.034C725.726 464.205 725.414 464.361 724.931 464.503C724.457 464.635 723.908 464.754 723.283 464.858C722.668 464.953 722.066 465.038 721.479 465.114C720.902 465.18 720.433 465.237 720.073 465.284C719.202 465.398 718.387 465.582 717.63 465.838C716.882 466.084 716.276 466.458 715.812 466.96C715.357 467.453 715.13 468.125 715.13 468.977C715.13 470.142 715.561 471.023 716.422 471.619C717.294 472.206 718.397 472.5 719.732 472.5ZM744.828 453.182V456.023H733.521V453.182H744.828ZM736.817 447.955H740.169V468.75C740.169 469.697 740.306 470.407 740.581 470.881C740.865 471.345 741.225 471.657 741.66 471.818C742.105 471.97 742.574 472.045 743.067 472.045C743.436 472.045 743.739 472.027 743.976 471.989C744.212 471.941 744.402 471.903 744.544 471.875L745.226 474.886C744.998 474.972 744.681 475.057 744.274 475.142C743.867 475.237 743.351 475.284 742.726 475.284C741.779 475.284 740.851 475.08 739.942 474.673C739.042 474.266 738.294 473.646 737.697 472.812C737.11 471.979 736.817 470.928 736.817 469.659V447.955ZM749.871 475V453.182H753.223V475H749.871ZM751.575 449.545C750.922 449.545 750.358 449.323 749.885 448.878C749.421 448.433 749.189 447.898 749.189 447.273C749.189 446.648 749.421 446.113 749.885 445.668C750.358 445.223 750.922 445 751.575 445C752.229 445 752.787 445.223 753.251 445.668C753.725 446.113 753.962 446.648 753.962 447.273C753.962 447.898 753.725 448.433 753.251 448.878C752.787 449.323 752.229 449.545 751.575 449.545ZM768.226 475.455C766.257 475.455 764.529 474.986 763.042 474.048C761.565 473.111 760.409 471.799 759.576 470.114C758.752 468.428 758.34 466.458 758.34 464.205C758.34 461.932 758.752 459.948 759.576 458.253C760.409 456.558 761.565 455.241 763.042 454.304C764.529 453.366 766.257 452.898 768.226 452.898C770.196 452.898 771.92 453.366 773.397 454.304C774.884 455.241 776.039 456.558 776.863 458.253C777.696 459.948 778.113 461.932 778.113 464.205C778.113 466.458 777.696 468.428 776.863 470.114C776.039 471.799 774.884 473.111 773.397 474.048C771.92 474.986 770.196 475.455 768.226 475.455ZM768.226 472.443C769.723 472.443 770.954 472.06 771.92 471.293C772.886 470.526 773.6 469.517 774.065 468.267C774.529 467.017 774.761 465.663 774.761 464.205C774.761 462.746 774.529 461.387 774.065 460.128C773.6 458.868 772.886 457.85 771.92 457.074C770.954 456.297 769.723 455.909 768.226 455.909C766.73 455.909 765.499 456.297 764.533 457.074C763.567 457.85 762.852 458.868 762.388 460.128C761.924 461.387 761.692 462.746 761.692 464.205C761.692 465.663 761.924 467.017 762.388 468.267C762.852 469.517 763.567 470.526 764.533 471.293C765.499 472.06 766.73 472.443 768.226 472.443ZM786.582 461.875V475H783.23V453.182H786.469V456.591H786.753C787.264 455.483 788.041 454.593 789.082 453.92C790.124 453.239 791.469 452.898 793.116 452.898C794.594 452.898 795.886 453.201 796.994 453.807C798.102 454.403 798.964 455.312 799.579 456.534C800.195 457.746 800.503 459.28 800.503 461.136V475H797.15V461.364C797.15 459.65 796.705 458.314 795.815 457.358C794.925 456.392 793.703 455.909 792.15 455.909C791.08 455.909 790.124 456.141 789.281 456.605C788.448 457.069 787.79 457.746 787.307 458.636C786.824 459.527 786.582 460.606 786.582 461.875Z" fill="white"/>
<defs>
<clipPath id="clip0_15_3">
<rect width="101" height="100" fill="white" transform="translate(1092 182)"/>
</clipPath>
<clipPath id="clip1_15_3">
<rect width="100" height="100" fill="white" transform="translate(1225 182)"/>
</clipPath>
<clipPath id="clip2_15_3">
<rect width="100" height="100" fill="white" transform="translate(1205 743)"/>
</clipPath>
</defs>
</svg>
