<svg width="1757" height="920" viewBox="0 0 1757 920" fill="none" xmlns="http://www.w3.org/2000/svg">
<rect x="1400" width="357" height="920" rx="5" fill="#60A5FA"/>
<path d="M1518.31 454.276C1518.2 453.13 1517.71 452.24 1516.85 451.605C1515.98 450.971 1514.82 450.653 1513.34 450.653C1512.33 450.653 1511.49 450.795 1510.8 451.08C1510.1 451.354 1509.57 451.738 1509.2 452.23C1508.84 452.723 1508.66 453.281 1508.66 453.906C1508.65 454.427 1508.75 454.882 1508.99 455.27C1509.24 455.658 1509.57 455.994 1510 456.278C1510.43 456.553 1510.92 456.795 1511.48 457.003C1512.04 457.202 1512.63 457.372 1513.27 457.514L1515.88 458.139C1517.15 458.423 1518.31 458.802 1519.38 459.276C1520.44 459.749 1521.35 460.331 1522.13 461.023C1522.91 461.714 1523.51 462.528 1523.93 463.466C1524.37 464.403 1524.59 465.478 1524.6 466.69C1524.59 468.471 1524.14 470.014 1523.24 471.321C1522.35 472.618 1521.06 473.627 1519.38 474.347C1517.7 475.057 1515.68 475.412 1513.31 475.412C1510.96 475.412 1508.92 475.052 1507.17 474.332C1505.44 473.613 1504.09 472.547 1503.11 471.136C1502.14 469.716 1501.64 467.959 1501.59 465.866H1507.54C1507.61 466.842 1507.89 467.656 1508.38 468.31C1508.88 468.954 1509.55 469.441 1510.38 469.773C1511.23 470.095 1512.18 470.256 1513.24 470.256C1514.28 470.256 1515.18 470.104 1515.95 469.801C1516.73 469.498 1517.33 469.077 1517.76 468.537C1518.18 467.997 1518.39 467.377 1518.39 466.676C1518.39 466.023 1518.2 465.473 1517.81 465.028C1517.43 464.583 1516.88 464.205 1516.14 463.892C1515.41 463.58 1514.51 463.295 1513.45 463.04L1510.28 462.244C1507.83 461.648 1505.89 460.715 1504.47 459.446C1503.05 458.177 1502.35 456.468 1502.36 454.318C1502.35 452.557 1502.82 451.018 1503.76 449.702C1504.72 448.385 1506.03 447.358 1507.7 446.619C1509.37 445.881 1511.26 445.511 1513.38 445.511C1515.54 445.511 1517.42 445.881 1519.03 446.619C1520.65 447.358 1521.91 448.385 1522.81 449.702C1523.71 451.018 1524.18 452.543 1524.2 454.276H1518.31ZM1528.74 475V445.909H1548.34V450.98H1534.89V457.912H1547.33V462.983H1534.89V469.929H1548.4V475H1528.74ZM1553.23 475V445.909H1564.71C1566.91 445.909 1568.78 446.302 1570.33 447.088C1571.9 447.865 1573.08 448.968 1573.9 450.398C1574.72 451.818 1575.13 453.49 1575.13 455.412C1575.13 457.344 1574.72 459.006 1573.88 460.398C1573.05 461.78 1571.84 462.841 1570.26 463.58C1568.69 464.318 1566.79 464.688 1564.55 464.688H1556.87V459.744H1563.56C1564.73 459.744 1565.71 459.583 1566.48 459.261C1567.26 458.939 1567.84 458.456 1568.22 457.812C1568.61 457.169 1568.8 456.368 1568.8 455.412C1568.8 454.446 1568.61 453.632 1568.22 452.969C1567.84 452.306 1567.26 451.804 1566.47 451.463C1565.69 451.113 1564.71 450.938 1563.53 450.938H1559.38V475H1553.23ZM1568.94 461.761L1576.17 475H1569.38L1562.31 461.761H1568.94ZM1583.96 445.909L1590.99 468.011H1591.26L1598.3 445.909H1605.12L1595.09 475H1587.17L1577.12 445.909H1583.96ZM1608.62 475V445.909H1628.22V450.98H1614.77V457.912H1627.22V462.983H1614.77V469.929H1628.28V475H1608.62ZM1633.11 475V445.909H1644.59C1646.79 445.909 1648.66 446.302 1650.22 447.088C1651.78 447.865 1652.97 448.968 1653.78 450.398C1654.61 451.818 1655.02 453.49 1655.02 455.412C1655.02 457.344 1654.6 459.006 1653.77 460.398C1652.93 461.78 1651.73 462.841 1650.15 463.58C1648.57 464.318 1646.67 464.688 1644.44 464.688H1636.75V459.744H1643.44C1644.62 459.744 1645.59 459.583 1646.37 459.261C1647.14 458.939 1647.72 458.456 1648.1 457.812C1648.49 457.169 1648.68 456.368 1648.68 455.412C1648.68 454.446 1648.49 453.632 1648.1 452.969C1647.72 452.306 1647.14 451.804 1646.35 451.463C1645.58 451.113 1644.6 450.938 1643.41 450.938H1639.26V475H1633.11ZM1648.82 461.761L1656.05 475H1649.26L1642.19 461.761H1648.82Z" fill="#333333"/>
<rect width="345" height="920" rx="5" fill="white"/>
<path d="M128.196 456.094H121.974C121.861 455.289 121.629 454.574 121.278 453.949C120.928 453.314 120.478 452.775 119.929 452.33C119.38 451.884 118.745 451.544 118.026 451.307C117.315 451.07 116.544 450.952 115.71 450.952C114.205 450.952 112.893 451.326 111.776 452.074C110.658 452.812 109.792 453.892 109.176 455.312C108.561 456.723 108.253 458.437 108.253 460.455C108.253 462.528 108.561 464.271 109.176 465.682C109.801 467.093 110.672 468.158 111.79 468.878C112.907 469.598 114.2 469.957 115.668 469.957C116.491 469.957 117.254 469.848 117.955 469.631C118.665 469.413 119.295 469.096 119.844 468.679C120.393 468.253 120.848 467.737 121.207 467.131C121.577 466.525 121.832 465.833 121.974 465.057L128.196 465.085C128.035 466.42 127.633 467.708 126.989 468.949C126.354 470.18 125.497 471.283 124.418 472.259C123.348 473.224 122.069 473.991 120.582 474.56C119.105 475.118 117.434 475.398 115.568 475.398C112.973 475.398 110.653 474.811 108.608 473.636C106.572 472.462 104.962 470.762 103.778 468.537C102.604 466.312 102.017 463.617 102.017 460.455C102.017 457.282 102.614 454.583 103.807 452.358C105 450.133 106.619 448.437 108.665 447.273C110.71 446.098 113.011 445.511 115.568 445.511C117.254 445.511 118.816 445.748 120.256 446.222C121.705 446.695 122.988 447.386 124.105 448.295C125.223 449.195 126.132 450.298 126.832 451.605C127.543 452.912 127.997 454.408 128.196 456.094ZM132.607 475V445.909H138.757V469.929H151.229V475H132.607ZM161.452 445.909V475H155.302V445.909H161.452ZM166.513 475V445.909H186.115V450.98H172.663V457.912H185.107V462.983H172.663V469.929H186.172V475H166.513ZM215.337 445.909V475H210.025L197.369 456.69H197.156V475H191.005V445.909H196.403L208.96 464.205H209.215V445.909H215.337ZM219.311 450.98V445.909H243.203V450.98H234.297V475H228.217V450.98H219.311Z" fill="#333333"/>
<path d="M422.673 117.909V147H419.264L403.412 124.159H403.127V147H399.605V117.909H403.014L418.923 140.807H419.207V117.909H422.673ZM435.688 147.511C434.305 147.511 433.051 147.251 431.924 146.73C430.797 146.2 429.902 145.438 429.239 144.443C428.576 143.439 428.245 142.227 428.245 140.807C428.245 139.557 428.491 138.544 428.983 137.767C429.476 136.981 430.134 136.366 430.958 135.92C431.782 135.475 432.691 135.144 433.685 134.926C434.689 134.699 435.697 134.519 436.711 134.386C438.036 134.216 439.111 134.088 439.935 134.003C440.768 133.908 441.374 133.752 441.753 133.534C442.141 133.316 442.336 132.937 442.336 132.398V132.284C442.336 130.883 441.952 129.794 441.185 129.017C440.427 128.241 439.277 127.852 437.733 127.852C436.133 127.852 434.878 128.203 433.969 128.903C433.06 129.604 432.421 130.352 432.051 131.148L428.87 130.011C429.438 128.686 430.195 127.653 431.142 126.915C432.099 126.167 433.141 125.646 434.267 125.352C435.404 125.049 436.521 124.898 437.62 124.898C438.32 124.898 439.125 124.983 440.034 125.153C440.953 125.314 441.838 125.651 442.691 126.162C443.552 126.673 444.267 127.445 444.836 128.477C445.404 129.509 445.688 130.892 445.688 132.625V147H442.336V144.045H442.165C441.938 144.519 441.559 145.026 441.029 145.565C440.498 146.105 439.793 146.564 438.912 146.943C438.032 147.322 436.957 147.511 435.688 147.511ZM436.199 144.5C437.525 144.5 438.642 144.24 439.551 143.719C440.47 143.198 441.161 142.526 441.625 141.702C442.099 140.878 442.336 140.011 442.336 139.102V136.034C442.194 136.205 441.881 136.361 441.398 136.503C440.925 136.635 440.375 136.754 439.75 136.858C439.135 136.953 438.533 137.038 437.946 137.114C437.369 137.18 436.9 137.237 436.54 137.284C435.669 137.398 434.855 137.582 434.097 137.838C433.349 138.084 432.743 138.458 432.279 138.96C431.824 139.453 431.597 140.125 431.597 140.977C431.597 142.142 432.028 143.023 432.89 143.619C433.761 144.206 434.864 144.5 436.199 144.5ZM468.866 125.182L460.798 147H457.389L449.321 125.182H452.957L458.98 142.568H459.207L465.23 125.182H468.866ZM473.291 147V125.182H476.643V147H473.291ZM474.995 121.545C474.342 121.545 473.779 121.323 473.305 120.878C472.841 120.433 472.609 119.898 472.609 119.273C472.609 118.648 472.841 118.113 473.305 117.668C473.779 117.223 474.342 117 474.995 117C475.649 117 476.208 117.223 476.672 117.668C477.145 118.113 477.382 118.648 477.382 119.273C477.382 119.898 477.145 120.433 476.672 120.878C476.208 121.323 475.649 121.545 474.995 121.545ZM491.59 155.636C489.971 155.636 488.578 155.428 487.414 155.011C486.249 154.604 485.278 154.064 484.502 153.392C483.735 152.729 483.124 152.019 482.669 151.261L485.34 149.386C485.643 149.784 486.026 150.239 486.49 150.75C486.954 151.271 487.589 151.721 488.394 152.099C489.208 152.488 490.274 152.682 491.59 152.682C493.351 152.682 494.805 152.256 495.951 151.403C497.096 150.551 497.669 149.216 497.669 147.398V142.966H497.385C497.139 143.364 496.789 143.856 496.334 144.443C495.889 145.021 495.245 145.537 494.402 145.991C493.569 146.437 492.442 146.659 491.022 146.659C489.26 146.659 487.679 146.242 486.277 145.409C484.885 144.576 483.782 143.364 482.968 141.773C482.163 140.182 481.76 138.25 481.76 135.977C481.76 133.742 482.153 131.796 482.939 130.139C483.725 128.473 484.819 127.185 486.221 126.276C487.622 125.357 489.241 124.898 491.078 124.898C492.499 124.898 493.626 125.134 494.459 125.608C495.302 126.072 495.946 126.602 496.391 127.199C496.846 127.786 497.196 128.269 497.442 128.648H497.783V125.182H501.022V147.625C501.022 149.5 500.596 151.025 499.743 152.199C498.9 153.383 497.764 154.249 496.334 154.798C494.914 155.357 493.332 155.636 491.59 155.636ZM491.476 143.648C492.821 143.648 493.957 143.34 494.885 142.724C495.813 142.109 496.519 141.223 497.002 140.068C497.485 138.913 497.726 137.53 497.726 135.92C497.726 134.348 497.489 132.961 497.016 131.759C496.542 130.556 495.842 129.614 494.914 128.932C493.986 128.25 492.84 127.909 491.476 127.909C490.056 127.909 488.872 128.269 487.925 128.989C486.988 129.708 486.282 130.674 485.809 131.886C485.345 133.098 485.113 134.443 485.113 135.92C485.113 137.436 485.349 138.776 485.823 139.94C486.306 141.096 487.016 142.005 487.953 142.668C488.9 143.321 490.075 143.648 491.476 143.648ZM513.578 147.511C512.196 147.511 510.941 147.251 509.814 146.73C508.687 146.2 507.792 145.438 507.13 144.443C506.467 143.439 506.135 142.227 506.135 140.807C506.135 139.557 506.382 138.544 506.874 137.767C507.366 136.981 508.025 136.366 508.848 135.92C509.672 135.475 510.581 135.144 511.576 134.926C512.579 134.699 513.588 134.519 514.601 134.386C515.927 134.216 517.002 134.088 517.826 134.003C518.659 133.908 519.265 133.752 519.644 133.534C520.032 133.316 520.226 132.937 520.226 132.398V132.284C520.226 130.883 519.843 129.794 519.076 129.017C518.318 128.241 517.167 127.852 515.624 127.852C514.024 127.852 512.769 128.203 511.86 128.903C510.951 129.604 510.311 130.352 509.942 131.148L506.76 130.011C507.328 128.686 508.086 127.653 509.033 126.915C509.989 126.167 511.031 125.646 512.158 125.352C513.294 125.049 514.412 124.898 515.51 124.898C516.211 124.898 517.016 124.983 517.925 125.153C518.844 125.314 519.729 125.651 520.581 126.162C521.443 126.673 522.158 127.445 522.726 128.477C523.294 129.509 523.578 130.892 523.578 132.625V147H520.226V144.045H520.056C519.828 144.519 519.45 145.026 518.919 145.565C518.389 146.105 517.684 146.564 516.803 146.943C515.922 147.322 514.847 147.511 513.578 147.511ZM514.09 144.5C515.416 144.5 516.533 144.24 517.442 143.719C518.361 143.198 519.052 142.526 519.516 141.702C519.989 140.878 520.226 140.011 520.226 139.102V136.034C520.084 136.205 519.772 136.361 519.289 136.503C518.815 136.635 518.266 136.754 517.641 136.858C517.025 136.953 516.424 137.038 515.837 137.114C515.259 137.18 514.791 137.237 514.431 137.284C513.56 137.398 512.745 137.582 511.988 137.838C511.239 138.084 510.633 138.458 510.169 138.96C509.715 139.453 509.488 140.125 509.488 140.977C509.488 142.142 509.918 143.023 510.78 143.619C511.651 144.206 512.755 144.5 514.09 144.5ZM539.186 125.182V128.023H527.879V125.182H539.186ZM531.174 119.955H534.527V140.75C534.527 141.697 534.664 142.407 534.939 142.881C535.223 143.345 535.583 143.657 536.018 143.818C536.463 143.97 536.932 144.045 537.424 144.045C537.794 144.045 538.097 144.027 538.333 143.989C538.57 143.941 538.76 143.903 538.902 143.875L539.583 146.886C539.356 146.972 539.039 147.057 538.632 147.142C538.225 147.237 537.708 147.284 537.083 147.284C536.136 147.284 535.208 147.08 534.299 146.673C533.4 146.266 532.652 145.646 532.055 144.812C531.468 143.979 531.174 142.928 531.174 141.659V119.955ZM544.228 147V125.182H547.581V147H544.228ZM545.933 121.545C545.279 121.545 544.716 121.323 544.243 120.878C543.779 120.433 543.547 119.898 543.547 119.273C543.547 118.648 543.779 118.113 544.243 117.668C544.716 117.223 545.279 117 545.933 117C546.586 117 547.145 117.223 547.609 117.668C548.083 118.113 548.319 118.648 548.319 119.273C548.319 119.898 548.083 120.433 547.609 120.878C547.145 121.323 546.586 121.545 545.933 121.545ZM562.584 147.455C560.614 147.455 558.886 146.986 557.4 146.048C555.922 145.111 554.767 143.799 553.934 142.114C553.11 140.428 552.698 138.458 552.698 136.205C552.698 133.932 553.11 131.948 553.934 130.253C554.767 128.558 555.922 127.241 557.4 126.304C558.886 125.366 560.614 124.898 562.584 124.898C564.554 124.898 566.277 125.366 567.755 126.304C569.241 127.241 570.397 128.558 571.221 130.253C572.054 131.948 572.471 133.932 572.471 136.205C572.471 138.458 572.054 140.428 571.221 142.114C570.397 143.799 569.241 145.111 567.755 146.048C566.277 146.986 564.554 147.455 562.584 147.455ZM562.584 144.443C564.08 144.443 565.311 144.06 566.277 143.293C567.243 142.526 567.958 141.517 568.422 140.267C568.886 139.017 569.118 137.663 569.118 136.205C569.118 134.746 568.886 133.387 568.422 132.128C567.958 130.868 567.243 129.85 566.277 129.074C565.311 128.297 564.08 127.909 562.584 127.909C561.088 127.909 559.857 128.297 558.891 129.074C557.925 129.85 557.21 130.868 556.746 132.128C556.282 133.387 556.05 134.746 556.05 136.205C556.05 137.663 556.282 139.017 556.746 140.267C557.21 141.517 557.925 142.526 558.891 143.293C559.857 144.06 561.088 144.443 562.584 144.443ZM580.94 133.875V147H577.588V125.182H580.826V128.591H581.11C581.622 127.483 582.398 126.593 583.44 125.92C584.482 125.239 585.826 124.898 587.474 124.898C588.951 124.898 590.244 125.201 591.352 125.807C592.46 126.403 593.322 127.312 593.937 128.534C594.553 129.746 594.86 131.28 594.86 133.136V147H591.508V133.364C591.508 131.65 591.063 130.314 590.173 129.358C589.283 128.392 588.061 127.909 586.508 127.909C585.438 127.909 584.482 128.141 583.639 128.605C582.806 129.069 582.147 129.746 581.664 130.636C581.181 131.527 580.94 132.606 580.94 133.875Z" fill="white"/>
<path d="M1310.06 133.068C1310.65 132.482 1310.65 131.532 1310.06 130.947L1300.51 121.4C1299.93 120.815 1298.98 120.815 1298.39 121.4C1297.81 121.986 1297.81 122.936 1298.39 123.522L1306.88 132.007L1298.39 140.492C1297.81 141.078 1297.81 142.028 1298.39 142.614C1298.98 143.199 1299.93 143.199 1300.51 142.614L1310.06 133.068ZM659 133.493L1309 133.507L1309 130.507L659 130.493L659 133.493Z" fill="white"/>
<g clip-path="url(#clip0_15_4)">
<path d="M427.822 191.864C439.633 181.18 457.309 181.017 469.283 190.77L459.792 191.129C458.567 191.178 457.619 192.191 457.668 193.416C457.717 194.609 458.697 195.54 459.874 195.54C459.906 195.54 459.923 195.54 459.955 195.54L474.527 195.001C475.72 194.952 476.651 193.988 476.651 192.795V192.632C476.651 192.599 476.651 192.583 476.651 192.55V192.534L476.112 178.125C476.063 176.9 475.034 175.953 473.825 176.002C472.599 176.051 471.652 177.064 471.701 178.289L472.044 187.323C466.114 182.471 458.812 179.661 451.003 179.269C441.332 178.779 432.037 182.095 424.865 188.597C414.998 197.533 410.816 211.125 413.953 224.063C414.198 225.076 415.096 225.745 416.093 225.745C416.272 225.745 416.436 225.729 416.615 225.68C417.792 225.386 418.527 224.193 418.233 223.017C415.488 211.647 419.147 199.706 427.822 191.864Z" fill="#60A5FA"/>
<path d="M485.048 207.939C484.754 206.763 483.561 206.028 482.385 206.322C481.209 206.616 480.473 207.808 480.768 208.984C483.528 220.354 479.853 232.296 471.178 240.138C465.085 245.643 457.439 248.355 449.827 248.355C442.557 248.355 435.304 245.888 429.456 241.02L439.061 240.154C440.27 240.04 441.169 238.978 441.054 237.752C440.94 236.527 439.878 235.645 438.653 235.759L424.13 237.066C422.921 237.181 422.023 238.243 422.137 239.468L423.444 253.991C423.542 255.134 424.506 256 425.633 256C425.698 256 425.764 256 425.829 255.984C427.038 255.869 427.936 254.807 427.822 253.582L427.038 244.744C432.968 249.547 440.237 252.341 447.997 252.733C448.618 252.765 449.239 252.782 449.843 252.782C458.844 252.782 467.405 249.482 474.135 243.405C484.002 234.469 488.184 220.894 485.048 207.939Z" fill="#60A5FA"/>
</g>
<path d="M394.761 290V275.455H399.676C400.817 275.455 401.75 275.661 402.474 276.072C403.204 276.48 403.743 277.031 404.094 277.727C404.444 278.423 404.619 279.2 404.619 280.057C404.619 280.914 404.444 281.693 404.094 282.393C403.748 283.094 403.213 283.653 402.489 284.07C401.764 284.482 400.836 284.688 399.705 284.688H396.182V283.125H399.648C400.429 283.125 401.056 282.99 401.53 282.72C402.003 282.45 402.347 282.086 402.56 281.626C402.777 281.162 402.886 280.639 402.886 280.057C402.886 279.474 402.777 278.954 402.56 278.494C402.347 278.035 402.001 277.675 401.523 277.415C401.045 277.15 400.41 277.017 399.619 277.017H396.523V290H394.761ZM410.44 290.256C409.748 290.256 409.121 290.125 408.558 289.865C407.994 289.6 407.547 289.219 407.215 288.722C406.884 288.22 406.718 287.614 406.718 286.903C406.718 286.278 406.841 285.772 407.087 285.384C407.334 284.991 407.663 284.683 408.075 284.46C408.487 284.238 408.941 284.072 409.438 283.963C409.94 283.849 410.444 283.759 410.951 283.693C411.614 283.608 412.151 283.544 412.563 283.501C412.98 283.454 413.283 283.376 413.472 283.267C413.666 283.158 413.763 282.969 413.763 282.699V282.642C413.763 281.941 413.572 281.397 413.188 281.009C412.809 280.62 412.234 280.426 411.462 280.426C410.662 280.426 410.035 280.601 409.58 280.952C409.126 281.302 408.806 281.676 408.621 282.074L407.031 281.506C407.315 280.843 407.693 280.327 408.167 279.957C408.645 279.583 409.166 279.323 409.729 279.176C410.298 279.025 410.856 278.949 411.406 278.949C411.756 278.949 412.158 278.991 412.613 279.077C413.072 279.157 413.515 279.325 413.941 279.581C414.372 279.837 414.729 280.223 415.013 280.739C415.298 281.255 415.44 281.946 415.44 282.812V290H413.763V288.523H413.678C413.565 288.759 413.375 289.013 413.11 289.283C412.845 289.553 412.492 289.782 412.052 289.972C411.612 290.161 411.074 290.256 410.44 290.256ZM410.695 288.75C411.358 288.75 411.917 288.62 412.371 288.359C412.831 288.099 413.176 287.763 413.408 287.351C413.645 286.939 413.763 286.506 413.763 286.051V284.517C413.692 284.602 413.536 284.68 413.295 284.751C413.058 284.818 412.783 284.877 412.471 284.929C412.163 284.976 411.862 285.019 411.569 285.057C411.28 285.09 411.046 285.118 410.866 285.142C410.43 285.199 410.023 285.291 409.644 285.419C409.27 285.542 408.967 285.729 408.735 285.98C408.508 286.226 408.394 286.562 408.394 286.989C408.394 287.571 408.61 288.011 409.04 288.31C409.476 288.603 410.028 288.75 410.695 288.75ZM422.902 294.318C422.093 294.318 421.397 294.214 420.814 294.006C420.232 293.802 419.747 293.532 419.358 293.196C418.975 292.865 418.669 292.509 418.442 292.131L419.777 291.193C419.929 291.392 420.121 291.619 420.353 291.875C420.585 292.135 420.902 292.36 421.304 292.55C421.712 292.744 422.244 292.841 422.902 292.841C423.783 292.841 424.51 292.628 425.083 292.202C425.656 291.776 425.942 291.108 425.942 290.199V287.983H425.8C425.677 288.182 425.502 288.428 425.275 288.722C425.052 289.01 424.73 289.268 424.309 289.496C423.892 289.718 423.328 289.83 422.618 289.83C421.738 289.83 420.947 289.621 420.246 289.205C419.55 288.788 418.998 288.182 418.591 287.386C418.189 286.591 417.988 285.625 417.988 284.489C417.988 283.371 418.184 282.398 418.577 281.57C418.97 280.736 419.517 280.092 420.218 279.638C420.918 279.179 421.728 278.949 422.647 278.949C423.357 278.949 423.92 279.067 424.337 279.304C424.758 279.536 425.08 279.801 425.303 280.099C425.53 280.393 425.705 280.634 425.828 280.824H425.999V279.091H427.618V290.312C427.618 291.25 427.405 292.012 426.979 292.599C426.558 293.191 425.989 293.625 425.275 293.899C424.564 294.179 423.774 294.318 422.902 294.318ZM422.846 288.324C423.518 288.324 424.086 288.17 424.55 287.862C425.014 287.554 425.367 287.112 425.608 286.534C425.85 285.956 425.971 285.265 425.971 284.46C425.971 283.674 425.852 282.981 425.615 282.379C425.379 281.778 425.028 281.307 424.564 280.966C424.1 280.625 423.527 280.455 422.846 280.455C422.135 280.455 421.543 280.634 421.07 280.994C420.601 281.354 420.248 281.837 420.012 282.443C419.78 283.049 419.664 283.722 419.664 284.46C419.664 285.218 419.782 285.888 420.019 286.47C420.26 287.048 420.615 287.502 421.084 287.834C421.558 288.161 422.145 288.324 422.846 288.324ZM435.26 290.227C434.209 290.227 433.302 289.995 432.54 289.531C431.783 289.062 431.198 288.409 430.786 287.571C430.379 286.728 430.175 285.748 430.175 284.631C430.175 283.513 430.379 282.528 430.786 281.676C431.198 280.819 431.771 280.152 432.505 279.673C433.243 279.19 434.105 278.949 435.09 278.949C435.658 278.949 436.219 279.044 436.773 279.233C437.327 279.422 437.831 279.73 438.286 280.156C438.74 280.578 439.103 281.136 439.373 281.832C439.642 282.528 439.777 283.385 439.777 284.403V285.114H431.368V283.665H438.073C438.073 283.049 437.95 282.5 437.703 282.017C437.462 281.534 437.116 281.153 436.667 280.874C436.221 280.594 435.696 280.455 435.09 280.455C434.422 280.455 433.845 280.62 433.357 280.952C432.874 281.278 432.502 281.705 432.242 282.23C431.981 282.756 431.851 283.319 431.851 283.92V284.886C431.851 285.71 431.993 286.409 432.277 286.982C432.566 287.55 432.966 287.983 433.478 288.281C433.989 288.575 434.583 288.722 435.26 288.722C435.701 288.722 436.098 288.66 436.453 288.537C436.813 288.409 437.123 288.22 437.384 287.969C437.644 287.713 437.846 287.396 437.988 287.017L439.607 287.472C439.436 288.021 439.15 288.504 438.748 288.92C438.345 289.332 437.848 289.654 437.256 289.886C436.664 290.114 435.999 290.227 435.26 290.227ZM447.952 290V279.091H449.571V280.739H449.685C449.884 280.199 450.244 279.761 450.765 279.425C451.285 279.089 451.873 278.92 452.526 278.92C452.649 278.92 452.803 278.923 452.988 278.928C453.172 278.932 453.312 278.939 453.407 278.949V280.653C453.35 280.639 453.22 280.618 453.016 280.589C452.817 280.556 452.606 280.54 452.384 280.54C451.854 280.54 451.38 280.651 450.963 280.874C450.551 281.091 450.225 281.394 449.983 281.783C449.747 282.166 449.628 282.604 449.628 283.097V290H447.952ZM459.635 290.227C458.584 290.227 457.677 289.995 456.915 289.531C456.158 289.062 455.573 288.409 455.161 287.571C454.754 286.728 454.55 285.748 454.55 284.631C454.55 283.513 454.754 282.528 455.161 281.676C455.573 280.819 456.146 280.152 456.88 279.673C457.618 279.19 458.48 278.949 459.465 278.949C460.033 278.949 460.594 279.044 461.148 279.233C461.702 279.422 462.206 279.73 462.661 280.156C463.115 280.578 463.478 281.136 463.748 281.832C464.017 282.528 464.152 283.385 464.152 284.403V285.114H455.743V283.665H462.448C462.448 283.049 462.325 282.5 462.078 282.017C461.837 281.534 461.491 281.153 461.042 280.874C460.596 280.594 460.071 280.455 459.465 280.455C458.797 280.455 458.22 280.62 457.732 280.952C457.249 281.278 456.877 281.705 456.617 282.23C456.356 282.756 456.226 283.319 456.226 283.92V284.886C456.226 285.71 456.368 286.409 456.652 286.982C456.941 287.55 457.341 287.983 457.853 288.281C458.364 288.575 458.958 288.722 459.635 288.722C460.076 288.722 460.473 288.66 460.828 288.537C461.188 288.409 461.498 288.22 461.759 287.969C462.019 287.713 462.221 287.396 462.363 287.017L463.982 287.472C463.811 288.021 463.525 288.504 463.123 288.92C462.72 289.332 462.223 289.654 461.631 289.886C461.039 290.114 460.374 290.227 459.635 290.227ZM468.378 275.455V290H466.702V275.455H468.378ZM475.88 290.227C474.895 290.227 474.031 289.993 473.288 289.524C472.549 289.055 471.971 288.4 471.555 287.557C471.143 286.714 470.937 285.729 470.937 284.602C470.937 283.466 471.143 282.474 471.555 281.626C471.971 280.779 472.549 280.121 473.288 279.652C474.031 279.183 474.895 278.949 475.88 278.949C476.865 278.949 477.727 279.183 478.465 279.652C479.209 280.121 479.786 280.779 480.198 281.626C480.615 282.474 480.823 283.466 480.823 284.602C480.823 285.729 480.615 286.714 480.198 287.557C479.786 288.4 479.209 289.055 478.465 289.524C477.727 289.993 476.865 290.227 475.88 290.227ZM475.88 288.722C476.628 288.722 477.244 288.53 477.727 288.146C478.21 287.763 478.567 287.259 478.799 286.634C479.031 286.009 479.147 285.331 479.147 284.602C479.147 283.873 479.031 283.194 478.799 282.564C478.567 281.934 478.21 281.425 477.727 281.037C477.244 280.649 476.628 280.455 475.88 280.455C475.132 280.455 474.516 280.649 474.033 281.037C473.55 281.425 473.193 281.934 472.961 282.564C472.729 283.194 472.613 283.873 472.613 284.602C472.613 285.331 472.729 286.009 472.961 286.634C473.193 287.259 473.55 287.763 474.033 288.146C474.516 288.53 475.132 288.722 475.88 288.722ZM486.592 290.256C485.901 290.256 485.273 290.125 484.71 289.865C484.146 289.6 483.699 289.219 483.368 288.722C483.036 288.22 482.87 287.614 482.87 286.903C482.87 286.278 482.993 285.772 483.24 285.384C483.486 284.991 483.815 284.683 484.227 284.46C484.639 284.238 485.093 284.072 485.591 283.963C486.092 283.849 486.597 283.759 487.103 283.693C487.766 283.608 488.304 283.544 488.716 283.501C489.132 283.454 489.435 283.376 489.625 283.267C489.819 283.158 489.916 282.969 489.916 282.699V282.642C489.916 281.941 489.724 281.397 489.341 281.009C488.962 280.62 488.386 280.426 487.615 280.426C486.815 280.426 486.187 280.601 485.733 280.952C485.278 281.302 484.958 281.676 484.774 282.074L483.183 281.506C483.467 280.843 483.846 280.327 484.319 279.957C484.797 279.583 485.318 279.323 485.882 279.176C486.45 279.025 487.009 278.949 487.558 278.949C487.908 278.949 488.311 278.991 488.765 279.077C489.225 279.157 489.667 279.325 490.093 279.581C490.524 279.837 490.882 280.223 491.166 280.739C491.45 281.255 491.592 281.946 491.592 282.812V290H489.916V288.523H489.831C489.717 288.759 489.528 289.013 489.262 289.283C488.997 289.553 488.645 289.782 488.204 289.972C487.764 290.161 487.226 290.256 486.592 290.256ZM486.848 288.75C487.511 288.75 488.069 288.62 488.524 288.359C488.983 288.099 489.329 287.763 489.561 287.351C489.797 286.939 489.916 286.506 489.916 286.051V284.517C489.845 284.602 489.689 284.68 489.447 284.751C489.21 284.818 488.936 284.877 488.623 284.929C488.315 284.976 488.015 285.019 487.721 285.057C487.432 285.09 487.198 285.118 487.018 285.142C486.583 285.199 486.175 285.291 485.797 285.419C485.422 285.542 485.119 285.729 484.887 285.98C484.66 286.226 484.547 286.562 484.547 286.989C484.547 287.571 484.762 288.011 485.193 288.31C485.628 288.603 486.18 288.75 486.848 288.75ZM498.771 290.227C497.862 290.227 497.059 289.998 496.363 289.538C495.667 289.074 495.122 288.421 494.729 287.578C494.336 286.731 494.14 285.729 494.14 284.574C494.14 283.428 494.336 282.434 494.729 281.591C495.122 280.748 495.669 280.097 496.37 279.638C497.071 279.179 497.88 278.949 498.799 278.949C499.509 278.949 500.07 279.067 500.482 279.304C500.899 279.536 501.216 279.801 501.434 280.099C501.656 280.393 501.829 280.634 501.952 280.824H502.094V275.455H503.771V290H502.151V288.324H501.952C501.829 288.523 501.654 288.774 501.427 289.077C501.2 289.375 500.875 289.643 500.454 289.879C500.032 290.111 499.471 290.227 498.771 290.227ZM498.998 288.722C499.67 288.722 500.238 288.546 500.702 288.196C501.166 287.841 501.519 287.351 501.761 286.726C502.002 286.096 502.123 285.369 502.123 284.545C502.123 283.731 502.004 283.018 501.768 282.408C501.531 281.792 501.181 281.314 500.717 280.973C500.253 280.627 499.68 280.455 498.998 280.455C498.288 280.455 497.696 280.637 497.222 281.001C496.754 281.361 496.401 281.851 496.164 282.472C495.932 283.087 495.816 283.778 495.816 284.545C495.816 285.322 495.934 286.027 496.171 286.662C496.413 287.292 496.768 287.794 497.237 288.168C497.71 288.537 498.297 288.722 498.998 288.722Z" fill="#60A5FA"/>
<path d="M535.945 232.558C535.356 233.141 535.351 234.09 535.933 234.68L545.425 244.28C546.007 244.869 546.957 244.874 547.546 244.292C548.135 243.71 548.14 242.76 547.558 242.171L539.121 233.637L547.655 225.2C548.244 224.618 548.249 223.668 547.667 223.079C547.085 222.49 546.135 222.485 545.546 223.067L535.945 232.558ZM536.991 235.125L1193.99 238.875L1194.01 235.875L537.009 232.125L536.991 235.125Z" fill="#60A5FA"/>
<g clip-path="url(#clip1_15_4)">
<path d="M1269.19 243.833C1268.03 243.833 1267.08 244.767 1267.08 245.917V252.167H1258.67V245.917C1258.67 244.767 1257.72 243.833 1256.56 243.833C1255.4 243.833 1254.46 244.767 1254.46 245.917V262.583C1254.46 263.733 1255.4 264.667 1256.56 264.667C1257.72 264.667 1258.67 263.733 1258.67 262.583V256.333H1267.08V262.583C1267.08 263.733 1268.03 264.667 1269.19 264.667C1270.35 264.667 1271.29 263.733 1271.29 262.583V245.917C1271.29 244.767 1270.35 243.833 1269.19 243.833Z" fill="#60A5FA"/>
<path d="M1286.02 243.833H1277.6C1276.44 243.833 1275.5 244.767 1275.5 245.917C1275.5 247.067 1276.44 248 1277.6 248H1279.71V262.583C1279.71 263.733 1280.65 264.667 1281.81 264.667C1282.97 264.667 1283.92 263.733 1283.92 262.583V248H1286.02C1287.18 248 1288.13 247.067 1288.13 245.917C1288.13 244.767 1287.18 243.833 1286.02 243.833Z" fill="#60A5FA"/>
<path d="M1307.87 243.992C1307.08 243.663 1306.18 243.846 1305.57 244.442L1300.75 249.217L1295.93 244.442C1295.33 243.85 1294.42 243.667 1293.63 243.992C1292.85 244.313 1292.33 245.075 1292.33 245.917V262.583C1292.33 263.733 1293.28 264.667 1294.44 264.667C1295.6 264.667 1296.54 263.733 1296.54 262.583V250.946L1299.26 253.637C1300.09 254.45 1301.42 254.45 1302.24 253.637L1304.96 250.946V262.583C1304.96 263.733 1305.9 264.667 1307.06 264.667C1308.22 264.667 1309.17 263.733 1309.17 262.583V245.917C1309.17 245.075 1308.65 244.313 1307.87 243.992Z" fill="#60A5FA"/>
<path d="M1323.9 260.5H1317.58V245.917C1317.58 244.767 1316.64 243.833 1315.48 243.833C1314.32 243.833 1313.38 244.767 1313.38 245.917V262.583C1313.38 263.733 1314.32 264.667 1315.48 264.667H1323.9C1325.06 264.667 1326 263.733 1326 262.583C1326 261.433 1325.06 260.5 1323.9 260.5Z" fill="#60A5FA"/>
<path d="M1298.65 239.667C1299.81 239.667 1300.75 238.733 1300.75 237.583V187.583C1300.75 186.433 1299.81 185.5 1298.65 185.5H1252.35C1252.07 185.5 1251.79 185.558 1251.54 185.663C1251.46 185.696 1251.4 185.758 1251.33 185.804C1251.17 185.896 1251 185.979 1250.86 186.108L1225.61 211.108C1225.52 211.204 1225.46 211.333 1225.39 211.446C1225.31 211.558 1225.21 211.654 1225.16 211.779C1225.06 212.033 1225 212.304 1225 212.583V283.417C1225 284.567 1225.94 285.5 1227.1 285.5H1298.65C1299.81 285.5 1300.75 284.567 1300.75 283.417V270.917C1300.75 269.767 1299.81 268.833 1298.65 268.833C1297.48 268.833 1296.54 269.767 1296.54 270.917V281.333H1229.21V214.667H1252.35C1253.52 214.667 1254.46 213.733 1254.46 212.583V189.667H1296.54V237.583C1296.54 238.733 1297.48 239.667 1298.65 239.667ZM1250.25 210.5H1232.18L1250.25 192.613V210.5Z" fill="#60A5FA"/>
</g>
<path d="M381.523 636V606.909H398.966V610.034H385.045V619.864H397.659V622.989H385.045V636H381.523ZM411.807 636.455C409.837 636.455 408.109 635.986 406.622 635.048C405.145 634.111 403.99 632.799 403.156 631.114C402.332 629.428 401.92 627.458 401.92 625.205C401.92 622.932 402.332 620.948 403.156 619.253C403.99 617.558 405.145 616.241 406.622 615.304C408.109 614.366 409.837 613.898 411.807 613.898C413.777 613.898 415.5 614.366 416.977 615.304C418.464 616.241 419.619 617.558 420.443 619.253C421.277 620.948 421.693 622.932 421.693 625.205C421.693 627.458 421.277 629.428 420.443 631.114C419.619 632.799 418.464 634.111 416.977 635.048C415.5 635.986 413.777 636.455 411.807 636.455ZM411.807 633.443C413.303 633.443 414.534 633.06 415.5 632.293C416.466 631.526 417.181 630.517 417.645 629.267C418.109 628.017 418.341 626.663 418.341 625.205C418.341 623.746 418.109 622.387 417.645 621.128C417.181 619.868 416.466 618.85 415.5 618.074C414.534 617.297 413.303 616.909 411.807 616.909C410.311 616.909 409.08 617.297 408.114 618.074C407.148 618.85 406.433 619.868 405.969 621.128C405.505 622.387 405.273 623.746 405.273 625.205C405.273 626.663 405.505 628.017 405.969 629.267C406.433 630.517 407.148 631.526 408.114 632.293C409.08 633.06 410.311 633.443 411.807 633.443ZM426.81 636V614.182H430.049V617.477H430.276C430.674 616.398 431.394 615.522 432.435 614.849C433.477 614.177 434.651 613.841 435.958 613.841C436.204 613.841 436.512 613.846 436.881 613.855C437.251 613.865 437.53 613.879 437.719 613.898V617.307C437.606 617.278 437.345 617.236 436.938 617.179C436.54 617.113 436.119 617.08 435.674 617.08C434.613 617.08 433.666 617.302 432.833 617.747C432.009 618.183 431.356 618.789 430.873 619.565C430.399 620.332 430.163 621.208 430.163 622.193V636H426.81ZM441.693 636V614.182H444.932V617.591H445.216C445.67 616.426 446.404 615.522 447.418 614.878C448.431 614.224 449.648 613.898 451.068 613.898C452.508 613.898 453.705 614.224 454.662 614.878C455.628 615.522 456.381 616.426 456.92 617.591H457.148C457.706 616.464 458.545 615.569 459.662 614.906C460.779 614.234 462.119 613.898 463.682 613.898C465.633 613.898 467.228 614.509 468.469 615.73C469.709 616.942 470.33 618.831 470.33 621.398V636H466.977V621.398C466.977 619.788 466.537 618.637 465.656 617.946C464.776 617.255 463.739 616.909 462.545 616.909C461.011 616.909 459.823 617.373 458.98 618.301C458.137 619.22 457.716 620.384 457.716 621.795V636H454.307V621.057C454.307 619.816 453.904 618.817 453.099 618.06C452.295 617.293 451.258 616.909 449.989 616.909C449.117 616.909 448.303 617.141 447.545 617.605C446.797 618.069 446.191 618.713 445.727 619.537C445.273 620.351 445.045 621.294 445.045 622.364V636H441.693ZM488.163 636V606.909H497.993C500.275 606.909 502.141 607.321 503.589 608.145C505.048 608.959 506.127 610.062 506.828 611.455C507.529 612.847 507.879 614.4 507.879 616.114C507.879 617.828 507.529 619.385 506.828 620.787C506.137 622.188 505.067 623.306 503.618 624.139C502.169 624.963 500.313 625.375 498.05 625.375H491.004V622.25H497.936C499.499 622.25 500.753 621.98 501.7 621.44C502.647 620.901 503.334 620.171 503.76 619.253C504.196 618.325 504.413 617.278 504.413 616.114C504.413 614.949 504.196 613.907 503.76 612.989C503.334 612.07 502.643 611.35 501.686 610.83C500.73 610.299 499.461 610.034 497.879 610.034H491.686V636H488.163ZM538.099 621.455C538.099 624.523 537.545 627.174 536.438 629.409C535.33 631.644 533.81 633.367 531.878 634.58C529.946 635.792 527.74 636.398 525.259 636.398C522.777 636.398 520.571 635.792 518.639 634.58C516.707 633.367 515.188 631.644 514.08 629.409C512.972 627.174 512.418 624.523 512.418 621.455C512.418 618.386 512.972 615.735 514.08 613.5C515.188 611.265 516.707 609.542 518.639 608.33C520.571 607.117 522.777 606.511 525.259 606.511C527.74 606.511 529.946 607.117 531.878 608.33C533.81 609.542 535.33 611.265 536.438 613.5C537.545 615.735 538.099 618.386 538.099 621.455ZM534.69 621.455C534.69 618.936 534.269 616.81 533.426 615.077C532.593 613.344 531.461 612.032 530.031 611.142C528.611 610.252 527.02 609.807 525.259 609.807C523.497 609.807 521.902 610.252 520.472 611.142C519.051 612.032 517.92 613.344 517.077 615.077C516.243 616.81 515.827 618.936 515.827 621.455C515.827 623.973 516.243 626.099 517.077 627.832C517.92 629.565 519.051 630.877 520.472 631.767C521.902 632.657 523.497 633.102 525.259 633.102C527.02 633.102 528.611 632.657 530.031 631.767C531.461 630.877 532.593 629.565 533.426 627.832C534.269 626.099 534.69 623.973 534.69 621.455ZM559.932 614.182C559.761 612.742 559.07 611.625 557.858 610.83C556.646 610.034 555.159 609.636 553.398 609.636C552.11 609.636 550.983 609.845 550.017 610.261C549.061 610.678 548.313 611.251 547.773 611.98C547.242 612.709 546.977 613.538 546.977 614.466C546.977 615.242 547.162 615.91 547.531 616.469C547.91 617.018 548.393 617.477 548.98 617.847C549.567 618.206 550.183 618.505 550.827 618.741C551.471 618.969 552.062 619.153 552.602 619.295L555.557 620.091C556.314 620.29 557.157 620.564 558.085 620.915C559.023 621.265 559.918 621.743 560.77 622.349C561.632 622.946 562.342 623.713 562.901 624.651C563.459 625.588 563.739 626.739 563.739 628.102C563.739 629.674 563.327 631.095 562.503 632.364C561.688 633.633 560.495 634.641 558.923 635.389C557.361 636.137 555.462 636.511 553.227 636.511C551.144 636.511 549.34 636.175 547.815 635.503C546.3 634.83 545.107 633.893 544.236 632.69C543.374 631.488 542.886 630.091 542.773 628.5H546.409C546.504 629.598 546.873 630.508 547.517 631.227C548.17 631.937 548.994 632.468 549.989 632.818C550.992 633.159 552.072 633.33 553.227 633.33C554.572 633.33 555.779 633.112 556.849 632.676C557.92 632.231 558.767 631.616 559.392 630.83C560.017 630.034 560.33 629.106 560.33 628.045C560.33 627.08 560.06 626.294 559.52 625.688C558.98 625.081 558.27 624.589 557.389 624.21C556.509 623.831 555.557 623.5 554.534 623.216L550.955 622.193C548.682 621.54 546.883 620.607 545.557 619.395C544.231 618.183 543.568 616.597 543.568 614.636C543.568 613.008 544.009 611.587 544.889 610.375C545.779 609.153 546.973 608.206 548.469 607.534C549.974 606.852 551.655 606.511 553.511 606.511C555.386 606.511 557.053 606.848 558.511 607.52C559.97 608.183 561.125 609.092 561.977 610.247C562.839 611.402 563.294 612.714 563.341 614.182H559.932ZM567.94 610.034V606.909H589.758V610.034H580.61V636H577.087V610.034H567.94Z" fill="white"/>
<path d="M1294.05 624.597C1294.64 624.016 1294.65 623.066 1294.07 622.476L1284.6 612.857C1284.01 612.267 1283.06 612.26 1282.47 612.841C1281.88 613.422 1281.88 614.372 1282.46 614.962L1290.88 623.512L1282.33 631.932C1281.74 632.514 1281.73 633.463 1282.31 634.054C1282.89 634.644 1283.84 634.651 1284.43 634.07L1294.05 624.597ZM632.989 619.971L1292.99 625.029L1293.01 622.029L633.011 616.971L632.989 619.971Z" fill="white"/>
<g clip-path="url(#clip2_15_4)">
<path d="M412.822 680.864C424.633 670.18 442.309 670.017 454.283 679.77L444.792 680.129C443.567 680.178 442.619 681.191 442.668 682.416C442.717 683.609 443.697 684.54 444.874 684.54C444.906 684.54 444.923 684.54 444.955 684.54L459.527 684.001C460.72 683.952 461.651 682.988 461.651 681.795V681.632C461.651 681.599 461.651 681.583 461.651 681.55V681.534L461.112 667.126C461.063 665.9 460.034 664.953 458.825 665.002C457.599 665.051 456.652 666.064 456.701 667.289L457.044 676.323C451.114 671.471 443.812 668.661 436.003 668.269C426.332 667.779 417.037 671.095 409.865 677.597C399.998 686.533 395.816 700.125 398.953 713.063C399.198 714.076 400.096 714.745 401.093 714.745C401.272 714.745 401.436 714.729 401.615 714.68C402.792 714.386 403.527 713.194 403.233 712.017C400.488 700.647 404.147 688.706 412.822 680.864Z" fill="#60A5FA"/>
<path d="M470.048 696.939C469.754 695.763 468.561 695.028 467.385 695.322C466.209 695.616 465.473 696.808 465.768 697.985C468.528 709.355 464.853 721.296 456.178 729.138C450.085 734.643 442.439 737.355 434.827 737.355C427.557 737.355 420.304 734.888 414.456 730.02L424.061 729.154C425.27 729.04 426.169 727.978 426.054 726.753C425.94 725.527 424.878 724.645 423.653 724.76L409.13 726.066C407.921 726.181 407.023 727.243 407.137 728.468L408.444 742.991C408.542 744.134 409.506 745 410.633 745C410.698 745 410.764 745 410.829 744.984C412.038 744.869 412.936 743.807 412.822 742.582L412.038 733.744C417.968 738.547 425.237 741.341 432.997 741.733C433.618 741.765 434.239 741.782 434.843 741.782C443.844 741.782 452.405 738.482 459.135 732.405C469.002 723.469 473.184 709.894 470.048 696.939Z" fill="#60A5FA"/>
</g>
<path d="M379.761 779V764.455H384.676C385.817 764.455 386.75 764.661 387.474 765.072C388.204 765.48 388.743 766.031 389.094 766.727C389.444 767.423 389.619 768.2 389.619 769.057C389.619 769.914 389.444 770.693 389.094 771.393C388.748 772.094 388.213 772.653 387.489 773.07C386.764 773.482 385.836 773.688 384.705 773.688H381.182V772.125H384.648C385.429 772.125 386.056 771.99 386.53 771.72C387.003 771.45 387.347 771.086 387.56 770.626C387.777 770.162 387.886 769.639 387.886 769.057C387.886 768.474 387.777 767.954 387.56 767.494C387.347 767.035 387.001 766.675 386.523 766.415C386.045 766.15 385.41 766.017 384.619 766.017H381.523V779H379.761ZM395.44 779.256C394.748 779.256 394.121 779.125 393.558 778.865C392.994 778.6 392.547 778.219 392.215 777.722C391.884 777.22 391.718 776.614 391.718 775.903C391.718 775.278 391.841 774.772 392.087 774.384C392.334 773.991 392.663 773.683 393.075 773.46C393.487 773.238 393.941 773.072 394.438 772.963C394.94 772.849 395.444 772.759 395.951 772.693C396.614 772.608 397.151 772.544 397.563 772.501C397.98 772.454 398.283 772.376 398.472 772.267C398.666 772.158 398.763 771.969 398.763 771.699V771.642C398.763 770.941 398.572 770.397 398.188 770.009C397.809 769.62 397.234 769.426 396.462 769.426C395.662 769.426 395.035 769.601 394.58 769.952C394.126 770.302 393.806 770.676 393.621 771.074L392.031 770.506C392.315 769.843 392.693 769.327 393.167 768.957C393.645 768.583 394.166 768.323 394.729 768.176C395.298 768.025 395.856 767.949 396.406 767.949C396.756 767.949 397.158 767.991 397.613 768.077C398.072 768.157 398.515 768.325 398.941 768.581C399.372 768.837 399.729 769.223 400.013 769.739C400.298 770.255 400.44 770.946 400.44 771.812V779H398.763V777.523H398.678C398.565 777.759 398.375 778.013 398.11 778.283C397.845 778.553 397.492 778.782 397.052 778.972C396.612 779.161 396.074 779.256 395.44 779.256ZM395.695 777.75C396.358 777.75 396.917 777.62 397.371 777.359C397.831 777.099 398.176 776.763 398.408 776.351C398.645 775.939 398.763 775.506 398.763 775.051V773.517C398.692 773.602 398.536 773.68 398.295 773.751C398.058 773.818 397.783 773.877 397.471 773.929C397.163 773.976 396.862 774.019 396.569 774.057C396.28 774.09 396.046 774.118 395.866 774.142C395.43 774.199 395.023 774.291 394.644 774.419C394.27 774.542 393.967 774.729 393.735 774.98C393.508 775.226 393.394 775.562 393.394 775.989C393.394 776.571 393.61 777.011 394.04 777.31C394.476 777.603 395.028 777.75 395.695 777.75ZM407.902 783.318C407.093 783.318 406.397 783.214 405.814 783.006C405.232 782.802 404.747 782.532 404.358 782.196C403.975 781.865 403.669 781.509 403.442 781.131L404.777 780.193C404.929 780.392 405.121 780.619 405.353 780.875C405.585 781.135 405.902 781.36 406.304 781.55C406.712 781.744 407.244 781.841 407.902 781.841C408.783 781.841 409.51 781.628 410.083 781.202C410.656 780.776 410.942 780.108 410.942 779.199V776.983H410.8C410.677 777.182 410.502 777.428 410.275 777.722C410.052 778.01 409.73 778.268 409.309 778.496C408.892 778.718 408.328 778.83 407.618 778.83C406.738 778.83 405.947 778.621 405.246 778.205C404.55 777.788 403.998 777.182 403.591 776.386C403.189 775.591 402.988 774.625 402.988 773.489C402.988 772.371 403.184 771.398 403.577 770.57C403.97 769.736 404.517 769.092 405.218 768.638C405.918 768.179 406.728 767.949 407.647 767.949C408.357 767.949 408.92 768.067 409.337 768.304C409.758 768.536 410.08 768.801 410.303 769.099C410.53 769.393 410.705 769.634 410.828 769.824H410.999V768.091H412.618V779.312C412.618 780.25 412.405 781.012 411.979 781.599C411.558 782.191 410.989 782.625 410.275 782.899C409.564 783.179 408.774 783.318 407.902 783.318ZM407.846 777.324C408.518 777.324 409.086 777.17 409.55 776.862C410.014 776.554 410.367 776.112 410.608 775.534C410.85 774.956 410.971 774.265 410.971 773.46C410.971 772.674 410.852 771.981 410.615 771.379C410.379 770.778 410.028 770.307 409.564 769.966C409.1 769.625 408.527 769.455 407.846 769.455C407.135 769.455 406.543 769.634 406.07 769.994C405.601 770.354 405.248 770.837 405.012 771.443C404.78 772.049 404.664 772.722 404.664 773.46C404.664 774.218 404.782 774.888 405.019 775.47C405.26 776.048 405.615 776.502 406.084 776.834C406.558 777.161 407.145 777.324 407.846 777.324ZM420.26 779.227C419.209 779.227 418.302 778.995 417.54 778.531C416.783 778.062 416.198 777.409 415.786 776.571C415.379 775.728 415.175 774.748 415.175 773.631C415.175 772.513 415.379 771.528 415.786 770.676C416.198 769.819 416.771 769.152 417.505 768.673C418.243 768.19 419.105 767.949 420.09 767.949C420.658 767.949 421.219 768.044 421.773 768.233C422.327 768.422 422.831 768.73 423.286 769.156C423.74 769.578 424.103 770.136 424.373 770.832C424.642 771.528 424.777 772.385 424.777 773.403V774.114H416.368V772.665H423.073C423.073 772.049 422.95 771.5 422.703 771.017C422.462 770.534 422.116 770.153 421.667 769.874C421.221 769.594 420.696 769.455 420.09 769.455C419.422 769.455 418.845 769.62 418.357 769.952C417.874 770.278 417.502 770.705 417.242 771.23C416.981 771.756 416.851 772.319 416.851 772.92V773.886C416.851 774.71 416.993 775.409 417.277 775.982C417.566 776.55 417.966 776.983 418.478 777.281C418.989 777.575 419.583 777.722 420.26 777.722C420.701 777.722 421.098 777.66 421.453 777.537C421.813 777.409 422.123 777.22 422.384 776.969C422.644 776.713 422.846 776.396 422.988 776.017L424.607 776.472C424.436 777.021 424.15 777.504 423.748 777.92C423.345 778.332 422.848 778.654 422.256 778.886C421.664 779.114 420.999 779.227 420.26 779.227ZM432.952 779V768.091H434.571V769.739H434.685C434.884 769.199 435.244 768.761 435.765 768.425C436.285 768.089 436.873 767.92 437.526 767.92C437.649 767.92 437.803 767.923 437.988 767.928C438.172 767.932 438.312 767.939 438.407 767.949V769.653C438.35 769.639 438.22 769.618 438.016 769.589C437.817 769.556 437.606 769.54 437.384 769.54C436.854 769.54 436.38 769.651 435.963 769.874C435.551 770.091 435.225 770.394 434.983 770.783C434.747 771.166 434.628 771.604 434.628 772.097V779H432.952ZM444.635 779.227C443.584 779.227 442.677 778.995 441.915 778.531C441.158 778.062 440.573 777.409 440.161 776.571C439.754 775.728 439.55 774.748 439.55 773.631C439.55 772.513 439.754 771.528 440.161 770.676C440.573 769.819 441.146 769.152 441.88 768.673C442.618 768.19 443.48 767.949 444.465 767.949C445.033 767.949 445.594 768.044 446.148 768.233C446.702 768.422 447.206 768.73 447.661 769.156C448.115 769.578 448.478 770.136 448.748 770.832C449.017 771.528 449.152 772.385 449.152 773.403V774.114H440.743V772.665H447.448C447.448 772.049 447.325 771.5 447.078 771.017C446.837 770.534 446.491 770.153 446.042 769.874C445.596 769.594 445.071 769.455 444.465 769.455C443.797 769.455 443.22 769.62 442.732 769.952C442.249 770.278 441.877 770.705 441.617 771.23C441.356 771.756 441.226 772.319 441.226 772.92V773.886C441.226 774.71 441.368 775.409 441.652 775.982C441.941 776.55 442.341 776.983 442.853 777.281C443.364 777.575 443.958 777.722 444.635 777.722C445.076 777.722 445.473 777.66 445.828 777.537C446.188 777.409 446.498 777.22 446.759 776.969C447.019 776.713 447.221 776.396 447.363 776.017L448.982 776.472C448.811 777.021 448.525 777.504 448.123 777.92C447.72 778.332 447.223 778.654 446.631 778.886C446.039 779.114 445.374 779.227 444.635 779.227ZM453.378 764.455V779H451.702V764.455H453.378ZM460.88 779.227C459.895 779.227 459.031 778.993 458.288 778.524C457.549 778.055 456.971 777.4 456.555 776.557C456.143 775.714 455.937 774.729 455.937 773.602C455.937 772.466 456.143 771.474 456.555 770.626C456.971 769.779 457.549 769.121 458.288 768.652C459.031 768.183 459.895 767.949 460.88 767.949C461.865 767.949 462.727 768.183 463.465 768.652C464.209 769.121 464.786 769.779 465.198 770.626C465.615 771.474 465.823 772.466 465.823 773.602C465.823 774.729 465.615 775.714 465.198 776.557C464.786 777.4 464.209 778.055 463.465 778.524C462.727 778.993 461.865 779.227 460.88 779.227ZM460.88 777.722C461.628 777.722 462.244 777.53 462.727 777.146C463.21 776.763 463.567 776.259 463.799 775.634C464.031 775.009 464.147 774.331 464.147 773.602C464.147 772.873 464.031 772.194 463.799 771.564C463.567 770.934 463.21 770.425 462.727 770.037C462.244 769.649 461.628 769.455 460.88 769.455C460.132 769.455 459.516 769.649 459.033 770.037C458.55 770.425 458.193 770.934 457.961 771.564C457.729 772.194 457.613 772.873 457.613 773.602C457.613 774.331 457.729 775.009 457.961 775.634C458.193 776.259 458.55 776.763 459.033 777.146C459.516 777.53 460.132 777.722 460.88 777.722ZM471.592 779.256C470.901 779.256 470.273 779.125 469.71 778.865C469.146 778.6 468.699 778.219 468.368 777.722C468.036 777.22 467.87 776.614 467.87 775.903C467.87 775.278 467.993 774.772 468.24 774.384C468.486 773.991 468.815 773.683 469.227 773.46C469.639 773.238 470.093 773.072 470.591 772.963C471.092 772.849 471.597 772.759 472.103 772.693C472.766 772.608 473.304 772.544 473.716 772.501C474.132 772.454 474.435 772.376 474.625 772.267C474.819 772.158 474.916 771.969 474.916 771.699V771.642C474.916 770.941 474.724 770.397 474.341 770.009C473.962 769.62 473.386 769.426 472.615 769.426C471.815 769.426 471.187 769.601 470.733 769.952C470.278 770.302 469.958 770.676 469.774 771.074L468.183 770.506C468.467 769.843 468.846 769.327 469.319 768.957C469.797 768.583 470.318 768.323 470.882 768.176C471.45 768.025 472.009 767.949 472.558 767.949C472.908 767.949 473.311 767.991 473.765 768.077C474.225 768.157 474.667 768.325 475.093 768.581C475.524 768.837 475.882 769.223 476.166 769.739C476.45 770.255 476.592 770.946 476.592 771.812V779H474.916V777.523H474.831C474.717 777.759 474.528 778.013 474.262 778.283C473.997 778.553 473.645 778.782 473.204 778.972C472.764 779.161 472.226 779.256 471.592 779.256ZM471.848 777.75C472.511 777.75 473.069 777.62 473.524 777.359C473.983 777.099 474.329 776.763 474.561 776.351C474.797 775.939 474.916 775.506 474.916 775.051V773.517C474.845 773.602 474.689 773.68 474.447 773.751C474.21 773.818 473.936 773.877 473.623 773.929C473.315 773.976 473.015 774.019 472.721 774.057C472.432 774.09 472.198 774.118 472.018 774.142C471.583 774.199 471.175 774.291 470.797 774.419C470.422 774.542 470.119 774.729 469.887 774.98C469.66 775.226 469.547 775.562 469.547 775.989C469.547 776.571 469.762 777.011 470.193 777.31C470.628 777.603 471.18 777.75 471.848 777.75ZM483.771 779.227C482.862 779.227 482.059 778.998 481.363 778.538C480.667 778.074 480.122 777.421 479.729 776.578C479.336 775.731 479.14 774.729 479.14 773.574C479.14 772.428 479.336 771.434 479.729 770.591C480.122 769.748 480.669 769.097 481.37 768.638C482.071 768.179 482.88 767.949 483.799 767.949C484.509 767.949 485.07 768.067 485.482 768.304C485.899 768.536 486.216 768.801 486.434 769.099C486.656 769.393 486.829 769.634 486.952 769.824H487.094V764.455H488.771V779H487.151V777.324H486.952C486.829 777.523 486.654 777.774 486.427 778.077C486.2 778.375 485.875 778.643 485.454 778.879C485.032 779.111 484.471 779.227 483.771 779.227ZM483.998 777.722C484.67 777.722 485.238 777.546 485.702 777.196C486.166 776.841 486.519 776.351 486.761 775.726C487.002 775.096 487.123 774.369 487.123 773.545C487.123 772.731 487.004 772.018 486.768 771.408C486.531 770.792 486.181 770.314 485.717 769.973C485.253 769.627 484.68 769.455 483.998 769.455C483.288 769.455 482.696 769.637 482.222 770.001C481.754 770.361 481.401 770.851 481.164 771.472C480.932 772.087 480.816 772.778 480.816 773.545C480.816 774.322 480.934 775.027 481.171 775.662C481.413 776.292 481.768 776.794 482.237 777.168C482.71 777.537 483.297 777.722 483.998 777.722Z" fill="#60A5FA"/>
<path d="M534.939 723.463C534.354 724.049 534.354 724.998 534.939 725.584L544.486 735.129C545.072 735.715 546.022 735.715 546.607 735.129C547.193 734.543 547.193 733.594 546.607 733.008L538.121 724.523L546.606 716.037C547.192 715.451 547.192 714.502 546.606 713.916C546.02 713.33 545.07 713.33 544.484 713.916L534.939 723.463ZM536 726.023L1166 725.977L1166 722.977L536 723.023L536 726.023Z" fill="#60A5FA"/>
<g clip-path="url(#clip3_15_4)">
<path d="M1254.75 732.833C1253.6 732.833 1252.67 733.767 1252.67 734.917V741.167H1244.33V734.917C1244.33 733.767 1243.4 732.833 1242.25 732.833C1241.1 732.833 1240.17 733.767 1240.17 734.917V751.583C1240.17 752.733 1241.1 753.667 1242.25 753.667C1243.4 753.667 1244.33 752.733 1244.33 751.583V745.333H1252.67V751.583C1252.67 752.733 1253.6 753.667 1254.75 753.667C1255.9 753.667 1256.83 752.733 1256.83 751.583V734.917C1256.83 733.767 1255.9 732.833 1254.75 732.833Z" fill="#60A5FA"/>
<path d="M1271.42 732.833H1263.08C1261.93 732.833 1261 733.767 1261 734.917C1261 736.067 1261.93 737 1263.08 737H1265.17V751.583C1265.17 752.733 1266.1 753.667 1267.25 753.667C1268.4 753.667 1269.33 752.733 1269.33 751.583V737H1271.42C1272.57 737 1273.5 736.067 1273.5 734.917C1273.5 733.767 1272.57 732.833 1271.42 732.833Z" fill="#60A5FA"/>
<path d="M1293.05 732.992C1292.27 732.663 1291.37 732.846 1290.77 733.442L1286 738.217L1281.22 733.442C1280.63 732.85 1279.73 732.667 1278.95 732.992C1278.17 733.313 1277.67 734.075 1277.67 734.917V751.583C1277.67 752.733 1278.6 753.667 1279.75 753.667C1280.9 753.667 1281.83 752.733 1281.83 751.583V739.946L1284.53 742.637C1285.34 743.45 1286.66 743.45 1287.47 742.637L1290.17 739.946V751.583C1290.17 752.733 1291.1 753.667 1292.25 753.667C1293.4 753.667 1294.33 752.733 1294.33 751.583V734.917C1294.33 734.075 1293.82 733.313 1293.05 732.992Z" fill="#60A5FA"/>
<path d="M1308.92 749.5H1302.67V734.917C1302.67 733.767 1301.73 732.833 1300.58 732.833C1299.43 732.833 1298.5 733.767 1298.5 734.917V751.583C1298.5 752.733 1299.43 753.667 1300.58 753.667H1308.92C1310.07 753.667 1311 752.733 1311 751.583C1311 750.433 1310.07 749.5 1308.92 749.5Z" fill="#60A5FA"/>
<path d="M1283.92 728.667C1285.07 728.667 1286 727.733 1286 726.583V676.583C1286 675.433 1285.07 674.5 1283.92 674.5H1238.08C1237.8 674.5 1237.53 674.558 1237.27 674.663C1237.2 674.696 1237.14 674.758 1237.07 674.804C1236.91 674.896 1236.74 674.979 1236.61 675.108L1211.61 700.108C1211.51 700.204 1211.46 700.333 1211.38 700.446C1211.31 700.558 1211.21 700.654 1211.16 700.779C1211.06 701.033 1211 701.304 1211 701.583V772.417C1211 773.567 1211.93 774.5 1213.08 774.5H1283.92C1285.07 774.5 1286 773.567 1286 772.417V759.917C1286 758.767 1285.07 757.833 1283.92 757.833C1282.77 757.833 1281.83 758.767 1281.83 759.917V770.333H1215.17V703.667H1238.08C1239.23 703.667 1240.17 702.733 1240.17 701.583V678.667H1281.83V726.583C1281.83 727.733 1282.77 728.667 1283.92 728.667ZM1236 699.5H1218.11L1236 681.613V699.5Z" fill="#60A5FA"/>
</g>
<defs>
<clipPath id="clip0_15_4">
<rect width="80" height="80" fill="white" transform="translate(409.5 176)"/>
</clipPath>
<clipPath id="clip1_15_4">
<rect width="101" height="100" fill="white" transform="translate(1225 185.5)"/>
</clipPath>
<clipPath id="clip2_15_4">
<rect width="80" height="80" fill="white" transform="translate(394.5 665)"/>
</clipPath>
<clipPath id="clip3_15_4">
<rect width="100" height="100" fill="white" transform="translate(1211 674.5)"/>
</clipPath>
</defs>
</svg>
