<svg width="1757" height="920" viewBox="0 0 1757 920" fill="none" xmlns="http://www.w3.org/2000/svg">
<rect x="1400" width="357" height="920" rx="5" fill="#FACC15"/>
<path d="M1518.31 454.276C1518.2 453.13 1517.71 452.24 1516.85 451.605C1515.98 450.971 1514.82 450.653 1513.34 450.653C1512.33 450.653 1511.49 450.795 1510.8 451.08C1510.1 451.354 1509.57 451.738 1509.2 452.23C1508.84 452.723 1508.66 453.281 1508.66 453.906C1508.65 454.427 1508.75 454.882 1508.99 455.27C1509.24 455.658 1509.57 455.994 1510 456.278C1510.43 456.553 1510.92 456.795 1511.48 457.003C1512.04 457.202 1512.63 457.372 1513.27 457.514L1515.88 458.139C1517.15 458.423 1518.31 458.802 1519.38 459.276C1520.44 459.749 1521.35 460.331 1522.13 461.023C1522.91 461.714 1523.51 462.528 1523.93 463.466C1524.37 464.403 1524.59 465.478 1524.6 466.69C1524.59 468.471 1524.14 470.014 1523.24 471.321C1522.35 472.618 1521.06 473.627 1519.38 474.347C1517.7 475.057 1515.68 475.412 1513.31 475.412C1510.96 475.412 1508.92 475.052 1507.17 474.332C1505.44 473.613 1504.09 472.547 1503.11 471.136C1502.14 469.716 1501.64 467.959 1501.59 465.866H1507.54C1507.61 466.842 1507.89 467.656 1508.38 468.31C1508.88 468.954 1509.55 469.441 1510.38 469.773C1511.23 470.095 1512.18 470.256 1513.24 470.256C1514.28 470.256 1515.18 470.104 1515.95 469.801C1516.73 469.498 1517.33 469.077 1517.76 468.537C1518.18 467.997 1518.39 467.377 1518.39 466.676C1518.39 466.023 1518.2 465.473 1517.81 465.028C1517.43 464.583 1516.88 464.205 1516.14 463.892C1515.41 463.58 1514.51 463.295 1513.45 463.04L1510.28 462.244C1507.83 461.648 1505.89 460.715 1504.47 459.446C1503.05 458.177 1502.35 456.468 1502.36 454.318C1502.35 452.557 1502.82 451.018 1503.76 449.702C1504.72 448.385 1506.03 447.358 1507.7 446.619C1509.37 445.881 1511.26 445.511 1513.38 445.511C1515.54 445.511 1517.42 445.881 1519.03 446.619C1520.65 447.358 1521.91 448.385 1522.81 449.702C1523.71 451.018 1524.18 452.543 1524.2 454.276H1518.31ZM1528.74 475V445.909H1548.34V450.98H1534.89V457.912H1547.33V462.983H1534.89V469.929H1548.4V475H1528.74ZM1553.23 475V445.909H1564.71C1566.91 445.909 1568.78 446.302 1570.33 447.088C1571.9 447.865 1573.08 448.968 1573.9 450.398C1574.72 451.818 1575.13 453.49 1575.13 455.412C1575.13 457.344 1574.72 459.006 1573.88 460.398C1573.05 461.78 1571.84 462.841 1570.26 463.58C1568.69 464.318 1566.79 464.688 1564.55 464.688H1556.87V459.744H1563.56C1564.73 459.744 1565.71 459.583 1566.48 459.261C1567.26 458.939 1567.84 458.456 1568.22 457.812C1568.61 457.169 1568.8 456.368 1568.8 455.412C1568.8 454.446 1568.61 453.632 1568.22 452.969C1567.84 452.306 1567.26 451.804 1566.47 451.463C1565.69 451.113 1564.71 450.938 1563.53 450.938H1559.38V475H1553.23ZM1568.94 461.761L1576.17 475H1569.38L1562.31 461.761H1568.94ZM1583.96 445.909L1590.99 468.011H1591.26L1598.3 445.909H1605.12L1595.09 475H1587.17L1577.12 445.909H1583.96ZM1608.62 475V445.909H1628.22V450.98H1614.77V457.912H1627.22V462.983H1614.77V469.929H1628.28V475H1608.62ZM1633.11 475V445.909H1644.59C1646.79 445.909 1648.66 446.302 1650.22 447.088C1651.78 447.865 1652.97 448.968 1653.78 450.398C1654.61 451.818 1655.02 453.49 1655.02 455.412C1655.02 457.344 1654.6 459.006 1653.77 460.398C1652.93 461.78 1651.73 462.841 1650.15 463.58C1648.57 464.318 1646.67 464.688 1644.44 464.688H1636.75V459.744H1643.44C1644.62 459.744 1645.59 459.583 1646.37 459.261C1647.14 458.939 1647.72 458.456 1648.1 457.812C1648.49 457.169 1648.68 456.368 1648.68 455.412C1648.68 454.446 1648.49 453.632 1648.1 452.969C1647.72 452.306 1647.14 451.804 1646.35 451.463C1645.58 451.113 1644.6 450.938 1643.41 450.938H1639.26V475H1633.11ZM1648.82 461.761L1656.05 475H1649.26L1642.19 461.761H1648.82Z" fill="#333333"/>
<rect width="345" height="920" rx="5" fill="white"/>
<path d="M128.196 456.094H121.974C121.861 455.289 121.629 454.574 121.278 453.949C120.928 453.314 120.478 452.775 119.929 452.33C119.38 451.884 118.745 451.544 118.026 451.307C117.315 451.07 116.544 450.952 115.71 450.952C114.205 450.952 112.893 451.326 111.776 452.074C110.658 452.812 109.792 453.892 109.176 455.312C108.561 456.723 108.253 458.437 108.253 460.455C108.253 462.528 108.561 464.271 109.176 465.682C109.801 467.093 110.672 468.158 111.79 468.878C112.907 469.598 114.2 469.957 115.668 469.957C116.491 469.957 117.254 469.848 117.955 469.631C118.665 469.413 119.295 469.096 119.844 468.679C120.393 468.253 120.848 467.737 121.207 467.131C121.577 466.525 121.832 465.833 121.974 465.057L128.196 465.085C128.035 466.42 127.633 467.708 126.989 468.949C126.354 470.18 125.497 471.283 124.418 472.259C123.348 473.224 122.069 473.991 120.582 474.56C119.105 475.118 117.434 475.398 115.568 475.398C112.973 475.398 110.653 474.811 108.608 473.636C106.572 472.462 104.962 470.762 103.778 468.537C102.604 466.312 102.017 463.617 102.017 460.455C102.017 457.282 102.614 454.583 103.807 452.358C105 450.133 106.619 448.437 108.665 447.273C110.71 446.098 113.011 445.511 115.568 445.511C117.254 445.511 118.816 445.748 120.256 446.222C121.705 446.695 122.988 447.386 124.105 448.295C125.223 449.195 126.132 450.298 126.832 451.605C127.543 452.912 127.997 454.408 128.196 456.094ZM132.607 475V445.909H138.757V469.929H151.229V475H132.607ZM161.452 445.909V475H155.302V445.909H161.452ZM166.513 475V445.909H186.115V450.98H172.663V457.912H185.107V462.983H172.663V469.929H186.172V475H166.513ZM215.337 445.909V475H210.025L197.369 456.69H197.156V475H191.005V445.909H196.403L208.96 464.205H209.215V445.909H215.337ZM219.311 450.98V445.909H243.203V450.98H234.297V475H228.217V450.98H219.311Z" fill="#333333"/>
<path d="M402.828 51.9091V81H400.172V51.9091H402.828ZM412.566 67.3636V81H410.037V59.1818H412.495V62.6051H412.722C413.233 61.4877 414.029 60.5928 415.108 59.9205C416.197 59.2386 417.542 58.8977 419.142 58.8977C420.61 58.8977 421.898 59.2055 423.006 59.821C424.123 60.4271 424.99 61.322 425.605 62.5057C426.23 63.6894 426.543 65.143 426.543 66.8665V81H424.015V67.0227C424.015 65.233 423.513 63.8172 422.509 62.7756C421.515 61.7339 420.179 61.2131 418.503 61.2131C417.357 61.2131 416.339 61.4593 415.449 61.9517C414.559 62.4441 413.854 63.1544 413.333 64.0824C412.821 65.0009 412.566 66.0947 412.566 67.3636ZM433.23 81V59.1818H435.772V81H433.23ZM434.522 55.4318C434.002 55.4318 433.556 55.2566 433.187 54.9062C432.818 54.5464 432.633 54.1155 432.633 53.6136C432.633 53.1117 432.818 52.6856 433.187 52.3352C433.556 51.9754 434.002 51.7955 434.522 51.7955C435.043 51.7955 435.488 51.9754 435.858 52.3352C436.227 52.6856 436.412 53.1117 436.412 53.6136C436.412 54.1155 436.227 54.5464 435.858 54.9062C435.488 55.2566 435.043 55.4318 434.522 55.4318ZM451.053 59.1818V61.3835H440.641V59.1818H451.053ZM443.894 53.9545H446.436V75.304C446.436 76.2131 446.593 76.928 446.905 77.4489C447.218 77.9602 447.625 78.3248 448.127 78.5426C448.629 78.7509 449.164 78.8551 449.732 78.8551C450.063 78.8551 450.347 78.8362 450.584 78.7983C450.821 78.7509 451.029 78.7036 451.209 78.6562L451.749 80.9432C451.503 81.0379 451.2 81.1231 450.84 81.1989C450.48 81.2841 450.035 81.3267 449.505 81.3267C448.577 81.3267 447.682 81.1231 446.82 80.7159C445.968 80.3087 445.267 79.7027 444.718 78.8977C444.168 78.0928 443.894 77.0938 443.894 75.9006V53.9545ZM456.824 81V59.1818H459.366V81H456.824ZM458.116 55.4318C457.595 55.4318 457.15 55.2566 456.781 54.9062C456.412 54.5464 456.227 54.1155 456.227 53.6136C456.227 53.1117 456.412 52.6856 456.781 52.3352C457.15 51.9754 457.595 51.7955 458.116 51.7955C458.637 51.7955 459.082 51.9754 459.451 52.3352C459.821 52.6856 460.005 53.1117 460.005 53.6136C460.005 54.1155 459.821 54.5464 459.451 54.9062C459.082 55.2566 458.637 55.4318 458.116 55.4318ZM472.147 81.4972C470.83 81.4972 469.628 81.2415 468.539 80.7301C467.45 80.2093 466.583 79.4612 465.939 78.4858C465.295 77.5009 464.973 76.3078 464.973 74.9062C464.973 73.8267 465.177 72.9176 465.584 72.179C465.991 71.4403 466.569 70.8343 467.317 70.3608C468.065 69.8873 468.951 69.5133 469.973 69.2386C470.996 68.964 472.123 68.7509 473.354 68.5994C474.576 68.4479 475.608 68.3153 476.451 68.2017C477.303 68.0881 477.952 67.9081 478.397 67.6619C478.842 67.4157 479.064 67.018 479.064 66.4688V65.9574C479.064 64.4706 478.619 63.3011 477.729 62.4489C476.848 61.5871 475.579 61.1562 473.922 61.1562C472.35 61.1562 471.067 61.5019 470.073 62.1932C469.088 62.8845 468.397 63.6989 467.999 64.6364L465.598 63.7699C466.091 62.5767 466.773 61.625 467.644 60.9148C468.515 60.1951 469.49 59.679 470.57 59.3665C471.65 59.0445 472.743 58.8835 473.851 58.8835C474.685 58.8835 475.551 58.9924 476.451 59.2102C477.36 59.428 478.203 59.8068 478.979 60.3466C479.756 60.8769 480.385 61.6203 480.868 62.5767C481.351 63.5237 481.593 64.7263 481.593 66.1847V81H479.064V77.5483H478.908C478.605 78.1922 478.155 78.8172 477.559 79.4233C476.962 80.0294 476.214 80.5265 475.314 80.9148C474.415 81.303 473.359 81.4972 472.147 81.4972ZM472.488 79.1818C473.832 79.1818 474.997 78.8835 475.982 78.2869C476.967 77.6903 477.724 76.8996 478.255 75.9148C478.794 74.9205 479.064 73.8267 479.064 72.6335V69.4801C478.875 69.66 478.558 69.821 478.113 69.9631C477.677 70.1051 477.17 70.233 476.593 70.3466C476.025 70.4508 475.456 70.5407 474.888 70.6165C474.32 70.6922 473.809 70.7585 473.354 70.8153C472.123 70.9669 471.072 71.2036 470.201 71.5256C469.329 71.8475 468.662 72.2926 468.198 72.8608C467.734 73.4195 467.502 74.1392 467.502 75.0199C467.502 76.3456 467.975 77.3731 468.922 78.1023C469.869 78.822 471.058 79.1818 472.488 79.1818ZM490.847 51.9091V81H488.319V51.9091H490.847ZM508.787 81V59.1818H511.245V62.5341H511.429C511.865 61.4356 512.623 60.5502 513.702 59.8778C514.791 59.196 516.022 58.8551 517.395 58.8551C517.604 58.8551 517.836 58.8598 518.091 58.8693C518.347 58.8788 518.56 58.8883 518.73 58.8977V61.4688C518.617 61.4498 518.418 61.4214 518.134 61.3835C517.85 61.3456 517.542 61.3267 517.211 61.3267C516.074 61.3267 515.061 61.5682 514.171 62.0511C513.29 62.5246 512.594 63.1828 512.083 64.0256C511.571 64.8684 511.316 65.8295 511.316 66.9091V81H508.787ZM531.202 81.4545C529.166 81.4545 527.405 80.9811 525.918 80.0341C524.431 79.0777 523.281 77.7566 522.466 76.071C521.661 74.3759 521.259 72.4252 521.259 70.2188C521.259 68.0218 521.661 66.071 522.466 64.3665C523.281 62.6525 524.403 61.3125 525.833 60.3466C527.272 59.3712 528.934 58.8835 530.819 58.8835C532.002 58.8835 533.143 59.1013 534.242 59.5369C535.34 59.9631 536.325 60.6212 537.196 61.5114C538.077 62.392 538.773 63.5047 539.284 64.8494C539.796 66.1847 540.051 67.7661 540.051 69.5938V70.8438H523.006V68.6136H537.466C537.466 67.2121 537.182 65.9527 536.614 64.8352C536.055 63.7083 535.274 62.8182 534.27 62.1648C533.276 61.5114 532.125 61.1847 530.819 61.1847C529.436 61.1847 528.219 61.554 527.168 62.2926C526.117 63.0312 525.293 64.0066 524.696 65.2188C524.109 66.4309 523.811 67.7566 523.801 69.196V70.5312C523.801 72.2642 524.1 73.7794 524.696 75.0767C525.302 76.3646 526.159 77.3636 527.267 78.0739C528.375 78.7841 529.687 79.1392 531.202 79.1392C532.234 79.1392 533.139 78.9782 533.915 78.6562C534.701 78.3343 535.359 77.9034 535.89 77.3636C536.429 76.8144 536.837 76.2131 537.111 75.5597L539.512 76.3409C539.18 77.2595 538.636 78.107 537.878 78.8835C537.13 79.66 536.193 80.285 535.066 80.7585C533.948 81.2225 532.66 81.4545 531.202 81.4545ZM560.41 89.1818V76.9517H560.183C559.889 77.6146 559.473 78.2964 558.933 78.9972C558.393 79.6884 557.678 80.2708 556.788 80.7443C555.898 81.2178 554.795 81.4545 553.478 81.4545C551.698 81.4545 550.131 80.9811 548.777 80.0341C547.432 79.0871 546.381 77.7661 545.623 76.071C544.875 74.3759 544.501 72.4015 544.501 70.1477C544.501 67.9034 544.875 65.9384 545.623 64.2528C546.381 62.5578 547.437 61.2415 548.791 60.304C550.145 59.357 551.722 58.8835 553.521 58.8835C554.856 58.8835 555.959 59.1203 556.831 59.5938C557.711 60.0672 558.417 60.6496 558.947 61.3409C559.477 62.0227 559.889 62.6903 560.183 63.3438H560.481V59.1818H562.953V89.1818H560.41ZM553.777 79.1392C555.188 79.1392 556.39 78.7557 557.385 77.9886C558.379 77.2121 559.136 76.1468 559.657 74.7926C560.188 73.429 560.453 71.8665 560.453 70.1051C560.453 68.3627 560.192 66.8239 559.672 65.4886C559.151 64.1439 558.393 63.0928 557.399 62.3352C556.414 61.5682 555.207 61.1847 553.777 61.1847C552.318 61.1847 551.087 61.5824 550.083 62.3778C549.08 63.1638 548.322 64.2292 547.811 65.5739C547.299 66.9186 547.044 68.429 547.044 70.1051C547.044 71.8002 547.304 73.3295 547.825 74.6932C548.346 76.0568 549.108 77.1411 550.112 77.946C551.116 78.7415 552.337 79.1392 553.777 79.1392ZM583.471 72.6619V59.1818H586V81H583.471V77.3778H583.272C582.761 78.4953 581.951 79.428 580.843 80.1761C579.735 80.9148 578.381 81.2841 576.781 81.2841C575.389 81.2841 574.153 80.9811 573.074 80.375C571.994 79.7595 571.146 78.8598 570.531 77.6761C569.915 76.4924 569.608 75.0388 569.608 73.3153V59.1818H572.136V73.1591C572.136 74.8636 572.638 76.2367 573.642 77.2784C574.645 78.3106 575.933 78.8267 577.505 78.8267C578.49 78.8267 579.437 78.59 580.346 78.1165C581.255 77.643 582.003 76.9517 582.591 76.0426C583.178 75.1241 583.471 73.9972 583.471 72.6619ZM601.515 81.4545C599.479 81.4545 597.717 80.9811 596.23 80.0341C594.744 79.0777 593.593 77.7566 592.779 76.071C591.974 74.3759 591.571 72.4252 591.571 70.2188C591.571 68.0218 591.974 66.071 592.779 64.3665C593.593 62.6525 594.715 61.3125 596.145 60.3466C597.585 59.3712 599.247 58.8835 601.131 58.8835C602.315 58.8835 603.456 59.1013 604.554 59.5369C605.653 59.9631 606.638 60.6212 607.509 61.5114C608.39 62.392 609.086 63.5047 609.597 64.8494C610.108 66.1847 610.364 67.7661 610.364 69.5938V70.8438H593.319V68.6136H607.779C607.779 67.2121 607.495 65.9527 606.926 64.8352C606.368 63.7083 605.587 62.8182 604.583 62.1648C603.588 61.5114 602.438 61.1847 601.131 61.1847C599.748 61.1847 598.532 61.554 597.48 62.2926C596.429 63.0312 595.605 64.0066 595.009 65.2188C594.422 66.4309 594.123 67.7566 594.114 69.196V70.5312C594.114 72.2642 594.412 73.7794 595.009 75.0767C595.615 76.3646 596.472 77.3636 597.58 78.0739C598.688 78.7841 599.999 79.1392 601.515 79.1392C602.547 79.1392 603.451 78.9782 604.228 78.6562C605.014 78.3343 605.672 77.9034 606.202 77.3636C606.742 76.8144 607.149 76.2131 607.424 75.5597L609.824 76.3409C609.493 77.2595 608.948 78.107 608.191 78.8835C607.443 79.66 606.505 80.285 605.378 80.7585C604.261 81.2225 602.973 81.4545 601.515 81.4545ZM630.595 63.9688L628.279 64.6222C628.052 63.9687 627.73 63.3769 627.314 62.8466C626.897 62.3163 626.352 61.8949 625.68 61.5824C625.017 61.2699 624.193 61.1136 623.208 61.1136C621.731 61.1136 620.519 61.464 619.572 62.1648C618.625 62.8655 618.152 63.7699 618.152 64.8778C618.152 65.8153 618.474 66.5777 619.118 67.1648C619.771 67.7424 620.775 68.2017 622.129 68.5426L625.424 69.3523C627.252 69.7973 628.62 70.5028 629.529 71.4688C630.448 72.4347 630.907 73.6468 630.907 75.1051C630.907 76.3362 630.566 77.4299 629.885 78.3864C629.203 79.3428 628.251 80.0956 627.029 80.6449C625.817 81.1847 624.411 81.4545 622.811 81.4545C620.68 81.4545 618.923 80.9763 617.541 80.0199C616.158 79.054 615.273 77.6619 614.885 75.8438L617.314 75.2472C617.626 76.5445 618.237 77.5246 619.146 78.1875C620.065 78.8504 621.272 79.1818 622.768 79.1818C624.444 79.1818 625.784 78.8078 626.788 78.0597C627.792 77.3021 628.294 76.3551 628.294 75.2188C628.294 74.3381 628 73.5994 627.413 73.0028C626.826 72.3968 625.936 71.9517 624.743 71.6676L621.177 70.8153C619.283 70.3608 617.882 69.6411 616.973 68.6562C616.064 67.6714 615.609 66.4498 615.609 64.9915C615.609 63.7888 615.936 62.733 616.589 61.8239C617.243 60.9053 618.142 60.1856 619.288 59.6648C620.434 59.1439 621.741 58.8835 623.208 58.8835C625.207 58.8835 626.802 59.3381 627.995 60.2472C629.198 61.1468 630.065 62.3873 630.595 63.9688ZM645.037 59.1818V61.3835H634.625V59.1818H645.037ZM637.878 53.9545H640.421V75.304C640.421 76.2131 640.577 76.928 640.89 77.4489C641.202 77.9602 641.609 78.3248 642.111 78.5426C642.613 78.7509 643.148 78.8551 643.716 78.8551C644.048 78.8551 644.332 78.8362 644.569 78.7983C644.805 78.7509 645.014 78.7036 645.194 78.6562L645.733 80.9432C645.487 81.0379 645.184 81.1231 644.824 81.1989C644.464 81.2841 644.019 81.3267 643.489 81.3267C642.561 81.3267 641.666 81.1231 640.804 80.7159C639.952 80.3087 639.251 79.7027 638.702 78.8977C638.153 78.0928 637.878 77.0938 637.878 75.9006V53.9545ZM421.428 129.455C419.543 129.455 417.876 128.976 416.428 128.02C414.988 127.063 413.861 125.742 413.047 124.057C412.232 122.362 411.825 120.406 411.825 118.19C411.825 115.955 412.232 113.991 413.047 112.295C413.861 110.591 414.988 109.265 416.428 108.318C417.876 107.362 419.543 106.884 421.428 106.884C423.312 106.884 424.974 107.362 426.413 108.318C427.853 109.275 428.98 110.6 429.794 112.295C430.618 113.991 431.03 115.955 431.03 118.19C431.03 120.406 430.623 122.362 429.808 124.057C428.994 125.742 427.862 127.063 426.413 128.02C424.974 128.976 423.312 129.455 421.428 129.455ZM421.428 127.139C422.943 127.139 424.226 126.732 425.277 125.918C426.328 125.103 427.124 124.019 427.663 122.665C428.213 121.311 428.487 119.819 428.487 118.19C428.487 116.562 428.213 115.065 427.663 113.702C427.124 112.338 426.328 111.244 425.277 110.42C424.226 109.597 422.943 109.185 421.428 109.185C419.922 109.185 418.639 109.597 417.578 110.42C416.527 111.244 415.727 112.338 415.178 113.702C414.638 115.065 414.368 116.562 414.368 118.19C414.368 119.819 414.638 121.311 415.178 122.665C415.727 124.019 416.527 125.103 417.578 125.918C418.629 126.732 419.912 127.139 421.428 127.139ZM439.109 115.364V129H436.58V107.182H439.038V110.605H439.265C439.776 109.488 440.572 108.593 441.651 107.92C442.74 107.239 444.085 106.898 445.685 106.898C447.153 106.898 448.441 107.205 449.549 107.821C450.666 108.427 451.533 109.322 452.148 110.506C452.773 111.689 453.086 113.143 453.086 114.866V129H450.558V115.023C450.558 113.233 450.056 111.817 449.052 110.776C448.058 109.734 446.722 109.213 445.046 109.213C443.9 109.213 442.882 109.459 441.992 109.952C441.102 110.444 440.397 111.154 439.876 112.082C439.364 113.001 439.109 114.095 439.109 115.364ZM476.293 129.412C474.901 129.412 473.66 129.17 472.571 128.688C471.482 128.195 470.62 127.471 469.986 126.514C469.361 125.548 469.048 124.346 469.048 122.906C469.048 121.694 469.271 120.676 469.716 119.852C470.161 119.028 470.767 118.366 471.534 117.864C472.301 117.362 473.172 116.983 474.148 116.727C475.133 116.472 476.165 116.292 477.244 116.188C478.513 116.055 479.536 115.932 480.312 115.818C481.089 115.695 481.652 115.515 482.003 115.278C482.353 115.042 482.528 114.691 482.528 114.227V114.142C482.528 113.242 482.244 112.546 481.676 112.054C481.117 111.562 480.322 111.315 479.29 111.315C478.201 111.315 477.334 111.557 476.69 112.04C476.046 112.513 475.62 113.11 475.412 113.83L469.815 113.375C470.099 112.049 470.658 110.903 471.491 109.938C472.325 108.962 473.4 108.214 474.716 107.693C476.042 107.163 477.576 106.898 479.318 106.898C480.53 106.898 481.69 107.04 482.798 107.324C483.916 107.608 484.905 108.048 485.767 108.645C486.638 109.241 487.325 110.009 487.827 110.946C488.329 111.874 488.58 112.987 488.58 114.284V129H482.841V125.974H482.67C482.32 126.656 481.851 127.258 481.264 127.778C480.677 128.29 479.972 128.692 479.148 128.986C478.324 129.27 477.372 129.412 476.293 129.412ZM478.026 125.236C478.916 125.236 479.702 125.061 480.384 124.71C481.065 124.35 481.6 123.867 481.989 123.261C482.377 122.655 482.571 121.969 482.571 121.202V118.886C482.382 119.009 482.121 119.123 481.79 119.227C481.468 119.322 481.103 119.412 480.696 119.497C480.289 119.573 479.882 119.644 479.474 119.71C479.067 119.767 478.698 119.819 478.366 119.866C477.656 119.971 477.036 120.136 476.506 120.364C475.975 120.591 475.563 120.899 475.27 121.287C474.976 121.666 474.83 122.139 474.83 122.707C474.83 123.531 475.128 124.161 475.724 124.597C476.33 125.023 477.098 125.236 478.026 125.236ZM499.325 116.386V129H493.274V107.182H499.041V111.031H499.297C499.78 109.762 500.589 108.759 501.726 108.02C502.862 107.272 504.24 106.898 505.859 106.898C507.375 106.898 508.696 107.229 509.822 107.892C510.949 108.555 511.825 109.502 512.45 110.733C513.075 111.955 513.388 113.413 513.388 115.108V129H507.337V116.188C507.346 114.852 507.005 113.811 506.314 113.062C505.623 112.305 504.671 111.926 503.459 111.926C502.644 111.926 501.925 112.101 501.3 112.452C500.684 112.802 500.201 113.313 499.851 113.986C499.51 114.649 499.335 115.449 499.325 116.386ZM521.112 137.182C520.344 137.182 519.625 137.12 518.952 136.997C518.29 136.884 517.74 136.737 517.305 136.557L518.668 132.04C519.379 132.258 520.018 132.376 520.586 132.395C521.164 132.414 521.661 132.281 522.077 131.997C522.504 131.713 522.849 131.23 523.114 130.548L523.469 129.625L515.643 107.182H522.006L526.523 123.205H526.751L531.31 107.182H537.717L529.237 131.358C528.829 132.532 528.275 133.555 527.575 134.426C526.883 135.307 526.007 135.984 524.947 136.457C523.886 136.94 522.608 137.182 521.112 137.182ZM550.071 137.182V107.182H556.037V110.847H556.307C556.572 110.259 556.955 109.663 557.457 109.057C557.969 108.441 558.632 107.93 559.446 107.523C560.27 107.106 561.293 106.898 562.514 106.898C564.105 106.898 565.573 107.314 566.918 108.148C568.262 108.972 569.337 110.217 570.142 111.884C570.947 113.541 571.349 115.619 571.349 118.119C571.349 120.553 570.956 122.608 570.17 124.284C569.394 125.951 568.333 127.215 566.989 128.077C565.653 128.929 564.157 129.355 562.5 129.355C561.326 129.355 560.327 129.161 559.503 128.773C558.688 128.384 558.021 127.897 557.5 127.31C556.979 126.713 556.581 126.112 556.307 125.506H556.122V137.182H550.071ZM555.994 118.091C555.994 119.388 556.174 120.52 556.534 121.486C556.894 122.452 557.415 123.205 558.097 123.744C558.778 124.275 559.607 124.54 560.582 124.54C561.567 124.54 562.401 124.27 563.082 123.73C563.764 123.181 564.28 122.423 564.631 121.457C564.991 120.482 565.17 119.36 565.17 118.091C565.17 116.831 564.995 115.723 564.645 114.767C564.295 113.811 563.778 113.062 563.097 112.523C562.415 111.983 561.577 111.713 560.582 111.713C559.598 111.713 558.764 111.973 558.082 112.494C557.41 113.015 556.894 113.754 556.534 114.71C556.174 115.667 555.994 116.794 555.994 118.091ZM581.605 129.412C580.213 129.412 578.973 129.17 577.884 128.688C576.795 128.195 575.933 127.471 575.298 126.514C574.673 125.548 574.361 124.346 574.361 122.906C574.361 121.694 574.583 120.676 575.028 119.852C575.473 119.028 576.08 118.366 576.847 117.864C577.614 117.362 578.485 116.983 579.46 116.727C580.445 116.472 581.477 116.292 582.557 116.188C583.826 116.055 584.848 115.932 585.625 115.818C586.402 115.695 586.965 115.515 587.315 115.278C587.666 115.042 587.841 114.691 587.841 114.227V114.142C587.841 113.242 587.557 112.546 586.989 112.054C586.43 111.562 585.634 111.315 584.602 111.315C583.513 111.315 582.647 111.557 582.003 112.04C581.359 112.513 580.933 113.11 580.724 113.83L575.128 113.375C575.412 112.049 575.971 110.903 576.804 109.938C577.637 108.962 578.712 108.214 580.028 107.693C581.354 107.163 582.888 106.898 584.631 106.898C585.843 106.898 587.003 107.04 588.111 107.324C589.228 107.608 590.218 108.048 591.08 108.645C591.951 109.241 592.637 110.009 593.139 110.946C593.641 111.874 593.892 112.987 593.892 114.284V129H588.153V125.974H587.983C587.633 126.656 587.164 127.258 586.577 127.778C585.99 128.29 585.284 128.692 584.46 128.986C583.636 129.27 582.685 129.412 581.605 129.412ZM583.338 125.236C584.228 125.236 585.014 125.061 585.696 124.71C586.378 124.35 586.913 123.867 587.301 123.261C587.689 122.655 587.884 121.969 587.884 121.202V118.886C587.694 119.009 587.434 119.123 587.102 119.227C586.78 119.322 586.416 119.412 586.009 119.497C585.601 119.573 585.194 119.644 584.787 119.71C584.38 119.767 584.01 119.819 583.679 119.866C582.969 119.971 582.348 120.136 581.818 120.364C581.288 120.591 580.876 120.899 580.582 121.287C580.289 121.666 580.142 122.139 580.142 122.707C580.142 123.531 580.44 124.161 581.037 124.597C581.643 125.023 582.41 125.236 583.338 125.236ZM608.416 137.636C606.456 137.636 604.775 137.366 603.374 136.827C601.982 136.296 600.874 135.572 600.05 134.653C599.226 133.735 598.691 132.703 598.445 131.557L604.041 130.804C604.212 131.24 604.482 131.647 604.851 132.026C605.22 132.404 605.708 132.707 606.314 132.935C606.929 133.171 607.678 133.29 608.558 133.29C609.875 133.29 610.959 132.968 611.811 132.324C612.673 131.689 613.104 130.624 613.104 129.128V125.136H612.848C612.583 125.742 612.185 126.315 611.655 126.855C611.125 127.395 610.443 127.835 609.609 128.176C608.776 128.517 607.782 128.688 606.626 128.688C604.988 128.688 603.497 128.309 602.152 127.551C600.817 126.784 599.751 125.615 598.956 124.043C598.17 122.461 597.777 120.463 597.777 118.048C597.777 115.577 598.179 113.512 598.984 111.855C599.789 110.198 600.859 108.957 602.195 108.134C603.539 107.31 605.012 106.898 606.612 106.898C607.834 106.898 608.857 107.106 609.68 107.523C610.504 107.93 611.167 108.441 611.669 109.057C612.18 109.663 612.573 110.259 612.848 110.847H613.075V107.182H619.084V129.213C619.084 131.069 618.629 132.622 617.72 133.872C616.811 135.122 615.552 136.06 613.942 136.685C612.341 137.319 610.5 137.636 608.416 137.636ZM608.544 124.142C609.519 124.142 610.343 123.901 611.016 123.418C611.697 122.925 612.218 122.224 612.578 121.315C612.947 120.397 613.132 119.298 613.132 118.02C613.132 116.741 612.952 115.634 612.592 114.696C612.232 113.749 611.712 113.015 611.03 112.494C610.348 111.973 609.519 111.713 608.544 111.713C607.55 111.713 606.712 111.983 606.03 112.523C605.348 113.053 604.832 113.792 604.482 114.739C604.131 115.686 603.956 116.779 603.956 118.02C603.956 119.279 604.131 120.368 604.482 121.287C604.841 122.196 605.357 122.902 606.03 123.403C606.712 123.896 607.55 124.142 608.544 124.142ZM633.842 129.426C631.598 129.426 629.666 128.972 628.047 128.062C626.437 127.144 625.196 125.847 624.325 124.17C623.454 122.485 623.018 120.491 623.018 118.19C623.018 115.946 623.454 113.976 624.325 112.281C625.196 110.586 626.423 109.265 628.004 108.318C629.595 107.371 631.461 106.898 633.601 106.898C635.04 106.898 636.38 107.13 637.621 107.594C638.871 108.048 639.96 108.735 640.888 109.653C641.825 110.572 642.554 111.727 643.075 113.119C643.596 114.502 643.857 116.121 643.857 117.977V119.639H625.433V115.889H638.161C638.161 115.018 637.971 114.246 637.592 113.574C637.214 112.902 636.688 112.376 636.016 111.997C635.353 111.609 634.581 111.415 633.7 111.415C632.782 111.415 631.967 111.628 631.257 112.054C630.556 112.471 630.007 113.034 629.609 113.744C629.212 114.445 629.008 115.226 628.999 116.088V119.653C628.999 120.733 629.197 121.666 629.595 122.452C630.002 123.238 630.575 123.844 631.314 124.27C632.053 124.696 632.929 124.909 633.942 124.909C634.614 124.909 635.23 124.814 635.788 124.625C636.347 124.436 636.825 124.152 637.223 123.773C637.621 123.394 637.924 122.93 638.132 122.381L643.729 122.75C643.445 124.095 642.862 125.269 641.982 126.273C641.11 127.267 639.983 128.044 638.601 128.602C637.228 129.152 635.642 129.426 633.842 129.426Z" fill="white"/>
<path d="M1304.06 91.0854C1304.65 90.4996 1304.65 89.5499 1304.06 88.964L1294.52 79.4173C1293.93 78.8315 1292.98 78.8314 1292.39 79.4171C1291.81 80.0029 1291.81 80.9526 1292.39 81.5385L1300.88 90.0244L1292.39 98.509C1291.81 99.0948 1291.81 100.045 1292.39 100.63C1292.98 101.216 1293.93 101.216 1294.51 100.631L1304.06 91.0854ZM701 91.4756L1303 91.5246L1303 88.5246L701 88.4756L701 91.4756Z" fill="white"/>
<path d="M394.939 206.96C394.354 207.546 394.354 208.496 394.939 209.081L404.486 218.627C405.072 219.213 406.022 219.213 406.607 218.627C407.193 218.041 407.193 217.091 406.607 216.505L398.121 208.021L406.606 199.535C407.192 198.949 407.192 197.999 406.606 197.413C406.02 196.828 405.07 196.828 404.485 197.414L394.939 206.96ZM396 209.521L1062 209.479L1062 206.479L396 206.521L396 209.521Z" fill="#FACC15"/>
<g clip-path="url(#clip0_15_2)">
<path d="M1138.19 216.333C1137.03 216.333 1136.08 217.267 1136.08 218.417V224.667H1127.67V218.417C1127.67 217.267 1126.72 216.333 1125.56 216.333C1124.4 216.333 1123.46 217.267 1123.46 218.417V235.083C1123.46 236.233 1124.4 237.167 1125.56 237.167C1126.72 237.167 1127.67 236.233 1127.67 235.083V228.833H1136.08V235.083C1136.08 236.233 1137.03 237.167 1138.19 237.167C1139.35 237.167 1140.29 236.233 1140.29 235.083V218.417C1140.29 217.267 1139.35 216.333 1138.19 216.333Z" fill="#FACC15"/>
<path d="M1155.02 216.333H1146.6C1145.44 216.333 1144.5 217.267 1144.5 218.417C1144.5 219.567 1145.44 220.5 1146.6 220.5H1148.71V235.083C1148.71 236.233 1149.65 237.167 1150.81 237.167C1151.97 237.167 1152.92 236.233 1152.92 235.083V220.5H1155.02C1156.18 220.5 1157.13 219.567 1157.13 218.417C1157.13 217.267 1156.18 216.333 1155.02 216.333Z" fill="#FACC15"/>
<path d="M1176.87 216.492C1176.08 216.163 1175.18 216.346 1174.57 216.942L1169.75 221.717L1164.93 216.942C1164.33 216.35 1163.42 216.167 1162.63 216.492C1161.85 216.813 1161.33 217.575 1161.33 218.417V235.083C1161.33 236.233 1162.28 237.167 1163.44 237.167C1164.6 237.167 1165.54 236.233 1165.54 235.083V223.446L1168.26 226.137C1169.09 226.95 1170.42 226.95 1171.24 226.137L1173.96 223.446V235.083C1173.96 236.233 1174.9 237.167 1176.06 237.167C1177.22 237.167 1178.17 236.233 1178.17 235.083V218.417C1178.17 217.575 1177.65 216.813 1176.87 216.492Z" fill="#FACC15"/>
<path d="M1192.9 233H1186.58V218.417C1186.58 217.267 1185.64 216.333 1184.48 216.333C1183.32 216.333 1182.38 217.267 1182.38 218.417V235.083C1182.38 236.233 1183.32 237.167 1184.48 237.167H1192.9C1194.06 237.167 1195 236.233 1195 235.083C1195 233.933 1194.06 233 1192.9 233Z" fill="#FACC15"/>
<path d="M1167.65 212.167C1168.81 212.167 1169.75 211.233 1169.75 210.083V160.083C1169.75 158.933 1168.81 158 1167.65 158H1121.35C1121.07 158 1120.79 158.058 1120.54 158.163C1120.46 158.196 1120.4 158.258 1120.33 158.304C1120.17 158.396 1120 158.479 1119.86 158.608L1094.61 183.608C1094.52 183.704 1094.46 183.833 1094.39 183.946C1094.31 184.058 1094.21 184.154 1094.16 184.279C1094.06 184.533 1094 184.804 1094 185.083V255.917C1094 257.067 1094.94 258 1096.1 258H1167.65C1168.81 258 1169.75 257.067 1169.75 255.917V243.417C1169.75 242.267 1168.81 241.333 1167.65 241.333C1166.48 241.333 1165.54 242.267 1165.54 243.417V253.833H1098.21V187.167H1121.35C1122.52 187.167 1123.46 186.233 1123.46 185.083V162.167H1165.54V210.083C1165.54 211.233 1166.48 212.167 1167.65 212.167ZM1119.25 183H1101.18L1119.25 165.113V183Z" fill="#FACC15"/>
</g>
<g clip-path="url(#clip1_15_2)">
<path d="M1307.34 224.423L1306.72 224.319C1303.07 223.723 1302.52 222.774 1302.52 222.261C1302.52 221.432 1304.18 220.178 1306.69 220.178C1309.16 220.178 1310.78 221.349 1310.86 222.19C1310.97 223.34 1312.02 224.215 1313.14 224.065C1314.28 223.957 1315.12 222.94 1315.01 221.794C1314.69 218.494 1311.12 216.007 1306.69 216.007C1302.02 216.007 1298.35 218.753 1298.35 222.257C1298.35 225.519 1300.94 227.594 1306.05 228.428L1306.39 226.373L1306.66 228.532C1310.12 229.103 1310.85 229.969 1310.85 230.594C1310.85 231.423 1309.19 232.678 1306.68 232.678C1304.22 232.678 1302.59 231.503 1302.51 230.661C1302.4 229.511 1301.38 228.645 1300.24 228.786C1299.1 228.895 1298.25 229.911 1298.36 231.057C1298.68 234.357 1302.25 236.844 1306.68 236.844C1311.36 236.844 1315.02 234.099 1315.02 230.594C1315.02 227.336 1312.44 225.261 1307.34 224.423Z" fill="#FACC15"/>
<path d="M1292.1 216.011C1290.95 216.011 1290.02 216.944 1290.02 218.094V230.594C1290.02 231.744 1289.08 232.677 1287.94 232.677C1286.79 232.677 1285.85 231.744 1285.85 230.594C1285.85 229.444 1284.92 228.511 1283.77 228.511C1282.62 228.511 1281.69 229.444 1281.69 230.594C1281.69 234.04 1284.49 236.844 1287.94 236.844C1291.38 236.844 1294.19 234.04 1294.19 230.594V218.094C1294.19 216.944 1293.25 216.011 1292.1 216.011Z" fill="#FACC15"/>
<path d="M1299.92 212.167C1301.07 212.167 1302 211.233 1302 210.083V160.084C1302 158.934 1301.07 158.001 1299.92 158.001H1254.08C1253.8 158.001 1253.53 158.059 1253.28 158.163C1253.16 158.213 1253.07 158.305 1252.96 158.376C1252.84 158.451 1252.71 158.509 1252.61 158.609L1227.61 183.609C1227.51 183.705 1227.46 183.834 1227.38 183.946C1227.31 184.059 1227.21 184.155 1227.16 184.28C1227.05 184.534 1227 184.805 1227 185.084V255.916C1227 257.066 1227.93 257.999 1229.08 257.999H1299.92C1301.07 257.999 1302 257.066 1302 255.916V243.416C1302 242.266 1301.07 241.333 1299.92 241.333C1298.77 241.333 1297.83 242.266 1297.83 243.416V253.832H1231.17V187.167H1254.08C1255.23 187.167 1256.17 186.234 1256.17 185.084V162.167H1297.83V210.083C1297.83 211.233 1298.77 212.167 1299.92 212.167ZM1252 183H1234.11L1252 165.113V183Z" fill="#FACC15"/>
</g>
<path d="M397.523 670V640.909H414.966V644.034H401.045V653.864H413.659V656.989H401.045V670H397.523ZM428.091 670.455C425.989 670.455 424.175 669.991 422.651 669.062C421.135 668.125 419.966 666.818 419.142 665.142C418.328 663.456 417.92 661.496 417.92 659.261C417.92 657.027 418.328 655.057 419.142 653.352C419.966 651.638 421.112 650.303 422.58 649.347C424.057 648.381 425.78 647.898 427.75 647.898C428.886 647.898 430.009 648.087 431.116 648.466C432.224 648.845 433.233 649.46 434.142 650.312C435.051 651.155 435.776 652.273 436.315 653.665C436.855 655.057 437.125 656.771 437.125 658.807V660.227H420.307V657.33H433.716C433.716 656.098 433.47 655 432.977 654.034C432.494 653.068 431.803 652.306 430.903 651.747C430.013 651.188 428.962 650.909 427.75 650.909C426.415 650.909 425.259 651.241 424.284 651.903C423.318 652.557 422.575 653.409 422.054 654.46C421.533 655.511 421.273 656.638 421.273 657.841V659.773C421.273 661.42 421.557 662.817 422.125 663.963C422.703 665.099 423.503 665.966 424.526 666.562C425.548 667.15 426.737 667.443 428.091 667.443C428.972 667.443 429.767 667.32 430.477 667.074C431.197 666.818 431.817 666.439 432.338 665.938C432.859 665.426 433.261 664.792 433.545 664.034L436.784 664.943C436.443 666.042 435.87 667.008 435.065 667.841C434.26 668.665 433.266 669.309 432.082 669.773C430.899 670.227 429.568 670.455 428.091 670.455ZM451.713 648.182V651.023H440.406V648.182H451.713ZM443.702 642.955H447.054V663.75C447.054 664.697 447.191 665.407 447.466 665.881C447.75 666.345 448.11 666.657 448.545 666.818C448.991 666.97 449.459 667.045 449.952 667.045C450.321 667.045 450.624 667.027 450.861 666.989C451.098 666.941 451.287 666.903 451.429 666.875L452.111 669.886C451.884 669.972 451.566 670.057 451.159 670.142C450.752 670.237 450.236 670.284 449.611 670.284C448.664 670.284 447.736 670.08 446.827 669.673C445.927 669.266 445.179 668.646 444.582 667.812C443.995 666.979 443.702 665.928 443.702 664.659V642.955ZM465.385 670.455C463.339 670.455 461.578 669.972 460.101 669.006C458.624 668.04 457.487 666.709 456.692 665.014C455.896 663.319 455.499 661.383 455.499 659.205C455.499 656.989 455.906 655.033 456.72 653.338C457.544 651.634 458.69 650.303 460.158 649.347C461.635 648.381 463.358 647.898 465.328 647.898C466.862 647.898 468.245 648.182 469.476 648.75C470.707 649.318 471.715 650.114 472.501 651.136C473.287 652.159 473.775 653.352 473.964 654.716H470.612C470.357 653.722 469.788 652.841 468.908 652.074C468.036 651.297 466.862 650.909 465.385 650.909C464.078 650.909 462.932 651.25 461.947 651.932C460.972 652.604 460.21 653.556 459.661 654.787C459.121 656.009 458.851 657.443 458.851 659.091C458.851 660.777 459.116 662.244 459.646 663.494C460.186 664.744 460.944 665.715 461.919 666.406C462.904 667.098 464.059 667.443 465.385 667.443C466.256 667.443 467.047 667.292 467.757 666.989C468.467 666.686 469.069 666.25 469.561 665.682C470.054 665.114 470.404 664.432 470.612 663.636H473.964C473.775 664.924 473.306 666.084 472.558 667.116C471.82 668.139 470.839 668.954 469.618 669.56C468.406 670.156 466.995 670.455 465.385 670.455ZM482.217 656.875V670H478.865V640.909H482.217V651.591H482.501C483.013 650.464 483.78 649.569 484.803 648.906C485.835 648.234 487.208 647.898 488.922 647.898C490.409 647.898 491.711 648.196 492.828 648.793C493.946 649.38 494.812 650.284 495.428 651.506C496.053 652.718 496.365 654.261 496.365 656.136V670H493.013V656.364C493.013 654.631 492.563 653.291 491.663 652.344C490.773 651.387 489.537 650.909 487.956 650.909C486.857 650.909 485.873 651.141 485.001 651.605C484.14 652.069 483.458 652.746 482.956 653.636C482.464 654.527 482.217 655.606 482.217 656.875ZM524.032 639.545L514.657 674.375H511.589L520.964 639.545H524.032ZM539.71 670V640.909H557.153V644.034H543.233V653.864H555.847V656.989H543.233V670H539.71ZM569.994 670.455C568.025 670.455 566.296 669.986 564.81 669.048C563.332 668.111 562.177 666.799 561.344 665.114C560.52 663.428 560.108 661.458 560.108 659.205C560.108 656.932 560.52 654.948 561.344 653.253C562.177 651.558 563.332 650.241 564.81 649.304C566.296 648.366 568.025 647.898 569.994 647.898C571.964 647.898 573.688 648.366 575.165 649.304C576.652 650.241 577.807 651.558 578.631 653.253C579.464 654.948 579.881 656.932 579.881 659.205C579.881 661.458 579.464 663.428 578.631 665.114C577.807 666.799 576.652 668.111 575.165 669.048C573.688 669.986 571.964 670.455 569.994 670.455ZM569.994 667.443C571.491 667.443 572.722 667.06 573.688 666.293C574.653 665.526 575.368 664.517 575.832 663.267C576.296 662.017 576.528 660.663 576.528 659.205C576.528 657.746 576.296 656.387 575.832 655.128C575.368 653.868 574.653 652.85 573.688 652.074C572.722 651.297 571.491 650.909 569.994 650.909C568.498 650.909 567.267 651.297 566.301 652.074C565.335 652.85 564.62 653.868 564.156 655.128C563.692 656.387 563.46 657.746 563.46 659.205C563.46 660.663 563.692 662.017 564.156 663.267C564.62 664.517 565.335 665.526 566.301 666.293C567.267 667.06 568.498 667.443 569.994 667.443ZM584.998 670V648.182H588.237V651.477H588.464C588.862 650.398 589.581 649.522 590.623 648.849C591.665 648.177 592.839 647.841 594.146 647.841C594.392 647.841 594.7 647.846 595.069 647.855C595.438 647.865 595.718 647.879 595.907 647.898V651.307C595.793 651.278 595.533 651.236 595.126 651.179C594.728 651.113 594.307 651.08 593.862 651.08C592.801 651.08 591.854 651.302 591.021 651.747C590.197 652.183 589.543 652.789 589.06 653.565C588.587 654.332 588.35 655.208 588.35 656.193V670H584.998ZM599.881 670V648.182H603.119V651.591H603.403C603.858 650.426 604.592 649.522 605.605 648.878C606.618 648.224 607.835 647.898 609.256 647.898C610.695 647.898 611.893 648.224 612.849 648.878C613.815 649.522 614.568 650.426 615.108 651.591H615.335C615.894 650.464 616.732 649.569 617.849 648.906C618.967 648.234 620.307 647.898 621.869 647.898C623.82 647.898 625.416 648.509 626.656 649.73C627.897 650.942 628.517 652.831 628.517 655.398V670H625.165V655.398C625.165 653.788 624.724 652.637 623.844 651.946C622.963 651.255 621.926 650.909 620.733 650.909C619.199 650.909 618.01 651.373 617.168 652.301C616.325 653.22 615.903 654.384 615.903 655.795V670H612.494V655.057C612.494 653.816 612.092 652.817 611.287 652.06C610.482 651.293 609.445 650.909 608.176 650.909C607.305 650.909 606.491 651.141 605.733 651.605C604.985 652.069 604.379 652.713 603.915 653.537C603.46 654.351 603.233 655.294 603.233 656.364V670H599.881ZM646.351 670V640.909H656.18C658.463 640.909 660.328 641.321 661.777 642.145C663.235 642.959 664.315 644.062 665.016 645.455C665.716 646.847 666.067 648.4 666.067 650.114C666.067 651.828 665.716 653.385 665.016 654.787C664.324 656.188 663.254 657.306 661.805 658.139C660.357 658.963 658.5 659.375 656.237 659.375H649.192V656.25H656.124C657.686 656.25 658.941 655.98 659.888 655.44C660.835 654.901 661.521 654.171 661.947 653.253C662.383 652.325 662.601 651.278 662.601 650.114C662.601 648.949 662.383 647.907 661.947 646.989C661.521 646.07 660.83 645.35 659.874 644.83C658.917 644.299 657.648 644.034 656.067 644.034H649.874V670H646.351ZM679.916 670.455C677.946 670.455 676.218 669.986 674.732 669.048C673.254 668.111 672.099 666.799 671.266 665.114C670.442 663.428 670.03 661.458 670.03 659.205C670.03 656.932 670.442 654.948 671.266 653.253C672.099 651.558 673.254 650.241 674.732 649.304C676.218 648.366 677.946 647.898 679.916 647.898C681.886 647.898 683.609 648.366 685.087 649.304C686.573 650.241 687.729 651.558 688.553 653.253C689.386 654.948 689.803 656.932 689.803 659.205C689.803 661.458 689.386 663.428 688.553 665.114C687.729 666.799 686.573 668.111 685.087 669.048C683.609 669.986 681.886 670.455 679.916 670.455ZM679.916 667.443C681.412 667.443 682.643 667.06 683.609 666.293C684.575 665.526 685.29 664.517 685.754 663.267C686.218 662.017 686.45 660.663 686.45 659.205C686.45 657.746 686.218 656.387 685.754 655.128C685.29 653.868 684.575 652.85 683.609 652.074C682.643 651.297 681.412 650.909 679.916 650.909C678.42 650.909 677.189 651.297 676.223 652.074C675.257 652.85 674.542 653.868 674.078 655.128C673.614 656.387 673.382 657.746 673.382 659.205C673.382 660.663 673.614 662.017 674.078 663.267C674.542 664.517 675.257 665.526 676.223 666.293C677.189 667.06 678.42 667.443 679.916 667.443ZM710.374 653.068L707.363 653.92C707.174 653.419 706.894 652.931 706.525 652.457C706.165 651.974 705.673 651.577 705.048 651.264C704.423 650.952 703.622 650.795 702.647 650.795C701.312 650.795 700.199 651.103 699.309 651.719C698.428 652.325 697.988 653.097 697.988 654.034C697.988 654.867 698.291 655.526 698.897 656.009C699.503 656.491 700.45 656.894 701.738 657.216L704.977 658.011C706.927 658.485 708.381 659.209 709.337 660.185C710.294 661.151 710.772 662.396 710.772 663.92C710.772 665.17 710.412 666.288 709.692 667.273C708.982 668.258 707.988 669.034 706.71 669.602C705.431 670.17 703.944 670.455 702.249 670.455C700.024 670.455 698.182 669.972 696.724 669.006C695.265 668.04 694.342 666.629 693.954 664.773L697.136 663.977C697.439 665.152 698.012 666.032 698.854 666.619C699.707 667.206 700.819 667.5 702.192 667.5C703.755 667.5 704.996 667.169 705.914 666.506C706.842 665.833 707.306 665.028 707.306 664.091C707.306 663.333 707.041 662.699 706.511 662.188C705.98 661.667 705.166 661.278 704.067 661.023L700.431 660.17C698.433 659.697 696.965 658.963 696.028 657.969C695.1 656.965 694.636 655.71 694.636 654.205C694.636 652.973 694.981 651.884 695.673 650.938C696.373 649.991 697.325 649.247 698.528 648.707C699.74 648.168 701.113 647.898 702.647 647.898C704.806 647.898 706.501 648.371 707.732 649.318C708.973 650.265 709.853 651.515 710.374 653.068ZM725.307 648.182V651.023H714V648.182H725.307ZM717.295 642.955H720.648V663.75C720.648 664.697 720.785 665.407 721.06 665.881C721.344 666.345 721.704 666.657 722.139 666.818C722.584 666.97 723.053 667.045 723.545 667.045C723.915 667.045 724.218 667.027 724.455 666.989C724.691 666.941 724.881 666.903 725.023 666.875L725.705 669.886C725.477 669.972 725.16 670.057 724.753 670.142C724.346 670.237 723.83 670.284 723.205 670.284C722.258 670.284 721.33 670.08 720.42 669.673C719.521 669.266 718.773 668.646 718.176 667.812C717.589 666.979 717.295 665.928 717.295 664.659V642.955Z" fill="white"/>
<path d="M1312.06 657.33C1312.64 656.747 1312.65 655.797 1312.07 655.209L1302.56 645.618C1301.98 645.03 1301.03 645.025 1300.44 645.608C1299.85 646.191 1299.85 647.141 1300.43 647.729L1308.88 656.254L1300.35 664.7C1299.77 665.283 1299.76 666.233 1300.34 666.821C1300.93 667.41 1301.88 667.414 1302.46 666.831L1312.06 657.33ZM772.993 655.236L1310.99 657.764L1311.01 654.764L773.007 652.236L772.993 655.236Z" fill="white"/>
<path d="M392.939 747.963C392.354 748.548 392.354 749.498 392.939 750.084L402.486 759.629C403.072 760.215 404.022 760.215 404.607 759.629C405.193 759.043 405.193 758.094 404.607 757.508L396.121 749.023L404.606 740.537C405.192 739.951 405.192 739.002 404.606 738.416C404.02 737.83 403.07 737.83 402.485 738.416L392.939 747.963ZM394 750.523L1153 750.477L1153 747.477L394 747.523L394 750.523Z" fill="#FACC15"/>
<g clip-path="url(#clip2_15_2)">
<path d="M1224 699V759H1229V704H1269V719V724H1289V759H1294V724V719L1274 699H1269H1224ZM1274 705.768L1287.23 719H1274V705.768ZM1229 764V779L1228.96 779.654L1228.83 780.289L1228.62 780.914L1228.33 781.5L1227.96 782.037L1227.53 782.535L1227.05 782.965L1226.5 783.326L1225.91 783.619L1225.3 783.824L1224.65 783.961L1224 784L1223.35 783.961L1222.7 783.824L1222.09 783.619L1221.5 783.326L1220.95 782.965L1220.46 782.535L1220.03 782.037L1219.67 781.5L1219.38 780.914L1219.17 780.289L1219.04 779.654L1219 779H1214L1214.04 779.918L1214.18 780.836L1214.38 781.734L1214.67 782.613L1215.04 783.453L1215.5 784.264L1216.02 785.025L1216.61 785.738L1217.26 786.393L1217.97 786.979L1218.74 787.496L1219.54 787.955L1220.39 788.326L1221.27 788.619L1222.16 788.824L1223.08 788.961L1224 789L1224.92 788.961L1225.84 788.824L1226.73 788.619L1227.61 788.326L1228.46 787.955L1229.26 787.496L1230.03 786.979L1230.74 786.393L1231.39 785.738L1231.98 785.025L1232.5 784.264L1232.95 783.453L1233.33 782.613L1233.62 781.734L1233.82 780.836L1233.96 779.918L1234 779V764H1229ZM1246.5 764C1245.51 764 1244.54 764.194 1243.63 764.571C1242.72 764.948 1241.89 765.5 1241.2 766.197C1240.5 766.893 1239.95 767.72 1239.57 768.63C1239.19 769.54 1239 770.515 1239 771.5C1239 772.485 1239.19 773.46 1239.57 774.37C1239.95 775.28 1240.5 776.107 1241.2 776.803C1241.89 777.5 1242.72 778.052 1243.63 778.429C1244.54 778.806 1245.51 779 1246.5 779H1251.5C1252.16 779 1252.8 779.263 1253.27 779.732C1253.74 780.201 1254 780.837 1254 781.5C1254 782.163 1253.74 782.799 1253.27 783.268C1252.8 783.737 1252.16 784 1251.5 784H1239V789H1251.5C1252.48 789 1253.46 788.806 1254.37 788.429C1255.28 788.052 1256.11 787.5 1256.8 786.803C1257.5 786.107 1258.05 785.28 1258.43 784.37C1258.81 783.46 1259 782.485 1259 781.5C1259 780.515 1258.81 779.54 1258.43 778.63C1258.05 777.72 1257.5 776.893 1256.8 776.197C1256.11 775.5 1255.28 774.948 1254.37 774.571C1253.46 774.194 1252.48 774 1251.5 774H1246.5C1245.84 774 1245.2 773.737 1244.73 773.268C1244.26 772.799 1244 772.163 1244 771.5C1244 770.837 1244.26 770.201 1244.73 769.732C1245.2 769.263 1245.84 769 1246.5 769H1259V764H1246.5ZM1274 764L1273.08 764.039L1272.16 764.166L1271.27 764.381L1270.39 764.674L1269.54 765.045L1268.74 765.494L1267.97 766.021L1267.26 766.607L1266.61 767.262L1266.02 767.975L1265.5 768.736L1265.04 769.537L1264.67 770.387L1264.38 771.256L1264.18 772.164L1264.04 773.082L1264 774V779L1264.04 779.918L1264.18 780.836L1264.38 781.734L1264.67 782.613L1265.04 783.453L1265.5 784.264L1266.02 785.025L1266.61 785.738L1267.26 786.393L1267.97 786.979L1268.74 787.496L1269.54 787.955L1270.39 788.326L1271.27 788.619L1272.16 788.824L1273.08 788.961L1274 789L1274.92 788.961L1275.84 788.824L1276.73 788.619L1277.61 788.326L1278.46 787.955L1279.26 787.496L1280.03 786.979L1280.74 786.393L1281.39 785.738L1281.98 785.025L1282.5 784.264L1282.95 783.453L1283.33 782.613L1283.62 781.734L1283.82 780.836L1283.96 779.918L1284 779V774L1283.96 773.082L1283.82 772.164L1283.62 771.256L1283.33 770.387L1282.95 769.537L1282.5 768.736L1281.98 767.975L1281.39 767.262L1280.74 766.607L1280.03 766.021L1279.26 765.494L1278.46 765.045L1277.61 764.674L1276.73 764.381L1275.84 764.166L1274.92 764.039L1274 764ZM1291.57 764C1291.23 763.991 1290.9 764.049 1290.59 764.17C1290.28 764.292 1290 764.475 1289.76 764.708C1289.52 764.941 1289.33 765.219 1289.2 765.527C1289.07 765.835 1289 766.166 1289 766.5V789H1294V774.01L1304.5 788.004C1304.81 788.425 1305.25 788.735 1305.75 788.892C1306.26 789.049 1306.79 789.044 1307.29 788.877C1307.79 788.711 1308.22 788.391 1308.53 787.965C1308.84 787.538 1309 787.025 1309 786.5V764H1304V778.99L1293.5 764.996C1293.28 764.695 1292.98 764.449 1292.65 764.277C1292.31 764.104 1291.94 764.01 1291.57 764ZM1274 769L1274.65 769.039L1275.3 769.166L1275.91 769.381L1276.5 769.674L1277.05 770.035L1277.53 770.465L1277.96 770.953L1278.33 771.5L1278.62 772.086L1278.83 772.701L1278.96 773.346L1279 774V779L1278.96 779.654L1278.83 780.289L1278.62 780.914L1278.33 781.5L1277.96 782.037L1277.53 782.535L1277.05 782.965L1276.5 783.326L1275.91 783.619L1275.3 783.824L1274.65 783.961L1274 784L1273.35 783.961L1272.7 783.824L1272.09 783.619L1271.5 783.326L1270.95 782.965L1270.46 782.535L1270.03 782.037L1269.67 781.5L1269.38 780.914L1269.17 780.289L1269.04 779.654L1269 779V774L1269.04 773.346L1269.17 772.701L1269.38 772.086L1269.67 771.5L1270.03 770.953L1270.46 770.465L1270.95 770.035L1271.5 769.674L1272.09 769.381L1272.7 769.166L1273.35 769.039L1274 769ZM1224 794V799H1294V794H1289H1229H1224Z" fill="#FACC15"/>
</g>
<path d="M394.17 573.193C393.724 574.204 394.183 575.385 395.193 575.83L411.664 583.09C412.675 583.535 413.856 583.077 414.301 582.066C414.747 581.056 414.288 579.875 413.278 579.43L398.637 572.977L405.09 558.336C405.535 557.325 405.077 556.144 404.066 555.699C403.056 555.253 401.875 555.712 401.43 556.722L394.17 573.193ZM395.403 360.909C454.111 379.263 498.758 395.844 528.888 411.861C543.955 419.87 555.285 427.684 562.919 435.428C570.544 443.165 574.352 450.695 574.698 458.184C575.044 465.668 571.952 473.516 564.927 481.928C557.893 490.352 547.029 499.199 532.149 508.602C502.393 527.406 456.994 548.179 395.276 572.136L396.724 575.864C458.484 551.891 504.186 531.005 534.286 511.984C549.334 502.474 560.586 493.368 567.997 484.492C575.418 475.606 579.101 466.809 578.694 457.999C578.287 449.194 573.812 440.781 565.767 432.62C557.73 424.467 546.003 416.429 530.765 408.329C500.287 392.127 455.339 375.456 396.597 357.091L395.403 360.909Z" fill="white"/>
<path d="M623.315 452.409V481.5H619.906L604.054 458.659H603.77V481.5H600.247V452.409H603.656L619.565 475.307H619.849V452.409H623.315ZM636.33 482.011C634.948 482.011 633.693 481.751 632.566 481.23C631.439 480.7 630.544 479.938 629.881 478.943C629.218 477.939 628.887 476.727 628.887 475.307C628.887 474.057 629.133 473.044 629.626 472.267C630.118 471.481 630.776 470.866 631.6 470.42C632.424 469.975 633.333 469.644 634.327 469.426C635.331 469.199 636.34 469.019 637.353 468.886C638.679 468.716 639.753 468.588 640.577 468.503C641.411 468.408 642.017 468.252 642.395 468.034C642.784 467.816 642.978 467.437 642.978 466.898V466.784C642.978 465.383 642.594 464.294 641.827 463.517C641.07 462.741 639.919 462.352 638.376 462.352C636.775 462.352 635.52 462.703 634.611 463.403C633.702 464.104 633.063 464.852 632.694 465.648L629.512 464.511C630.08 463.186 630.838 462.153 631.785 461.415C632.741 460.667 633.783 460.146 634.91 459.852C636.046 459.549 637.163 459.398 638.262 459.398C638.963 459.398 639.768 459.483 640.677 459.653C641.595 459.814 642.481 460.151 643.333 460.662C644.195 461.173 644.91 461.945 645.478 462.977C646.046 464.009 646.33 465.392 646.33 467.125V481.5H642.978V478.545H642.807C642.58 479.019 642.201 479.526 641.671 480.065C641.141 480.605 640.435 481.064 639.555 481.443C638.674 481.822 637.599 482.011 636.33 482.011ZM636.841 479C638.167 479 639.285 478.74 640.194 478.219C641.112 477.698 641.804 477.026 642.268 476.202C642.741 475.378 642.978 474.511 642.978 473.602V470.534C642.836 470.705 642.523 470.861 642.04 471.003C641.567 471.135 641.018 471.254 640.393 471.358C639.777 471.453 639.176 471.538 638.589 471.614C638.011 471.68 637.542 471.737 637.182 471.784C636.311 471.898 635.497 472.082 634.739 472.338C633.991 472.584 633.385 472.958 632.921 473.46C632.466 473.953 632.239 474.625 632.239 475.477C632.239 476.642 632.67 477.523 633.532 478.119C634.403 478.706 635.506 479 636.841 479ZM669.508 459.682L661.44 481.5H658.031L649.963 459.682H653.599L659.622 477.068H659.849L665.872 459.682H669.508ZM673.933 481.5V459.682H677.285V481.5H673.933ZM675.638 456.045C674.984 456.045 674.421 455.823 673.947 455.378C673.483 454.933 673.251 454.398 673.251 453.773C673.251 453.148 673.483 452.613 673.947 452.168C674.421 451.723 674.984 451.5 675.638 451.5C676.291 451.5 676.85 451.723 677.314 452.168C677.787 452.613 678.024 453.148 678.024 453.773C678.024 454.398 677.787 454.933 677.314 455.378C676.85 455.823 676.291 456.045 675.638 456.045ZM692.232 490.136C690.613 490.136 689.221 489.928 688.056 489.511C686.891 489.104 685.921 488.564 685.144 487.892C684.377 487.229 683.766 486.519 683.312 485.761L685.982 483.886C686.285 484.284 686.669 484.739 687.133 485.25C687.597 485.771 688.231 486.221 689.036 486.599C689.85 486.988 690.916 487.182 692.232 487.182C693.993 487.182 695.447 486.756 696.593 485.903C697.739 485.051 698.312 483.716 698.312 481.898V477.466H698.028C697.781 477.864 697.431 478.356 696.976 478.943C696.531 479.521 695.887 480.037 695.045 480.491C694.211 480.937 693.084 481.159 691.664 481.159C689.903 481.159 688.321 480.742 686.92 479.909C685.528 479.076 684.424 477.864 683.61 476.273C682.805 474.682 682.403 472.75 682.403 470.477C682.403 468.242 682.796 466.296 683.582 464.639C684.368 462.973 685.461 461.685 686.863 460.776C688.264 459.857 689.884 459.398 691.721 459.398C693.141 459.398 694.268 459.634 695.101 460.108C695.944 460.572 696.588 461.102 697.033 461.699C697.488 462.286 697.838 462.769 698.084 463.148H698.425V459.682H701.664V482.125C701.664 484 701.238 485.525 700.386 486.699C699.543 487.883 698.406 488.749 696.976 489.298C695.556 489.857 693.975 490.136 692.232 490.136ZM692.118 478.148C693.463 478.148 694.6 477.84 695.528 477.224C696.456 476.609 697.161 475.723 697.644 474.568C698.127 473.413 698.368 472.03 698.368 470.42C698.368 468.848 698.132 467.461 697.658 466.259C697.185 465.056 696.484 464.114 695.556 463.432C694.628 462.75 693.482 462.409 692.118 462.409C690.698 462.409 689.514 462.769 688.567 463.489C687.63 464.208 686.924 465.174 686.451 466.386C685.987 467.598 685.755 468.943 685.755 470.42C685.755 471.936 685.992 473.276 686.465 474.44C686.948 475.596 687.658 476.505 688.596 477.168C689.543 477.821 690.717 478.148 692.118 478.148ZM714.221 482.011C712.838 482.011 711.583 481.751 710.457 481.23C709.33 480.7 708.435 479.938 707.772 478.943C707.109 477.939 706.778 476.727 706.778 475.307C706.778 474.057 707.024 473.044 707.516 472.267C708.009 471.481 708.667 470.866 709.491 470.42C710.315 469.975 711.224 469.644 712.218 469.426C713.222 469.199 714.23 469.019 715.243 468.886C716.569 468.716 717.644 468.588 718.468 468.503C719.301 468.408 719.907 468.252 720.286 468.034C720.674 467.816 720.868 467.437 720.868 466.898V466.784C720.868 465.383 720.485 464.294 719.718 463.517C718.96 462.741 717.81 462.352 716.266 462.352C714.666 462.352 713.411 462.703 712.502 463.403C711.593 464.104 710.954 464.852 710.584 465.648L707.403 464.511C707.971 463.186 708.728 462.153 709.675 461.415C710.632 460.667 711.673 460.146 712.8 459.852C713.937 459.549 715.054 459.398 716.153 459.398C716.853 459.398 717.658 459.483 718.567 459.653C719.486 459.814 720.371 460.151 721.224 460.662C722.085 461.173 722.8 461.945 723.368 462.977C723.937 464.009 724.221 465.392 724.221 467.125V481.5H720.868V478.545H720.698C720.471 479.019 720.092 479.526 719.562 480.065C719.031 480.605 718.326 481.064 717.445 481.443C716.565 481.822 715.49 482.011 714.221 482.011ZM714.732 479C716.058 479 717.175 478.74 718.084 478.219C719.003 477.698 719.694 477.026 720.158 476.202C720.632 475.378 720.868 474.511 720.868 473.602V470.534C720.726 470.705 720.414 470.861 719.931 471.003C719.457 471.135 718.908 471.254 718.283 471.358C717.668 471.453 717.066 471.538 716.479 471.614C715.902 471.68 715.433 471.737 715.073 471.784C714.202 471.898 713.387 472.082 712.63 472.338C711.882 472.584 711.276 472.958 710.812 473.46C710.357 473.953 710.13 474.625 710.13 475.477C710.13 476.642 710.561 477.523 711.422 478.119C712.294 478.706 713.397 479 714.732 479ZM739.828 459.682V462.523H728.521V459.682H739.828ZM731.817 454.455H735.169V475.25C735.169 476.197 735.306 476.907 735.581 477.381C735.865 477.845 736.225 478.157 736.66 478.318C737.105 478.47 737.574 478.545 738.067 478.545C738.436 478.545 738.739 478.527 738.976 478.489C739.212 478.441 739.402 478.403 739.544 478.375L740.226 481.386C739.998 481.472 739.681 481.557 739.274 481.642C738.867 481.737 738.351 481.784 737.726 481.784C736.779 481.784 735.851 481.58 734.942 481.173C734.042 480.766 733.294 480.146 732.697 479.312C732.11 478.479 731.817 477.428 731.817 476.159V454.455ZM744.871 481.5V459.682H748.223V481.5H744.871ZM746.575 456.045C745.922 456.045 745.358 455.823 744.885 455.378C744.421 454.933 744.189 454.398 744.189 453.773C744.189 453.148 744.421 452.613 744.885 452.168C745.358 451.723 745.922 451.5 746.575 451.5C747.229 451.5 747.787 451.723 748.251 452.168C748.725 452.613 748.962 453.148 748.962 453.773C748.962 454.398 748.725 454.933 748.251 455.378C747.787 455.823 747.229 456.045 746.575 456.045ZM763.226 481.955C761.257 481.955 759.529 481.486 758.042 480.548C756.565 479.611 755.409 478.299 754.576 476.614C753.752 474.928 753.34 472.958 753.34 470.705C753.34 468.432 753.752 466.448 754.576 464.753C755.409 463.058 756.565 461.741 758.042 460.804C759.529 459.866 761.257 459.398 763.226 459.398C765.196 459.398 766.92 459.866 768.397 460.804C769.884 461.741 771.039 463.058 771.863 464.753C772.696 466.448 773.113 468.432 773.113 470.705C773.113 472.958 772.696 474.928 771.863 476.614C771.039 478.299 769.884 479.611 768.397 480.548C766.92 481.486 765.196 481.955 763.226 481.955ZM763.226 478.943C764.723 478.943 765.954 478.56 766.92 477.793C767.886 477.026 768.6 476.017 769.065 474.767C769.529 473.517 769.761 472.163 769.761 470.705C769.761 469.246 769.529 467.887 769.065 466.628C768.6 465.368 767.886 464.35 766.92 463.574C765.954 462.797 764.723 462.409 763.226 462.409C761.73 462.409 760.499 462.797 759.533 463.574C758.567 464.35 757.852 465.368 757.388 466.628C756.924 467.887 756.692 469.246 756.692 470.705C756.692 472.163 756.924 473.517 757.388 474.767C757.852 476.017 758.567 477.026 759.533 477.793C760.499 478.56 761.73 478.943 763.226 478.943ZM781.582 468.375V481.5H778.23V459.682H781.469V463.091H781.753C782.264 461.983 783.041 461.093 784.082 460.42C785.124 459.739 786.469 459.398 788.116 459.398C789.594 459.398 790.886 459.701 791.994 460.307C793.102 460.903 793.964 461.812 794.579 463.034C795.195 464.246 795.503 465.78 795.503 467.636V481.5H792.15V467.864C792.15 466.15 791.705 464.814 790.815 463.858C789.925 462.892 788.703 462.409 787.15 462.409C786.08 462.409 785.124 462.641 784.281 463.105C783.448 463.569 782.79 464.246 782.307 465.136C781.824 466.027 781.582 467.106 781.582 468.375Z" fill="white"/>
<defs>
<clipPath id="clip0_15_2">
<rect width="101" height="100" fill="white" transform="translate(1094 158)"/>
</clipPath>
<clipPath id="clip1_15_2">
<rect width="100" height="100" fill="white" transform="translate(1227 158)"/>
</clipPath>
<clipPath id="clip2_15_2">
<rect width="100" height="100" fill="white" transform="translate(1209 699)"/>
</clipPath>
</defs>
</svg>
